SplineFontDB: 3.2
FontName: PyTOC-Icons-Font
FullName: PyTOC-Icons Font
FamilyName: PyTOC
Weight: Regular
Copyright: Copyright (c) 2023, raa
UComments: "2023-12-20: Created with FontForge (http://fontforge.org)"
Version: 001.000
ItalicAngle: 0
UnderlinePosition: -100
UnderlineWidth: 50
Ascent: 800
Descent: 200
InvalidEm: 0
LayerCount: 2
Layer: 0 0 "+BBcEMAQ0BD0EOAQ5 +BD8EOwQwBD0A" 1
Layer: 1 0 "+BB8ENQRABDUENAQ9BDgEOQAA +BD8EOwQwBD0A" 0
XUID: [1021 694 1059014676 4824398]
StyleMap: 0x0000
FSType: 0
OS2Version: 0
OS2_WeightWidthSlopeOnly: 0
OS2_UseTypoMetrics: 1
CreationTime: 1703077691
ModificationTime: 1703092625
OS2TypoAscent: 0
OS2TypoAOffset: 1
OS2TypoDescent: 0
OS2TypoDOffset: 1
OS2TypoLinegap: 90
OS2WinAscent: 0
OS2WinAOffset: 1
OS2WinDescent: 0
OS2WinDOffset: 1
HheadAscent: 0
HheadAOffset: 1
HheadDescent: 0
HheadDOffset: 1
OS2Vendor: 'PfEd'
MarkAttachClasses: 1
DEI: 91125
Encoding: UnicodeFull
UnicodeInterp: none
NameList: AGL For New Fonts
DisplaySize: -48
AntiAlias: 1
FitToEm: 0
WinInfo: 982997 23 6
BeginPrivate: 0
EndPrivate
BeginChars: 1114112 141

StartChar: u1F310
Encoding: 127760 127760 0
Width: 1000
Flags: H
LayerCount: 2
Fore
SplineSet
1000 300 m 0
 1000 161.809570312 951.21484375 43.927734375 853.643554688 -53.6435546875 c 0
 756.072265625 -151.21484375 638.190429688 -200 500 -200 c 0
 361.809570312 -200 243.927734375 -151.21484375 146.356445312 -53.6435546875 c 0
 48.78515625 43.927734375 0 161.809570312 0 300 c 0
 0 438.190429688 48.78515625 556.072265625 146.356445312 653.643554688 c 0
 243.927734375 751.21484375 361.809570312 800 500 800 c 0
 638.190429688 800 756.072265625 751.21484375 853.643554688 653.643554688 c 0
 951.21484375 556.072265625 1000 438.190429688 1000 300 c 0
817.838867188 647.990234375 m 1
 757.537109375 703.266601562 687.604492188 740.1171875 608.040039062 758.54296875 c 1
 645.728515625 699.916015625 677.5546875 637.1015625 703.517578125 570.100585938 c 1
 746.231445312 591.875976562 784.337890625 617.838867188 817.838867188 647.990234375 c 1
972.361328125 313.819335938 m 1
 968.173828125 435.259765625 923.78515625 539.94921875 839.196289062 627.889648438 c 1
 802.345703125 595.2265625 760.46875 567.168945312 713.567382812 543.71875 c 1
 742.04296875 462.479492188 757.119140625 385.845703125 758.793945312 313.819335938 c 1
 972.361328125 313.819335938 l 1
677.135742188 557.538085938 m 1
 648.66015625 632.9140625 612.227539062 702.84765625 567.838867188 767.336914062 c 1
 548.576171875 769.849609375 530.569335938 771.524414062 513.819335938 772.361328125 c 1
 513.819335938 516.080078125 l 1
 566.583007812 518.592773438 621.021484375 532.412109375 677.135742188 557.538085938 c 1
484.924804688 516.080078125 m 1
 484.924804688 772.361328125 l 1
 469.01171875 771.524414062 451.423828125 769.849609375 432.161132812 767.336914062 c 1
 387.772460938 702.84765625 351.33984375 632.9140625 322.864257812 557.538085938 c 1
 378.978515625 532.412109375 432.998046875 518.592773438 484.924804688 516.080078125 c 1
731.15625 313.819335938 m 1
 728.643554688 381.658203125 713.986328125 454.104492188 687.185546875 531.15625 c 1
 628.559570312 504.35546875 570.770507812 489.698242188 513.819335938 487.185546875 c 1
 513.819335938 313.819335938 l 1
 731.15625 313.819335938 l 1
972.361328125 284.924804688 m 1
 758.793945312 284.924804688 l 1
 757.119140625 213.735351562 742.04296875 137.520507812 713.567382812 56.28125 c 1
 760.46875 32.8310546875 802.345703125 4.7734375 839.196289062 -27.8896484375 c 1
 923.78515625 59.212890625 968.173828125 163.484375 972.361328125 284.924804688 c 1
391.959960938 758.54296875 m 1
 312.395507812 740.1171875 242.462890625 703.266601562 182.161132812 647.990234375 c 1
 215.662109375 617.838867188 253.768554688 591.875976562 296.482421875 570.100585938 c 1
 322.4453125 636.264648438 354.271484375 699.079101562 391.959960938 758.54296875 c 1
484.924804688 313.819335938 m 1
 484.924804688 487.185546875 l 1
 428.810546875 489.698242188 371.440429688 504.35546875 312.814453125 531.15625 c 1
 286.013671875 454.104492188 271.356445312 381.658203125 268.84375 313.819335938 c 1
 484.924804688 313.819335938 l 1
731.15625 284.924804688 m 1
 513.819335938 284.924804688 l 1
 513.819335938 112.814453125 l 1
 570.770507812 110.301757812 628.559570312 95.64453125 687.185546875 68.84375 c 1
 713.986328125 145.895507812 728.643554688 217.922851562 731.15625 284.924804688 c 1
817.838867188 -47.990234375 m 1
 784.337890625 -17.8388671875 746.231445312 8.1240234375 703.517578125 29.8994140625 c 1
 677.5546875 -36.2646484375 645.728515625 -99.0791015625 608.040039062 -158.54296875 c 1
 687.604492188 -140.1171875 757.537109375 -103.266601562 817.838867188 -47.990234375 c 1
286.432617188 543.71875 m 1
 239.53125 567.168945312 197.654296875 595.2265625 160.803710938 627.889648438 c 1
 76.21484375 540.787109375 31.826171875 436.09765625 27.638671875 313.819335938 c 1
 241.206054688 313.819335938 l 1
 242.880859375 385.845703125 257.95703125 462.479492188 286.432617188 543.71875 c 1
484.924804688 112.814453125 m 1
 484.924804688 284.924804688 l 1
 268.84375 284.924804688 l 1
 271.356445312 217.922851562 286.013671875 145.895507812 312.814453125 68.84375 c 1
 371.440429688 95.64453125 428.810546875 110.301757812 484.924804688 112.814453125 c 1
677.135742188 42.4619140625 m 1
 621.021484375 67.587890625 566.583007812 81.4072265625 513.819335938 83.919921875 c 1
 513.819335938 -172.361328125 l 1
 530.569335938 -171.524414062 548.576171875 -169.849609375 567.838867188 -167.336914062 c 1
 612.227539062 -102.84765625 648.66015625 -32.9140625 677.135742188 42.4619140625 c 1
484.924804688 -172.361328125 m 1
 484.924804688 83.919921875 l 1
 432.998046875 81.4072265625 378.978515625 67.587890625 322.864257812 42.4619140625 c 1
 351.33984375 -32.9140625 387.772460938 -102.84765625 432.161132812 -167.336914062 c 1
 451.423828125 -169.849609375 469.01171875 -171.524414062 484.924804688 -172.361328125 c 1
286.432617188 56.28125 m 1
 257.95703125 137.520507812 242.880859375 213.735351562 241.206054688 284.924804688 c 1
 27.638671875 284.924804688 l 1
 31.826171875 164.322265625 76.21484375 60.05078125 160.803710938 -27.8896484375 c 1
 197.654296875 4.7734375 239.53125 32.8310546875 286.432617188 56.28125 c 1
391.959960938 -158.54296875 m 1
 354.271484375 -99.0791015625 322.4453125 -36.2646484375 296.482421875 29.8994140625 c 1
 253.768554688 8.1240234375 215.662109375 -17.8388671875 182.161132812 -47.990234375 c 1
 242.462890625 -103.266601562 312.395507812 -140.1171875 391.959960938 -158.54296875 c 1
EndSplineSet
Validated: 1
EndChar

StartChar: u1F315
Encoding: 127765 127765 1
Width: 1000
Flags: H
LayerCount: 2
Fore
SplineSet
499.731445312 -164.032226562 m 0
 627.125 -164.032226562 736.357421875 -118.67578125 827.428710938 -27.9619140625 c 0
 918.5 62.751953125 964.03515625 172.163085938 964.03515625 300.272460938 c 0
 964.03515625 428.0234375 918.5 537.344726562 827.428710938 628.237304688 c 0
 736.357421875 719.129882812 627.125 764.576171875 499.731445312 764.576171875 c 0
 371.98046875 764.576171875 262.659179688 719.129882812 171.765625 628.237304688 c 0
 80.8740234375 537.344726562 35.427734375 428.0234375 35.427734375 300.272460938 c 0
 35.427734375 172.163085938 80.8740234375 62.751953125 171.765625 -27.9619140625 c 0
 262.659179688 -118.67578125 371.98046875 -164.032226562 499.731445312 -164.032226562 c 0
499.731445312 800 m 0
 637.14453125 800 754.875976562 750.975585938 852.92578125 652.92578125 c 0
 950.975585938 554.875976562 1000 437.14453125 1000 299.731445312 c 0
 1000 161.9609375 950.975585938 44.2294921875 852.92578125 -53.4619140625 c 0
 754.875976562 -151.154296875 637.14453125 -200 499.731445312 -200 c 0
 361.9609375 -200 244.229492188 -151.154296875 146.538085938 -53.4619140625 c 0
 48.845703125 44.2294921875 0 161.9609375 0 299.731445312 c 0
 0 437.14453125 48.845703125 554.875976562 146.538085938 652.92578125 c 0
 244.229492188 750.975585938 361.9609375 800 499.731445312 800 c 0
EndSplineSet
Validated: 1
EndChar

StartChar: u1F311
Encoding: 127761 127761 2
Width: 1000
Flags: H
LayerCount: 2
Fore
SplineSet
499.731445312 800 m 0
 637.14453125 800 754.875976562 750.975585938 852.92578125 652.92578125 c 0
 950.975585938 554.875976562 1000 437.14453125 1000 299.731445312 c 0
 1000 161.9609375 950.975585938 44.2294921875 852.92578125 -53.4619140625 c 0
 754.875976562 -151.154296875 637.14453125 -200 499.731445312 -200 c 0
 361.9609375 -200 244.229492188 -151.154296875 146.538085938 -53.4619140625 c 0
 48.845703125 44.2294921875 0 161.9609375 0 299.731445312 c 0
 0 437.14453125 48.845703125 554.875976562 146.538085938 652.92578125 c 0
 244.229492188 750.975585938 361.9609375 800 499.731445312 800 c 0
EndSplineSet
Validated: 1
EndChar

StartChar: u1F317
Encoding: 127767 127767 3
Width: 1000
Flags: H
LayerCount: 2
Fore
SplineSet
499.731445312 764.032226562 m 1
 499.731445312 764.032226562 l 1
 372.337890625 764.032226562 263.1953125 718.5859375 172.302734375 627.693359375 c 0
 81.4111328125 536.80078125 35.96484375 427.478515625 35.96484375 299.727539062 c 0
 35.96484375 171.9765625 81.4111328125 62.6552734375 172.302734375 -28.2373046875 c 0
 263.1953125 -119.129882812 372.337890625 -164.576171875 499.731445312 -164.576171875 c 1
 499.731445312 764.034179688 l 1
 499.731445312 764.032226562 l 1
500.268554688 -200 m 0
 362.498046875 -200 244.676757812 -151.064453125 146.806640625 -53.193359375 c 0
 48.935546875 44.6767578125 0 162.318359375 0 299.731445312 c 0
 0 437.14453125 48.935546875 554.875976562 146.806640625 652.92578125 c 0
 244.676757812 750.975585938 362.497070312 800 500.268554688 800 c 0
 637.681640625 800 755.323242188 750.975585938 853.193359375 652.92578125 c 0
 951.064453125 554.875976562 1000 437.14453125 1000 299.731445312 c 0
 1000 162.318359375 951.064453125 44.6767578125 853.193359375 -53.193359375 c 0
 755.323242188 -151.064453125 637.681640625 -200 500.268554688 -200 c 0
EndSplineSet
Validated: 5
EndChar

StartChar: u1F313
Encoding: 127763 127763 4
Width: 1000
Flags: H
LayerCount: 2
Fore
SplineSet
500.268554688 -164.032226562 m 1
 500.268554688 -164.032226562 l 1
 627.303710938 -164.032226562 736.357421875 -118.67578125 827.428710938 -27.9619140625 c 0
 918.5 62.751953125 964.03515625 172.163085938 964.03515625 300.272460938 c 0
 964.03515625 428.0234375 918.5 537.344726562 827.428710938 628.237304688 c 0
 736.357421875 719.129882812 627.303710938 764.576171875 500.268554688 764.576171875 c 1
 500.268554688 -164.034179688 l 1
 500.268554688 -164.032226562 l 1
499.731445312 800 m 0
 637.14453125 800 754.875976562 750.975585938 852.92578125 652.92578125 c 0
 950.975585938 554.875976562 1000 437.14453125 1000 299.731445312 c 0
 1000 161.9609375 950.975585938 44.2294921875 852.92578125 -53.4619140625 c 0
 754.875976562 -151.154296875 637.14453125 -200 499.731445312 -200 c 0
 361.9609375 -200 244.229492188 -151.154296875 146.538085938 -53.4619140625 c 0
 48.845703125 44.2294921875 0 161.9609375 0 299.731445312 c 0
 0 437.14453125 48.845703125 554.875976562 146.538085938 652.92578125 c 0
 244.229492188 750.975585938 361.9609375 800 499.731445312 800 c 0
EndSplineSet
Validated: 5
EndChar

StartChar: u1F312
Encoding: 127762 127762 5
Width: 1000
Flags: H
LayerCount: 2
Fore
SplineSet
499.731445312 -164.032226562 m 1
 627.125 -164.032226562 736.357421875 -118.67578125 827.428710938 -27.9619140625 c 0
 918.5 62.751953125 964.03515625 172.163085938 964.03515625 300.272460938 c 0
 964.03515625 428.0234375 918.5 537.344726562 827.428710938 628.237304688 c 0
 736.357421875 719.129882812 627.125 764.576171875 499.731445312 764.576171875 c 1
 571.30078125 764.576171875 632.760742188 719.129882812 684.111328125 628.237304688 c 0
 735.461914062 537.344726562 761.137695312 428.0234375 761.137695312 300.272460938 c 0
 761.137695312 172.163085938 735.461914062 62.751953125 684.111328125 -27.9619140625 c 0
 632.760742188 -118.67578125 571.30078125 -164.032226562 499.731445312 -164.032226562 c 1
499.731445312 800 m 0
 637.14453125 800 754.875976562 750.975585938 852.92578125 652.92578125 c 0
 950.975585938 554.875976562 1000 437.14453125 1000 299.731445312 c 0
 1000 161.9609375 950.975585938 44.2294921875 852.92578125 -53.4619140625 c 0
 754.875976562 -151.154296875 637.14453125 -200 499.731445312 -200 c 0
 361.9609375 -200 244.229492188 -151.154296875 146.538085938 -53.4619140625 c 0
 48.845703125 44.2294921875 0 161.9609375 0 299.731445312 c 0
 0 437.14453125 48.845703125 554.875976562 146.538085938 652.92578125 c 0
 244.229492188 750.975585938 361.9609375 800 499.731445312 800 c 0
EndSplineSet
Validated: 1
EndChar

StartChar: u1F314
Encoding: 127764 127764 6
Width: 1000
Flags: H
LayerCount: 2
Fore
SplineSet
500.268554688 764.032226562 m 1
 500.268554688 764.032226562 l 1
 428.341796875 764.032226562 366.702148438 718.5859375 315.3515625 627.693359375 c 0
 264.000976562 536.80078125 238.325195312 427.478515625 238.325195312 299.727539062 c 0
 238.325195312 171.9765625 264.000976562 62.6552734375 315.3515625 -28.2373046875 c 0
 366.702148438 -119.129882812 428.341796875 -164.576171875 500.268554688 -164.576171875 c 0
 627.303710938 -164.576171875 736.357421875 -119.129882812 827.428710938 -28.2373046875 c 0
 918.5 62.6552734375 964.03515625 171.9765625 964.03515625 299.727539062 c 0
 964.03515625 427.478515625 918.5 536.80078125 827.428710938 627.693359375 c 0
 736.357421875 718.5859375 627.303710938 764.032226562 500.268554688 764.032226562 c 1
500.268554688 -200 m 0
 362.498046875 -200 244.676757812 -151.064453125 146.806640625 -53.193359375 c 0
 48.935546875 44.6767578125 0 162.318359375 0 299.731445312 c 0
 0 437.14453125 48.935546875 554.875976562 146.806640625 652.92578125 c 0
 244.676757812 750.975585938 362.497070312 800 500.268554688 800 c 0
 637.681640625 800 755.323242188 750.975585938 853.193359375 652.92578125 c 0
 951.064453125 554.875976562 1000 437.14453125 1000 299.731445312 c 0
 1000 162.318359375 951.064453125 44.6767578125 853.193359375 -53.193359375 c 0
 755.323242188 -151.064453125 637.681640625 -200 500.268554688 -200 c 0
EndSplineSet
Validated: 5
EndChar

StartChar: u1F316
Encoding: 127766 127766 7
Width: 1000
Flags: H
LayerCount: 2
Fore
SplineSet
499.731445312 -164.032226562 m 1
 499.731445312 -164.032226562 l 1
 571.30078125 -164.032226562 632.760742188 -118.67578125 684.111328125 -27.9619140625 c 0
 735.461914062 62.751953125 761.137695312 172.163085938 761.137695312 300.272460938 c 0
 761.137695312 428.0234375 735.461914062 537.344726562 684.111328125 628.237304688 c 0
 632.760742188 719.129882812 571.30078125 764.576171875 499.731445312 764.576171875 c 0
 371.98046875 764.576171875 262.659179688 719.129882812 171.765625 628.237304688 c 0
 80.8740234375 537.344726562 35.427734375 428.0234375 35.427734375 300.272460938 c 0
 35.427734375 172.163085938 80.8740234375 62.751953125 171.765625 -27.9619140625 c 0
 262.659179688 -118.67578125 371.98046875 -164.032226562 499.731445312 -164.032226562 c 1
499.731445312 800 m 0
 637.14453125 800 754.875976562 750.975585938 852.92578125 652.92578125 c 0
 950.975585938 554.875976562 1000 437.14453125 1000 299.731445312 c 0
 1000 161.9609375 950.975585938 44.2294921875 852.92578125 -53.4619140625 c 0
 754.875976562 -151.154296875 637.14453125 -200 499.731445312 -200 c 0
 361.9609375 -200 244.229492188 -151.154296875 146.538085938 -53.4619140625 c 0
 48.845703125 44.2294921875 0 161.9609375 0 299.731445312 c 0
 0 437.14453125 48.845703125 554.875976562 146.538085938 652.92578125 c 0
 244.229492188 750.975585938 361.9609375 800 499.731445312 800 c 0
EndSplineSet
Validated: 5
EndChar

StartChar: u1F318
Encoding: 127768 127768 8
Width: 1000
Flags: H
LayerCount: 2
Fore
SplineSet
500.268554688 764.032226562 m 1
 372.517578125 764.032226562 263.1953125 718.5859375 172.302734375 627.693359375 c 0
 81.4111328125 536.80078125 35.96484375 427.478515625 35.96484375 299.727539062 c 0
 35.96484375 171.9765625 81.4111328125 62.6552734375 172.302734375 -28.2373046875 c 0
 263.1953125 -119.129882812 372.517578125 -164.576171875 500.268554688 -164.576171875 c 1
 428.341796875 -164.576171875 366.702148438 -119.129882812 315.3515625 -28.2373046875 c 0
 264.000976562 62.6552734375 238.325195312 171.9765625 238.325195312 299.727539062 c 0
 238.325195312 427.478515625 264.000976562 536.80078125 315.3515625 627.693359375 c 0
 366.702148438 718.5859375 428.341796875 764.032226562 500.268554688 764.032226562 c 1
500.268554688 -200 m 0
 362.498046875 -200 244.676757812 -151.064453125 146.806640625 -53.193359375 c 0
 48.935546875 44.6767578125 0 162.318359375 0 299.731445312 c 0
 0 437.14453125 48.935546875 554.875976562 146.806640625 652.92578125 c 0
 244.676757812 750.975585938 362.497070312 800 500.268554688 800 c 0
 637.681640625 800 755.323242188 750.975585938 853.193359375 652.92578125 c 0
 951.064453125 554.875976562 1000 437.14453125 1000 299.731445312 c 0
 1000 162.318359375 951.064453125 44.6767578125 853.193359375 -53.193359375 c 0
 755.323242188 -151.064453125 637.681640625 -200 500.268554688 -200 c 0
EndSplineSet
Validated: 1
EndChar

StartChar: uni2609
Encoding: 9737 9737 9
Width: 1000
Flags: H
LayerCount: 2
Fore
SplineSet
1000 300 m 0
 1000 161.333007812 951.333007812 43.3330078125 854 -54 c 0
 756.666992188 -151.333007812 638.666992188 -200 500 -200 c 0
 361.333007812 -200 243.333007812 -151.333007812 146 -54 c 0
 48.6669921875 43.3330078125 0 161.333007812 0 300 c 0
 0 438.666992188 48.6669921875 556.666992188 146 654 c 0
 243.333007812 751.333007812 361.333007812 800 500 800 c 0
 638.666992188 800 756.666992188 751.333007812 854 654 c 0
 951.333007812 556.666992188 1000 438.666992188 1000 300 c 0
933.333007812 300 m 0
 933.333007812 420 891.111328125 522.22265625 806.666992188 606.666992188 c 0
 722.22265625 691.111328125 620 733.333007812 500 733.333007812 c 0
 380 733.333007812 277.77734375 691.111328125 193.333007812 606.666992188 c 0
 108.888671875 522.22265625 66.6669921875 420 66.6669921875 300 c 0
 66.6669921875 180 108.888671875 77.77734375 193.333007812 -6.6669921875 c 0
 277.77734375 -91.111328125 380 -133.333007812 500 -133.333007812 c 0
 620 -133.333007812 722.22265625 -91.111328125 806.666992188 -6.6669921875 c 0
 891.111328125 77.77734375 933.333007812 180 933.333007812 300 c 0
666.666992188 300 m 0
 666.666992188 253.778320312 650.444335938 214.444335938 618 182 c 0
 585.555664062 149.555664062 546.221679688 133.333007812 500 133.333007812 c 0
 453.778320312 133.333007812 414.444335938 149.555664062 382 182 c 0
 349.555664062 214.444335938 333.333007812 253.778320312 333.333007812 300 c 0
 333.333007812 346.221679688 349.555664062 385.555664062 382 418 c 0
 414.444335938 450.444335938 453.778320312 466.666992188 500 466.666992188 c 0
 546.221679688 466.666992188 585.555664062 450.444335938 618 418 c 0
 650.444335938 385.555664062 666.666992188 346.221679688 666.666992188 300 c 0
EndSplineSet
Validated: 1
EndChar

StartChar: uF0000
Encoding: 983040 983040 10
Width: 1000
Flags: H
LayerCount: 2
Fore
SplineSet
500 533.33203125 m 0
 628.848632812 533.33203125 733.33203125 428.866210938 733.33203125 300 c 0
 733.33203125 171.12109375 628.850585938 66.66796875 500 66.66796875 c 0
 371.11328125 66.66796875 266.66796875 171.125976562 266.66796875 300 c 0
 266.66796875 428.87890625 371.125976562 533.33203125 500 533.33203125 c 0
500 133.333984375 m 0
 591.896484375 133.333984375 666.666015625 208.103515625 666.666015625 300 c 0
 666.666015625 391.896484375 591.896484375 466.666015625 500 466.666015625 c 0
 408.103515625 466.666015625 333.333984375 391.896484375 333.333984375 300 c 0
 333.333984375 208.103515625 408.103515625 133.333984375 500 133.333984375 c 0
500 599.999023438 m 0
 481.591796875 599.999023438 466.665039062 614.926757812 466.665039062 633.333984375 c 2
 466.665039062 766.665039062 l 2
 466.665039062 785.080078125 481.592773438 800 500 800 c 0
 518.416015625 800 533.334960938 785.072265625 533.334960938 766.665039062 c 2
 533.334960938 633.333984375 l 2
 533.334960938 614.91796875 518.407226562 599.999023438 500 599.999023438 c 0
741.666015625 508.33203125 m 0
 733.1328125 508.33203125 724.614257812 511.587890625 718.104492188 518.090820312 c 0
 705.083984375 531.112304688 705.083984375 552.215820312 718.104492188 565.237304688 c 2
 806.405273438 653.538085938 l 2
 819.427734375 666.551757812 840.515625 666.559570312 853.536132812 653.538085938 c 0
 866.556640625 640.516601562 866.556640625 619.412109375 853.536132812 606.391601562 c 2
 765.235351562 518.090820312 l 2
 758.724609375 511.587890625 750.19921875 508.33203125 741.666015625 508.33203125 c 0
966.665039062 333.333007812 m 2
 985.080078125 333.333007812 1000 318.405273438 1000 299.998046875 c 0
 1000 281.58203125 985.072265625 266.663085938 966.665039062 266.663085938 c 2
 833.333984375 266.663085938 l 2
 814.91796875 266.663085938 799.999023438 281.590820312 799.999023438 299.998046875 c 0
 799.999023438 318.4140625 814.926757812 333.333007812 833.333984375 333.333007812 c 2
 966.665039062 333.333007812 l 2
765.237304688 81.8857421875 m 2
 853.545898438 -6.4150390625 l 2
 866.567382812 -19.4208984375 866.567382812 -40.533203125 853.545898438 -53.5458984375 c 0
 847.036132812 -60.056640625 838.502929688 -63.3115234375 829.9765625 -63.3115234375 c 0
 821.451171875 -63.3115234375 812.91796875 -60.056640625 806.407226562 -53.5458984375 c 2
 718.106445312 34.7548828125 l 2
 705.0859375 47.7607421875 705.0859375 68.873046875 718.106445312 81.8857421875 c 0
 731.127929688 94.90625 752.215820312 94.90625 765.237304688 81.8857421875 c 2
500 0.0009765625 m 0
 518.408203125 0.0009765625 533.334960938 -14.9267578125 533.334960938 -33.333984375 c 2
 533.334960938 -166.665039062 l 2
 533.334960938 -185.080078125 518.407226562 -200 500 -200 c 0
 481.583984375 -200 466.665039062 -185.072265625 466.665039062 -166.665039062 c 2
 466.665039062 -33.333984375 l 2
 466.665039062 -14.91796875 481.592773438 0.0009765625 500 0.0009765625 c 0
234.762695312 81.8857421875 m 2
 247.776367188 94.9140625 268.888671875 94.9140625 281.909179688 81.8857421875 c 0
 294.930664062 68.8642578125 294.930664062 47.767578125 281.909179688 34.7548828125 c 2
 193.600585938 -53.5458984375 l 2
 187.09765625 -60.056640625 178.564453125 -63.3115234375 170.03125 -63.3115234375 c 0
 161.497070312 -63.3115234375 152.963867188 -60.056640625 146.454101562 -53.5458984375 c 0
 133.432617188 -40.5244140625 133.432617188 -19.4287109375 146.454101562 -6.4150390625 c 2
 234.762695312 81.8857421875 l 2
200.000976562 300 m 0
 200.000976562 281.591796875 185.073242188 266.665039062 166.666015625 266.665039062 c 2
 33.3349609375 266.665039062 l 2
 14.919921875 266.665039062 0 281.592773438 0 300 c 0
 0 318.416015625 14.927734375 333.334960938 33.3349609375 333.334960938 c 2
 166.666015625 333.334960938 l 2
 185.08203125 333.334960938 200.000976562 318.407226562 200.000976562 300 c 0
234.762695312 518.114257812 m 2
 146.454101562 606.422851562 l 2
 133.440429688 619.4453125 133.440429688 640.556640625 146.454101562 653.5703125 c 0
 159.475585938 666.583007812 180.580078125 666.583007812 193.600585938 653.5703125 c 2
 281.909179688 565.268554688 l 2
 294.922851562 552.247070312 294.922851562 531.134765625 281.909179688 518.122070312 c 0
 275.3984375 511.611328125 266.857421875 508.356445312 258.33203125 508.356445312 c 0
 249.806640625 508.356445312 241.2734375 511.611328125 234.762695312 518.114257812 c 2
EndSplineSet
Validated: 33
EndChar

StartChar: uF0001
Encoding: 983041 983041 11
Width: 1000
Flags: H
LayerCount: 2
Fore
SplineSet
800.3203125 24.1201171875 m 1
 800.313476562 24.138671875 l 1
 816.66796875 26.47265625 832.586914062 17.9599609375 839.973632812 3.2216796875 c 0
 847.333984375 -11.53515625 844.462890625 -29.357421875 832.846679688 -41.0634765625 c 0
 740.676757812 -133.890625 617.918945312 -184.989257812 487.17578125 -184.989257812 c 0
 218.553710938 -184.989257812 0 33.5537109375 0 302.1875 c 0
 0 544.126953125 180.5390625 751.544921875 419.9375 784.624023438 c 0
 436.267578125 786.88671875 452.248046875 778.471679688 459.616210938 763.715820312 c 0
 466.985351562 748.958984375 464.124023438 731.13671875 452.498046875 719.430664062 c 0
 375.651367188 642.04296875 333.334960938 539.387695312 333.334960938 430.375976562 c 0
 333.334960938 204.157226562 517.372070312 20.1220703125 743.587890625 20.1220703125 c 0
 761.973632812 20.1220703125 781.057617188 21.455078125 800.3203125 24.1201171875 c 1
487.181640625 -108.08203125 m 1
 487.188476562 -108.0703125 l 1
 559.928710938 -108.0703125 629.73828125 -89.28125 691.120117188 -53.984375 c 1
 447.077148438 -27.748046875 256.416992188 179.485351562 256.416992188 430.375976562 c 0
 256.416992188 519.051757812 279.997070312 604.198242188 324.202148438 678.565429688 c 1
 177.811523438 614.852539062 76.9287109375 468.168945312 76.9287109375 302.171875 c 0
 76.9287109375 75.953125 260.965820312 -108.08203125 487.181640625 -108.08203125 c 1
549.0859375 560.608398438 m 2
 542.576171875 563.86328125 538.453125 570.526367188 538.453125 577.805664062 c 0
 538.453125 585.09375 542.576171875 591.747070312 549.077148438 595.01171875 c 2
 620.271484375 630.5859375 l 1
 655.864257812 701.780273438 l 2
 659.119140625 708.30859375 665.791015625 712.421875 673.0703125 712.421875 c 0
 680.349609375 712.421875 687.021484375 708.30859375 690.276367188 701.780273438 c 2
 725.869140625 630.5859375 l 1
 797.063476562 595.01171875 l 2
 803.57421875 591.73828125 807.6875 585.084960938 807.6875 577.805664062 c 0
 807.6875 570.526367188 803.57421875 563.86328125 797.063476562 560.608398438 c 2
 725.869140625 525.006835938 l 1
 690.276367188 453.8125 l 2
 687.021484375 447.301757812 680.349609375 443.197265625 673.0703125 443.197265625 c 0
 665.791015625 443.197265625 659.120117188 447.29296875 655.873046875 453.8125 c 2
 620.280273438 525.006835938 l 1
 549.0859375 560.608398438 l 2
989.375976562 325.7890625 m 2
 995.88671875 322.515625 1000 315.862304688 1000 308.583007812 c 0
 1000 301.303710938 995.88671875 294.631835938 989.375976562 291.376953125 c 2
 918.181640625 255.775390625 l 1
 882.588867188 184.580078125 l 2
 879.333984375 178.0703125 872.662109375 173.965820312 865.3828125 173.965820312 c 0
 858.103515625 173.965820312 851.432617188 178.0703125 848.176757812 184.580078125 c 2
 812.583984375 255.775390625 l 1
 741.389648438 291.376953125 l 2
 734.879882812 294.631835938 730.765625 301.303710938 730.765625 308.583007812 c 0
 730.765625 315.862304688 734.888671875 322.515625 741.389648438 325.7890625 c 2
 812.583984375 361.36328125 l 1
 848.176757812 432.557617188 l 2
 851.431640625 439.0859375 858.103515625 443.19921875 865.3828125 443.19921875 c 0
 872.662109375 443.19921875 879.333984375 439.077148438 882.588867188 432.557617188 c 2
 918.181640625 361.36328125 l 1
 989.375976562 325.7890625 l 2
EndSplineSet
Validated: 33
EndChar

StartChar: uF0002
Encoding: 983042 983042 12
Width: 1000
Flags: H
LayerCount: 2
Fore
SplineSet
572.182617188 413.198242188 m 1
 572.182617188 413.198242188 l 1
 550.577148438 422.528320312 527.97265625 429.358398438 504.879882812 433.862304688 c 1
 532.327148438 482.985351562 584.774414062 516.247070312 645.05859375 516.247070312 c 0
 733.725585938 516.247070312 805.625976562 444.353515625 805.625976562 355.680664062 c 0
 805.625976562 339.212890625 803.126953125 323.336914062 798.528320312 308.387695312 c 1
 780.333007812 324.901367188 759.881835938 338.743164062 737.716796875 349.502929688 c 0
 737.842773438 351.5546875 738.0234375 353.59765625 738.0234375 355.680664062 c 0
 738.0234375 406.932617188 696.321289062 448.637695312 645.06640625 448.637695312 c 0
 615.529296875 448.637695312 589.23046875 434.7421875 572.182617188 413.198242188 c 1
840.173828125 181.767578125 m 1
 840.17578125 181.775390625 l 1
 929.989257812 169.90625 999.555664062 91.8134765625 999.563476562 -2.44140625 c 0
 999.563476562 -104.546875 915.661132812 -190.799804688 816.360351562 -190.799804688 c 2
 183.1953125 -190.799804688 l 2
 83.90234375 -190.799804688 -0 -104.561523438 -0 -2.4638671875 c 0
 -0 90.9091796875 70.1640625 171.047851562 158.106445312 184.046875 c 1
 190.299804688 312.497070312 308.125976562 406.302734375 442.857421875 406.302734375 c 0
 509.524414062 406.302734375 574.116210938 383.48828125 626.147460938 341.783203125 c 1
 725.373046875 340.958007812 811.563476562 275.259765625 840.173828125 181.767578125 c 1
816.358398438 -123.205078125 m 1
 816.350585938 -123.204101562 l 1
 879.006835938 -123.204101562 931.943359375 -67.91015625 931.943359375 -2.4462890625 c 0
 931.943359375 61.626953125 879.008789062 114.01953125 816.350585938 114.01953125 c 0
 812.978515625 114.01953125 809.991210938 113.421875 807.4375 113.421875 c 2
 785.012695312 113.421875 l 1
 779.833007812 142.73828125 l 2
 765.8046875 217.916015625 700.379882812 273.327148438 624.274414062 273.327148438 c 2
 616.99609375 273.869140625 l 1
 601.920898438 273.295898438 l 1
 591.545898438 282.491210938 l 2
 550.265625 318.669921875 497.46484375 338.649414062 442.87109375 338.649414062 c 0
 332.018554688 338.649414062 236.01953125 256.217773438 219.568359375 146.864257812 c 2
 215.182617188 117.767578125 l 1
 185.748046875 118.09765625 l 2
 184.584960938 118.10546875 183.4375 118.18359375 182.2890625 118.286132812 c 0
 120.025390625 117.758789062 67.6083984375 62.669921875 67.6083984375 -2.4716796875 c 0
 67.6083984375 -67.9130859375 120.534179688 -123.205078125 183.193359375 -123.205078125 c 2
 816.358398438 -123.205078125 l 1
628.159179688 552.858398438 m 0
 609.484375 552.858398438 594.354492188 567.99609375 594.354492188 586.663085938 c 2
 594.354492188 676.806640625 l 2
 594.354492188 695.482421875 609.4921875 710.612304688 628.159179688 710.612304688 c 0
 646.833984375 710.612304688 661.96484375 695.473632812 661.96484375 676.806640625 c 2
 661.96484375 586.663085938 l 2
 661.96484375 567.98828125 646.826171875 552.858398438 628.159179688 552.858398438 c 0
811.380859375 488.168945312 m 0
 802.7265625 488.168945312 794.081054688 491.470703125 787.478515625 498.072265625 c 0
 774.274414062 511.27734375 774.274414062 532.6796875 787.470703125 545.883789062 c 2
 848.225585938 606.663085938 l 2
 861.431640625 619.859375 882.833007812 619.868164062 896.037109375 606.663085938 c 0
 909.2421875 593.458007812 909.2421875 572.055664062 896.044921875 558.8515625 c 2
 835.290039062 498.072265625 l 2
 828.6875 491.469726562 820.034179688 488.168945312 811.380859375 488.168945312 c 0
842.24609375 338.771484375 m 0
 842.24609375 357.438476562 857.375976562 372.576171875 876.05078125 372.576171875 c 2
 966.194335938 372.576171875 l 2
 984.870117188 372.576171875 1000 357.438476562 1000 338.771484375 c 0
 1000 320.095703125 984.861328125 304.965820312 966.194335938 304.965820312 c 2
 876.05078125 304.965820312 l 2
 857.375976562 304.965820312 842.24609375 320.104492188 842.24609375 338.771484375 c 0
454.857421875 498.068359375 m 2
 394.078125 558.85546875 l 2
 380.881835938 572.061523438 380.881835938 593.470703125 394.078125 606.666992188 c 0
 407.284179688 619.86328125 428.693359375 619.86328125 441.889648438 606.666992188 c 2
 502.668945312 545.887695312 l 2
 515.865234375 532.682617188 515.865234375 511.2734375 502.668945312 498.076171875 c 0
 496.06640625 491.474609375 487.405273438 488.172851562 478.759765625 488.172851562 c 0
 470.11328125 488.172851562 461.452148438 491.474609375 454.857421875 498.068359375 c 2
EndSplineSet
EndChar

StartChar: uF0003
Encoding: 983043 983043 13
Width: 1000
Flags: H
LayerCount: 2
Fore
SplineSet
840.55078125 181.939453125 m 1
 840.555664062 181.9453125 l 1
 930.41015625 170.086914062 1000.00878906 91.94140625 1000 -2.35546875 c 0
 1000 -104.4921875 916.065429688 -190.799804688 816.705078125 -190.799804688 c 2
 183.270507812 -190.799804688 l 2
 83.9248046875 -190.799804688 -0 -104.514648438 -0 -2.3779296875 c 0
 -0 91.0458984375 70.1953125 171.204101562 158.169921875 184.2265625 c 1
 190.37890625 312.754882812 308.258789062 406.603515625 443.051757812 406.603515625 c 0
 456.875 406.603515625 470.573242188 405.391601562 484.12109375 403.465820312 c 1
 471.508789062 424.838867188 461.530273438 448.114257812 455.10546875 473.096679688 c 0
 421.899414062 602.250976562 489.80859375 737.750976562 613.073242188 788.2734375 c 0
 626.481445312 793.77734375 641.932617188 790.08984375 651.438476562 779.14453125 c 0
 660.9453125 768.181640625 662.408203125 752.376953125 655.072265625 739.866210938 c 0
 628.0625 693.810546875 620.505859375 639.970703125 633.810546875 588.276367188 c 0
 656.65234375 499.403320312 736.590820312 437.346679688 828.19140625 437.346679688 c 0
 845.01953125 437.346679688 861.893554688 439.485351562 878.375 443.723632812 c 0
 887.064453125 445.97265625 895.95703125 448.9375 904.788085938 452.5546875 c 0
 918.196289062 458.03515625 933.647460938 454.379882812 943.154296875 443.43359375 c 0
 952.661132812 432.486328125 954.123046875 416.681640625 946.787109375 404.170898438 c 0
 910.35546875 341.97265625 851.836914062 297.8359375 782.05859375 279.891601562 c 0
 781.411132812 279.7265625 780.767578125 279.6328125 780.114257812 279.4765625 c 1
 807.720703125 253.141601562 828.936523438 219.89453125 840.55078125 181.939453125 c 1
561.487304688 669.088867188 m 1
 561.490234375 669.092773438 l 1
 521.064453125 620.71875 504.063476562 554.2890625 520.616210938 489.934570312 c 0
 543.467773438 401.078125 623.3984375 339.021484375 714.982421875 339.021484375 c 0
 731.817382812 339.021484375 748.715820312 341.17578125 765.213867188 345.4140625 c 0
 785.626953125 350.666992188 804.758789062 358.922851562 822.10546875 369.797851562 c 1
 702.185546875 372.483398438 598.326171875 454.640625 568.3046875 571.44140625 c 0
 559.977539062 603.814453125 557.767578125 636.826171875 561.487304688 669.088867188 c 1
816.696289062 -123.172851562 m 1
 816.693359375 -123.181640625 l 1
 879.388671875 -123.181640625 932.35546875 -67.845703125 932.36328125 -2.3681640625 c 0
 932.36328125 61.734375 879.388671875 114.151367188 816.701171875 114.151367188 c 0
 813.328125 114.151367188 810.340820312 113.553710938 807.784179688 113.553710938 c 2
 785.349609375 113.553710938 l 1
 780.19921875 142.891601562 l 2
 766.1484375 218.104492188 700.693359375 273.540039062 624.552734375 273.540039062 c 1
 617.279296875 274.08984375 l 1
 602.197265625 273.493164062 l 1
 591.801757812 282.693359375 l 2
 550.502929688 318.895507812 497.677734375 338.884765625 443.05859375 338.884765625 c 0
 332.155273438 338.884765625 236.112304688 256.399414062 219.654296875 147.020507812 c 2
 215.266601562 117.91015625 l 1
 185.818359375 118.241210938 l 2
 184.654296875 118.241210938 183.506835938 118.334960938 182.358398438 118.428710938 c 0
 120.065429688 117.90234375 67.625 62.787109375 67.625 -2.3837890625 c 0
 67.625 -67.8388671875 120.575195312 -123.172851562 183.26171875 -123.172851562 c 2
 816.696289062 -123.172851562 l 1
EndSplineSet
EndChar

StartChar: uF0004
Encoding: 983044 983044 14
Width: 1000
Flags: H
LayerCount: 2
Fore
SplineSet
674.885742188 375.921875 m 1
 674.876953125 375.919921875 l 1
 632.241210938 375.919921875 594.829101562 415.704101562 594.836914062 461.046875 c 0
 594.836914062 500.008789062 622.596679688 533.692382812 658.395507812 541.786132812 c 1
 671.51953125 578.53125 705.568359375 604.298828125 744.979492188 606.03515625 c 1
 766.4140625 622.431640625 792.546875 631.377929688 819.438476562 631.377929688 c 0
 873.811523438 631.377929688 921.619140625 594.841796875 936.999023438 544.012695312 c 1
 972.0859375 535.197265625 1000 500.1953125 1000 461.041015625 c 0
 1000 415.698242188 962.587890625 375.921875 919.935546875 375.921875 c 2
 674.885742188 375.921875 l 1
674.885742188 498.064453125 m 1
 674.895507812 498.064453125 l 1
 655.94140625 498.064453125 639.296875 480.806640625 639.3125 460.481445312 c 0
 639.3125 439.581054688 656.600585938 420.36328125 674.895507812 420.36328125 c 2
 919.946289062 420.340820312 l 2
 938.232421875 420.340820312 955.55078125 440.100585938 955.55078125 461.0078125 c 0
 955.55078125 481.575195312 938.768554688 501.047851562 920.775390625 501.63671875 c 0
 920.442382812 501.61328125 920.108398438 501.590820312 919.775390625 501.583007812 c 2
 899.813476562 500.73046875 l 1
 896.8359375 520.482421875 l 2
 891.123046875 558.359375 857.841796875 586.911132812 819.431640625 586.911132812 c 0
 800.5859375 586.911132812 782.290039062 579.96484375 767.88671875 567.360351562 c 2
 761.142578125 561.4453125 l 1
 752.94921875 561.84765625 l 2
 751.506835938 561.731445312 750.375 561.662109375 749.227539062 561.662109375 c 0
 724.205078125 561.662109375 702.676757812 542.4296875 698.041015625 517.444335938 c 2
 694.661132812 498.165039062 l 1
 682.094726562 498.165039062 l 2
 679.094726562 498.165039062 676.466796875 498.064453125 674.885742188 498.064453125 c 1
828.666992188 176.674804688 m 1
 828.665039062 176.680664062 l 1
 917.249023438 164.973632812 985.862304688 87.9501953125 985.854492188 -5.021484375 c 0
 985.854492188 -105.728515625 903.107421875 -190.799804688 805.15234375 -190.799804688 c 2
 180.677734375 -190.799804688 l 2
 82.7373046875 -190.799804688 -0 -105.737304688 -0 -5.037109375 c 0
 -0 87.056640625 69.203125 166.088867188 155.940429688 178.911132812 c 1
 187.693359375 305.622070312 303.921875 398.142578125 436.79296875 398.142578125 c 0
 502.5625 398.142578125 566.23828125 375.638671875 617.572265625 334.499023438 c 1
 715.455078125 333.685546875 800.44921875 268.885742188 828.666992188 176.674804688 c 1
805.162109375 -124.12109375 m 1
 805.166015625 -124.119140625 l 1
 866.966796875 -124.119140625 919.192382812 -69.583984375 919.223632812 -5.0009765625 c 0
 919.223632812 58.1943359375 866.999023438 109.870117188 805.198242188 109.870117188 c 0
 801.872070312 109.870117188 798.926757812 109.280273438 796.407226562 109.280273438 c 2
 774.2890625 109.280273438 l 1
 769.188476562 138.1953125 l 2
 755.336914062 212.34375 690.807617188 266.99609375 615.744140625 266.99609375 c 2
 608.573242188 267.530273438 l 1
 593.705078125 266.94921875 l 1
 583.45703125 276.018554688 l 2
 542.7421875 311.701171875 490.671875 331.407226562 436.817382812 331.407226562 c 0
 327.483398438 331.407226562 232.798828125 250.096679688 216.573242188 142.249023438 c 2
 212.248046875 113.55078125 l 1
 183.215820312 113.876953125 l 2
 182.068359375 113.884765625 180.936523438 113.961914062 179.8046875 114.0625 c 0
 118.393554688 113.54296875 66.6943359375 59.2080078125 66.6943359375 -5.041015625 c 0
 66.6943359375 -69.5869140625 118.887695312 -124.12109375 180.688476562 -124.12109375 c 2
 805.162109375 -124.12109375 l 1
EndSplineSet
EndChar

StartChar: uF0005
Encoding: 983045 983045 15
Width: 1000
Flags: HW
LayerCount: 2
Fore
SplineSet
840.2890625 177.604492188 m 1
 840.301757812 177.62109375 l 1
 930.25390625 166.02734375 1000 88.4482421875 1000 -5.232421875 c 0
 1000 -107.556640625 917.865234375 -190.799804688 816.905273438 -190.799804688 c 2
 183.094726562 -190.799804688 l 2
 82.134765625 -190.799804688 -0.0078125 -107.556640625 0 -5.216796875 c 0
 0 88.5654296875 68.9951171875 166.30859375 158.24609375 178.643554688 c 1
 190.380859375 307.182617188 308.26953125 401.05078125 443.026367188 401.05078125 c 0
 484.045898438 401.05078125 524.208007812 392.359375 561.196289062 376.0625 c 1
 571.393554688 422.317382812 612.553710938 457.002929688 661.8984375 457.002929688 c 0
 663.778320312 457.002929688 665.658203125 456.940429688 667.4921875 456.846679688 c 0
 692.07421875 478.370117188 724.232421875 491.4296875 759.41796875 491.4296875 c 0
 829.397460938 491.4296875 889.219726562 435.513671875 899.331054688 368.3984375 c 1
 899.112304688 368.3984375 l 1
 899.331054688 368.3984375 l 2
 943.674804688 368.3984375 979.321289062 336.701171875 979.329101562 292.325195312 c 0
 979.329101562 247.958984375 943.37109375 211.814453125 899.02734375 211.814453125 c 2
 826.54296875 211.814453125 l 1
 831.96484375 200.891601562 836.623046875 189.478515625 840.2890625 177.604492188 c 1
816.892578125 -123.712890625 m 1
 816.893554688 -123.715820312 l 1
 879.767578125 -123.715820312 932.879882812 -69.4482421875 932.848632812 -5.2646484375 c 0
 932.848632812 59.37890625 880.8359375 111.9765625 816.84765625 111.9765625 c 0
 814.9375 111.9765625 813.244140625 112.1015625 811.84765625 112.2890625 c 2
 785.875976562 111.283203125 l 1
 780.5390625 138.900390625 l 2
 766.53515625 214.077148438 700.962890625 267.719726562 624.59375 267.719726562 c 2
 620.311523438 267.719726562 l 2
 618.828125 267.719726562 617.33203125 268.625976562 615.840820312 268.563476562 c 2
 602.250976562 268.344726562 l 1
 592.030273438 277.52734375 l 2
 550.73046875 313.734375 497.796875 333.784179688 443.013671875 333.784179688 c 0
 331.912109375 333.784179688 235.688476562 251.1796875 219.188476562 141.538085938 c 2
 214.795898438 112.369140625 l 1
 185.267578125 113.0625 l 2
 184.276367188 113.0625 183.291992188 113.15625 182.317382812 113.21875 c 0
 119.78125 112.805664062 67.0888671875 58.716796875 67.0888671875 -5.2470703125 c 0
 67.0888671875 -69.4453125 120.202148438 -123.712890625 183.08203125 -123.712890625 c 2
 816.892578125 -123.712890625 l 1
EndSplineSet
EndChar

StartChar: uF0006
Encoding: 983046 983046 16
Width: 1000
Flags: HW
LayerCount: 2
Fore
SplineSet
840.2890625 450.331054688 m 1
 840.301757812 450.33984375 l 1
 930.26171875 438.737304688 1000.0078125 361.166992188 1000 267.486328125 c 0
 1000 165.162109375 917.857421875 81.9189453125 816.905273438 81.9189453125 c 2
 183.094726562 81.9189453125 l 2
 82.134765625 81.9189453125 -0 165.162109375 -0 267.494140625 c 0
 -0 361.284179688 68.9970703125 439.02734375 158.25390625 451.353515625 c 1
 190.388671875 579.893554688 308.27734375 673.76171875 443.034179688 673.76171875 c 0
 484.0703125 673.76171875 524.225585938 665.0703125 561.219726562 648.772460938 c 1
 571.41015625 695.02734375 612.578125 729.712890625 661.922851562 729.712890625 c 0
 663.802734375 729.712890625 665.682617188 729.650390625 667.516601562 729.564453125 c 0
 692.09765625 751.088867188 724.256835938 764.1484375 759.44140625 764.1484375 c 0
 829.420898438 764.1484375 889.244140625 708.232421875 899.354492188 641.1171875 c 1
 943.690429688 641.1171875 979.344726562 609.419921875 979.344726562 565.051757812 c 0
 979.344726562 520.686523438 943.38671875 484.541015625 899.02734375 484.541015625 c 2
 826.54296875 484.541015625 l 1
 831.98046875 473.618164062 836.630859375 462.205078125 840.2890625 450.331054688 c 1
816.892578125 149.013671875 m 1
 816.89453125 149.01171875 l 1
 879.774414062 149.01171875 932.887695312 203.279296875 932.856445312 267.462890625 c 0
 932.856445312 332.106445312 880.842773438 384.704101562 816.854492188 384.704101562 c 0
 814.943359375 384.704101562 813.250976562 384.829101562 811.854492188 385.016601562 c 2
 785.8828125 384.009765625 l 1
 780.545898438 411.626953125 l 2
 766.541992188 486.803710938 700.969726562 540.446289062 624.6015625 540.446289062 c 2
 620.318359375 540.446289062 l 2
 618.84375 540.446289062 617.345703125 541.3671875 615.84765625 541.2890625 c 2
 602.2578125 541.0546875 l 1
 592.037109375 550.237304688 l 2
 550.737304688 586.444335938 497.803710938 606.494140625 443.020507812 606.494140625 c 0
 331.918945312 606.494140625 235.6953125 523.890625 219.1953125 414.248046875 c 2
 214.802734375 385.079101562 l 1
 185.274414062 385.7734375 l 2
 184.283203125 385.796875 183.30078125 385.8671875 182.325195312 385.9453125 c 0
 119.7890625 385.532226562 67.0966796875 331.444335938 67.0966796875 267.479492188 c 0
 67.0966796875 203.282226562 120.209960938 149.013671875 183.08203125 149.013671875 c 2
 816.892578125 149.013671875 l 1
503.282226562 -18.75 m 1
 503.282226562 -18.75 559.204101562 -60.0048828125 559.204101562 -108.2265625 c 0
 559.204101562 -137.366210938 532.421875 -164.1484375 503.282226562 -164.1484375 c 0
 474.143554688 -164.1484375 447.361328125 -137.366210938 447.361328125 -108.2265625 c 0
 447.361328125 -60.0126953125 503.282226562 -18.75 503.282226562 -18.75 c 1
726.96875 48.35546875 m 1
 726.96875 48.35546875 782.889648438 7.0927734375 782.889648438 -41.12109375 c 0
 782.889648438 -70.259765625 756.107421875 -97.04296875 726.96875 -97.04296875 c 0
 697.829101562 -97.04296875 671.046875 -70.259765625 671.046875 -41.12109375 c 0
 671.046875 7.0927734375 726.96875 48.35546875 726.96875 48.35546875 c 1
279.596679688 48.35546875 m 1
 279.596679688 48.35546875 335.518554688 7.0927734375 335.518554688 -41.12109375 c 0
 335.518554688 -70.259765625 308.735351562 -97.04296875 279.596679688 -97.04296875 c 0
 250.458007812 -97.04296875 223.674804688 -70.259765625 223.674804688 -41.12109375 c 0
 223.674804688 7.0927734375 279.596679688 48.35546875 279.596679688 48.35546875 c 1
EndSplineSet
EndChar

StartChar: uF0007
Encoding: 983047 983047 17
Width: 1000
Flags: HW
LayerCount: 2
Fore
SplineSet
495.418945312 16.1953125 m 1
 495.418945312 16.1953125 550.974609375 -24.7890625 550.974609375 -72.6962890625 c 0
 550.974609375 -101.64453125 524.3671875 -128.251953125 495.418945312 -128.251953125 c 0
 466.469726562 -128.251953125 439.86328125 -101.64453125 439.86328125 -72.6962890625 c 0
 439.86328125 -24.796875 495.418945312 16.1953125 495.418945312 16.1953125 c 1
717.641601562 -50.4716796875 m 1
 717.641601562 -50.4716796875 773.197265625 -91.4638671875 773.197265625 -139.36328125 c 0
 773.197265625 -168.311523438 746.58984375 -194.918945312 717.641601562 -194.918945312 c 0
 688.693359375 -194.918945312 662.0859375 -168.311523438 662.0859375 -139.36328125 c 0
 662.0859375 -91.4638671875 717.641601562 -50.4716796875 717.641601562 -50.4716796875 c 1
273.1953125 -50.4716796875 m 1
 273.1953125 -50.4716796875 328.750976562 -91.4638671875 328.750976562 -139.36328125 c 0
 328.750976562 -168.311523438 302.14453125 -194.918945312 273.1953125 -194.918945312 c 0
 244.247070312 -194.918945312 217.639648438 -168.311523438 217.639648438 -139.36328125 c 0
 217.639648438 -91.4638671875 273.1953125 -50.4716796875 273.1953125 -50.4716796875 c 1
840.083007812 414.530273438 m 1
 840.090820312 414.538085938 l 1
 930.13671875 403.161132812 1000 326.01953125 1000 232.858398438 c 0
 1000 131.775390625 917.921875 49.54296875 817.048828125 49.54296875 c 2
 182.958984375 49.54296875 l 2
 82.078125 49.54296875 -0 131.76953125 -0 232.842773438 c 0
 -0 325.547851562 69.0283203125 402.39453125 158.274414062 414.508789062 c 1
 190.357421875 543.095703125 308.239257812 637.008789062 442.998046875 637.008789062 c 0
 509.634765625 637.008789062 574.10546875 614.314453125 625.994140625 572.850585938 c 1
 725.080078125 572.28515625 811.181640625 507.272460938 840.083007812 414.530273438 c 1
817.033203125 116.1953125 m 1
 817.032226562 116.1953125 l 1
 881.159179688 116.1953125 933.3203125 168.518554688 933.3203125 232.840820312 c 0
 933.3203125 297.053710938 881.157226562 349.291992188 817.045898438 349.307617188 c 2
 786.14453125 348.6875 l 1
 780.967773438 376.45703125 l 2
 766.954101562 451.629882812 701.229492188 506.194335938 624.685546875 506.194335938 c 0
 621.771484375 506.194335938 618.887695312 506.124023438 615.997070312 505.96875 c 2
 602.44921875 505.248046875 l 1
 592.256835938 514.184570312 l 2
 550.908203125 550.395507812 497.909179688 570.337890625 442.997070312 570.337890625 c 0
 331.73046875 570.337890625 235.353515625 487.532226562 218.829101562 377.706054688 c 2
 214.426757812 348.525390625 l 1
 184.936523438 349.346679688 l 2
 184.014648438 349.370117188 183.099609375 349.424804688 182.177734375 349.494140625 c 0
 118.82421875 349.478515625 66.6552734375 297.146484375 66.6552734375 232.825195312 c 0
 66.6552734375 168.51953125 118.81640625 116.1953125 182.943359375 116.1953125 c 2
 817.033203125 116.1953125 l 1
675.657226562 601.137695312 m 1
 675.65625 601.137695312 l 1
 690.506835938 637.549804688 726.229492188 663.234375 768.01953125 663.234375 c 0
 823.094726562 663.234375 867.76171875 618.583984375 867.76171875 563.4921875 c 0
 867.76171875 536.032226562 856.6484375 511.16015625 838.682617188 493.1171875 c 1
 830.467773438 505.123046875 821.190429688 516.283203125 811.168945312 526.692382812 c 1
 819.678710938 536.64453125 825.002929688 549.401367188 825.002929688 563.4921875 c 0
 825.002929688 594.913085938 799.43359375 620.490234375 768.012695312 620.490234375 c 0
 745.754882812 620.490234375 726.665039062 607.563476562 717.278320312 588.938476562 c 1
 703.853515625 594.084960938 689.98828125 598.270507812 675.657226562 601.137695312 c 1
803.197265625 692.138671875 m 1
 803.19921875 692.138671875 l 1
 788.379882812 696.120117188 779.590820312 711.3515625 783.567382812 726.169921875 c 2
 796.487304688 774.338867188 l 2
 800.469726562 789.150390625 815.75390625 797.923828125 830.510742188 793.970703125 c 0
 845.330078125 789.995117188 854.119140625 774.766601562 850.135742188 759.939453125 c 2
 837.21484375 711.770507812 l 2
 833.881835938 699.362304688 822.674804688 691.185546875 810.405273438 691.185546875 c 0
 808.034179688 691.185546875 805.608398438 691.495117188 803.197265625 692.138671875 c 1
898.237304688 619.709960938 m 1
 898.23828125 619.709960938 l 1
 888.634765625 619.709960938 879.303710938 624.701171875 874.157226562 633.598632812 c 0
 866.491210938 646.881835938 871.033203125 663.872070312 884.325195312 671.552734375 c 2
 930.549804688 698.25390625 l 2
 943.811523438 705.895507812 960.815429688 701.376953125 968.49609375 688.084960938 c 0
 976.162109375 674.80078125 971.620117188 657.811523438 958.328125 650.129882812 c 2
 912.103515625 623.4296875 l 2
 907.724609375 620.911132812 902.958007812 619.709960938 898.237304688 619.709960938 c 1
923.376953125 562.546875 m 2
 971.5390625 549.650390625 l 2
 986.358398438 545.66796875 995.163085938 530.4375 991.194335938 515.625976562 c 0
 987.876953125 503.216796875 976.654296875 495.025390625 964.384765625 495.025390625 c 0
 962.005859375 495.025390625 959.594726562 495.327148438 957.184570312 495.970703125 c 2
 909.0078125 508.8671875 l 2
 894.189453125 512.849609375 885.384765625 528.080078125 889.352539062 542.891601562 c 0
 893.334960938 557.725585938 908.612304688 566.4765625 923.376953125 562.546875 c 2
674.56640625 687.100585938 m 2
 647.889648438 733.333007812 l 2
 640.224609375 746.625 644.782226562 763.614257812 658.05859375 771.279296875 c 0
 671.334960938 778.9453125 688.33984375 774.395507812 696.004882812 761.103515625 c 2
 722.681640625 714.87109375 l 2
 730.34765625 701.579101562 725.790039062 684.58984375 712.513671875 676.923828125 c 0
 708.133789062 674.405273438 703.360351562 673.204101562 698.647460938 673.204101562 c 0
 689.043945312 673.204101562 679.712890625 678.1875 674.56640625 687.100585938 c 2
EndSplineSet
EndChar

StartChar: uF0008
Encoding: 983048 983048 18
Width: 1000
Flags: HW
LayerCount: 2
Fore
SplineSet
495.897460938 17.025390625 m 1
 495.897460938 17.025390625 552.25 -24.5537109375 552.25 -73.1396484375 c 0
 552.25 -102.502929688 525.245117188 -129.491210938 495.897460938 -129.491210938 c 0
 466.55078125 -129.491210938 439.545898438 -102.502929688 439.545898438 -73.1396484375 c 0
 439.545898438 -24.5537109375 495.897460938 17.025390625 495.897460938 17.025390625 c 1
840.369140625 423.50390625 m 1
 840.370117188 423.516601562 l 1
 930.205078125 411.655273438 999.788085938 333.52734375 999.780273438 239.2421875 c 0
 999.780273438 137.127929688 915.864257812 50.83984375 816.525390625 50.83984375 c 2
 183.23046875 50.83984375 l 2
 83.90625 50.83984375 0 137.104492188 0 239.225585938 c 0
 0 332.62109375 70.1806640625 412.770507812 158.127929688 425.78125 c 1
 190.329101562 554.28125 308.182617188 648.109375 442.946289062 648.109375 c 0
 509.62890625 648.109375 574.220703125 625.28125 626.279296875 583.56640625 c 1
 647.608398438 583.401367188 668.260742188 580.060546875 687.930664062 574.258789062 c 1
 685.540039062 580.46875 683.354492188 586.797851562 681.665039062 593.370117188 c 0
 660.368164062 676.170898438 703.903320312 763.025390625 782.928710938 795.431640625 c 0
 791.922851562 799.095703125 802.174804688 796.642578125 808.510742188 789.346679688 c 0
 814.85546875 782.03515625 815.822265625 771.508789062 810.932617188 763.16796875 c 0
 793.856445312 734.047851562 789.084960938 699.983398438 797.489257812 667.278320312 c 0
 811.939453125 611.059570312 862.497070312 571.806640625 920.453125 571.806640625 c 0
 931.090820312 571.806640625 941.766601562 573.159179688 952.19140625 575.83984375 c 0
 957.717773438 577.262695312 963.338867188 579.141601562 968.873046875 581.420898438 c 0
 977.859375 585.131835938 988.111328125 582.655273438 994.471679688 575.360351562 c 0
 1000.81542969 568.055664062 1001.79785156 557.529296875 996.908203125 549.180664062 c 0
 973.543945312 509.305664062 936.036132812 481.020507812 891.280273438 469.510742188 c 0
 877.184570312 465.88671875 862.719726562 464.046875 848.286132812 464.046875 c 0
 839.42578125 464.046875 830.73828125 464.825195312 822.193359375 466.130859375 c 1
 829.559570312 452.703125 835.786132812 438.51953125 840.369140625 423.50390625 c 1
749.119140625 715.3671875 m 1
 749.120117188 715.366210938 l 1
 725.047851562 685.004882812 715.166015625 644.171875 725.354492188 604.596679688 c 0
 739.8125 548.385742188 790.362304688 509.1328125 848.301757812 509.1328125 c 0
 858.946289062 509.1328125 869.629882812 510.5 880.0703125 513.181640625 c 0
 891.88671875 516.208007812 903.033203125 520.846679688 913.25390625 526.883789062 c 1
 837.766601562 530.021484375 772.822265625 582.25390625 753.84375 656.05078125 c 0
 748.7890625 675.705078125 747.248046875 695.720703125 749.119140625 715.3671875 c 1
816.524414062 118.458984375 m 1
 816.520507812 118.461914062 l 1
 879.202148438 118.461914062 932.157226562 173.775390625 932.188476562 239.26171875 c 0
 932.188476562 303.350585938 879.225585938 355.755859375 816.552734375 355.755859375 c 0
 813.1796875 355.755859375 810.192382812 355.158203125 807.637695312 355.158203125 c 2
 785.20703125 355.158203125 l 1
 780.034179688 384.481445312 l 2
 765.986328125 459.676757812 700.545898438 515.100585938 624.422851562 515.100585938 c 2
 617.150390625 515.651367188 l 1
 602.072265625 515.053710938 l 1
 591.678710938 524.251953125 l 2
 550.388671875 560.438476562 497.575195312 580.422851562 442.967773438 580.422851562 c 0
 332.08984375 580.422851562 236.067382812 497.956054688 219.61328125 388.600585938 c 2
 215.2265625 359.497070312 l 1
 185.784179688 359.827148438 l 2
 184.62109375 359.827148438 183.47265625 359.920898438 182.325195312 360.0078125 c 0
 120.045898438 359.48046875 67.6171875 304.377929688 67.6171875 239.221679688 c 0
 67.6171875 173.772460938 120.555664062 118.458984375 183.228515625 118.458984375 c 2
 816.524414062 118.458984375 l 1
721.305664062 -50.5966796875 m 1
 721.305664062 -50.5966796875 777.657226562 -92.16796875 777.657226562 -140.76171875 c 0
 777.657226562 -170.125 750.65234375 -197.11328125 721.305664062 -197.11328125 c 0
 691.958007812 -197.11328125 664.953125 -170.125 664.953125 -140.76171875 c 0
 664.953125 -92.1767578125 721.305664062 -50.5966796875 721.305664062 -50.5966796875 c 1
270.490234375 -50.5966796875 m 1
 270.490234375 -50.5966796875 326.841796875 -92.16796875 326.841796875 -140.76171875 c 0
 326.841796875 -170.125 299.836914062 -197.11328125 270.490234375 -197.11328125 c 0
 241.142578125 -197.11328125 214.137695312 -170.125 214.137695312 -140.76171875 c 0
 214.137695312 -92.1767578125 270.490234375 -50.5966796875 270.490234375 -50.5966796875 c 1
EndSplineSet
EndChar

StartChar: uF0009
Encoding: 983049 983049 19
Width: 1000
Flags: HW
LayerCount: 2
Fore
SplineSet
840.2890625 433.555664062 m 1
 840.301757812 433.563476562 l 1
 930.25390625 421.961914062 1000 344.391601562 1000 250.7109375 c 0
 1000 148.38671875 917.857421875 65.1435546875 816.905273438 65.1435546875 c 2
 183.094726562 65.1435546875 l 2
 82.142578125 65.1435546875 0 148.38671875 0 250.7265625 c 0
 0 344.516601562 68.9892578125 422.259765625 158.25390625 434.578125 c 1
 190.388671875 563.118164062 308.27734375 656.986328125 443.034179688 656.986328125 c 0
 484.0703125 656.986328125 524.225585938 648.294921875 561.219726562 631.997070312 c 1
 571.41015625 678.251953125 612.578125 712.9375 661.922851562 712.9375 c 0
 663.802734375 712.9375 665.682617188 712.875 667.516601562 712.7890625 c 0
 692.09765625 734.313476562 724.256835938 747.373046875 759.44140625 747.373046875 c 0
 829.420898438 747.373046875 889.244140625 691.45703125 899.354492188 624.341796875 c 1
 943.690429688 624.341796875 979.344726562 592.64453125 979.344726562 548.276367188 c 0
 979.344726562 503.911132812 943.38671875 467.765625 899.02734375 467.765625 c 2
 826.54296875 467.765625 l 1
 831.98046875 456.842773438 836.630859375 445.4296875 840.2890625 433.555664062 c 1
816.892578125 132.23828125 m 1
 816.89453125 132.236328125 l 1
 879.766601562 132.236328125 932.887695312 186.50390625 932.879882812 250.6875 c 0
 932.879882812 315.331054688 880.866210938 367.928710938 816.87890625 367.928710938 c 0
 814.966796875 367.928710938 813.274414062 368.053710938 811.877929688 368.241210938 c 2
 785.90625 367.234375 l 1
 780.5703125 394.8515625 l 2
 766.565429688 470.028320312 700.993164062 523.670898438 624.625 523.670898438 c 2
 620.341796875 523.670898438 l 2
 618.8671875 523.670898438 617.369140625 524.591796875 615.87109375 524.513671875 c 2
 602.28125 524.279296875 l 1
 592.061523438 533.461914062 l 2
 550.760742188 569.668945312 497.827148438 589.71875 443.043945312 589.71875 c 0
 331.936523438 589.71875 235.71875 507.115234375 219.21875 397.47265625 c 2
 214.810546875 368.303710938 l 1
 185.282226562 368.998046875 l 2
 184.275390625 369.021484375 183.29296875 369.091796875 182.333007812 369.169921875 c 0
 119.78125 368.756835938 67.0888671875 314.66796875 67.0888671875 250.704101562 c 0
 67.0888671875 186.506835938 120.202148438 132.23828125 183.08203125 132.23828125 c 2
 816.892578125 132.23828125 l 1
726.96875 31.580078125 m 1
 805.258789062 31.580078125 l 1
 749.336914062 -35.5302734375 l 1
 805.258789062 -35.5302734375 l 1
 693.416015625 -147.373046875 l 1
 693.416015625 -80.2626953125 l 1
 626.305664062 -80.2626953125 l 1
 726.96875 31.580078125 l 1
503.282226562 31.580078125 m 1
 581.572265625 31.580078125 l 1
 525.651367188 -35.5302734375 l 1
 581.572265625 -35.5302734375 l 1
 469.729492188 -147.373046875 l 1
 469.729492188 -80.2626953125 l 1
 402.620117188 -80.2626953125 l 1
 503.282226562 31.580078125 l 1
279.596679688 31.580078125 m 1
 357.88671875 31.580078125 l 1
 301.96484375 -35.5302734375 l 1
 357.88671875 -35.5302734375 l 1
 246.043945312 -147.373046875 l 1
 246.043945312 -80.2626953125 l 1
 178.93359375 -80.2626953125 l 1
 279.596679688 31.580078125 l 1
EndSplineSet
EndChar

StartChar: uF000A
Encoding: 983050 983050 20
Width: 1000
Flags: HW
LayerCount: 2
Fore
SplineSet
840.287109375 444.743164062 m 1
 840.299804688 444.750976562 l 1
 930.252929688 433.149414062 1000 355.577148438 1000 261.895507812 c 0
 1000 159.569335938 917.84765625 76.31640625 816.90234375 76.31640625 c 2
 183.08203125 76.31640625 l 2
 82.1435546875 76.31640625 -0.0234375 159.569335938 0 261.903320312 c 0
 0 355.6953125 68.990234375 433.439453125 158.255859375 445.765625 c 1
 190.391601562 574.307617188 308.282226562 668.176757812 443.041015625 668.176757812 c 0
 484.0625 668.176757812 524.21875 659.485351562 561.212890625 643.1875 c 1
 571.403320312 689.443359375 612.571289062 724.129882812 661.916992188 724.129882812 c 0
 663.797851562 724.129882812 665.677734375 724.067382812 667.510742188 723.981445312 c 0
 692.092773438 745.504882812 724.251953125 758.565429688 759.4375 758.565429688 c 0
 829.41796875 758.565429688 889.2421875 702.649414062 899.353515625 635.532226562 c 1
 943.689453125 635.532226562 979.344726562 603.83203125 979.344726562 559.465820312 c 0
 979.344726562 515.099609375 943.385742188 478.953125 899.025390625 478.953125 c 2
 826.540039062 478.953125 l 1
 831.977539062 468.030273438 836.627929688 456.6171875 840.287109375 444.743164062 c 1
816.889648438 143.420898438 m 1
 816.891601562 143.418945312 l 1
 879.764648438 143.418945312 932.87890625 197.6875 932.87890625 261.872070312 c 0
 932.87890625 326.516601562 880.865234375 379.123046875 816.883789062 379.115234375 c 0
 814.97265625 379.115234375 813.279296875 379.240234375 811.8828125 379.427734375 c 2
 785.911132812 378.420898438 l 1
 780.57421875 406.0390625 l 2
 766.569335938 481.216796875 700.997070312 534.860351562 624.626953125 534.860351562 c 2
 620.34375 534.860351562 l 2
 618.869140625 534.860351562 617.37109375 535.780273438 615.873046875 535.702148438 c 2
 602.283203125 535.46875 l 1
 592.0625 544.651367188 l 2
 550.76953125 580.858398438 497.827148438 600.909179688 443.043945312 600.909179688 c 0
 331.93359375 600.909179688 235.72265625 518.303710938 219.213867188 408.66015625 c 2
 214.806640625 379.490234375 l 1
 185.27734375 380.184570312 l 2
 184.270507812 380.208007812 183.288085938 380.278320312 182.328125 380.356445312 c 0
 119.766601562 379.942382812 67.07421875 325.853515625 67.07421875 261.888671875 c 0
 67.07421875 197.689453125 120.188476562 143.420898438 183.069335938 143.420898438 c 2
 816.889648438 143.420898438 l 1
328.916992188 -80.2685546875 m 1
 328.916015625 -80.2685546875 l 1
 335.086914062 -80.2685546875 340.103515625 -85.26953125 340.103515625 -91.4482421875 c 0
 340.103515625 -97.634765625 335.086914062 -102.635742188 328.916015625 -102.635742188 c 2
 299.99609375 -102.635742188 l 1
 320.451171875 -123.091796875 l 2
 324.828125 -127.459960938 324.828125 -134.528320312 320.451171875 -138.905273438 c 0
 318.267578125 -141.08984375 315.404296875 -142.181640625 312.541015625 -142.181640625 c 0
 309.677734375 -142.181640625 306.814453125 -141.08984375 304.629882812 -138.905273438 c 2
 284.182617188 -118.458007812 l 1
 284.182617188 -147.377929688 l 2
 284.182617188 -153.564453125 279.166015625 -158.565429688 272.995117188 -158.565429688 c 0
 266.815429688 -158.565429688 261.806640625 -153.564453125 261.806640625 -147.377929688 c 2
 261.806640625 -118.450195312 l 1
 241.3671875 -138.905273438 l 2
 239.182617188 -141.08984375 236.319335938 -142.181640625 233.45703125 -142.181640625 c 0
 230.59375 -142.181640625 227.73046875 -141.08984375 225.545898438 -138.905273438 c 0
 221.168945312 -134.536132812 221.168945312 -127.467773438 225.545898438 -123.091796875 c 2
 245.993164062 -102.643554688 l 1
 217.073242188 -102.643554688 l 2
 210.89453125 -102.643554688 205.885742188 -97.642578125 205.885742188 -91.4560546875 c 0
 205.885742188 -85.26953125 210.90234375 -80.2685546875 217.073242188 -80.2685546875 c 2
 245.993164062 -80.2685546875 l 1
 225.545898438 -59.8203125 l 2
 221.168945312 -55.4521484375 221.168945312 -48.3837890625 225.545898438 -44.0068359375 c 0
 229.915039062 -39.6298828125 236.983398438 -39.6298828125 241.359375 -44.0068359375 c 2
 261.807617188 -64.4541015625 l 1
 261.807617188 -35.5341796875 l 2
 261.807617188 -29.34765625 266.82421875 -24.3466796875 272.995117188 -24.3466796875 c 0
 279.173828125 -24.3466796875 284.182617188 -29.34765625 284.182617188 -35.5341796875 c 2
 284.182617188 -64.4541015625 l 1
 304.630859375 -44.0068359375 l 2
 308.999023438 -39.6298828125 316.067382812 -39.6298828125 320.444335938 -44.0068359375 c 0
 324.821289062 -48.3759765625 324.821289062 -55.4443359375 320.444335938 -59.8203125 c 2
 299.997070312 -80.2685546875 l 1
 328.916992188 -80.2685546875 l 1
552.606445312 -13.1611328125 m 1
 552.60546875 -13.1611328125 l 1
 558.791992188 -13.1611328125 563.79296875 -18.162109375 563.79296875 -24.349609375 c 0
 563.79296875 -30.5361328125 558.791992188 -35.537109375 552.60546875 -35.537109375 c 2
 523.685546875 -35.537109375 l 1
 544.141601562 -55.984375 l 2
 548.517578125 -60.353515625 548.517578125 -67.421875 544.141601562 -71.798828125 c 0
 541.95703125 -73.9833984375 539.09375 -75.0751953125 536.23046875 -75.0751953125 c 0
 533.3671875 -75.0751953125 530.50390625 -73.9833984375 528.319335938 -71.798828125 c 2
 507.872070312 -51.3505859375 l 1
 507.872070312 -80.2705078125 l 2
 507.872070312 -86.4580078125 502.85546875 -91.4580078125 496.684570312 -91.4580078125 c 0
 490.504882812 -91.4580078125 485.49609375 -86.4580078125 485.49609375 -80.2705078125 c 2
 485.49609375 -51.3505859375 l 1
 465.056640625 -71.798828125 l 2
 462.872070312 -73.9833984375 460.009765625 -75.0751953125 457.146484375 -75.0751953125 c 0
 454.283203125 -75.0751953125 451.419921875 -73.9833984375 449.235351562 -71.798828125 c 0
 444.858398438 -67.4296875 444.858398438 -60.361328125 449.235351562 -55.984375 c 2
 469.682617188 -35.537109375 l 1
 440.762695312 -35.537109375 l 2
 434.583984375 -35.537109375 429.575195312 -30.5361328125 429.575195312 -24.349609375 c 0
 429.575195312 -18.162109375 434.591796875 -13.1611328125 440.762695312 -13.1611328125 c 2
 469.682617188 -13.1611328125 l 1
 449.235351562 7.2861328125 l 2
 444.858398438 11.6552734375 444.858398438 18.7236328125 449.235351562 23.1005859375 c 0
 453.604492188 27.4765625 460.672851562 27.4765625 465.048828125 23.1005859375 c 2
 485.497070312 2.65234375 l 1
 485.497070312 31.572265625 l 2
 485.497070312 37.7587890625 490.513671875 42.759765625 496.684570312 42.759765625 c 0
 502.86328125 42.759765625 507.872070312 37.7587890625 507.872070312 31.572265625 c 2
 507.872070312 2.65234375 l 1
 528.3203125 23.1005859375 l 2
 532.688476562 27.4765625 539.756835938 27.4765625 544.133789062 23.1005859375 c 0
 548.510742188 18.7314453125 548.510742188 11.6630859375 544.133789062 7.2861328125 c 2
 523.686523438 -13.1611328125 l 1
 552.606445312 -13.1611328125 l 1
776.295898438 -80.2685546875 m 1
 776.294921875 -80.2685546875 l 1
 782.481445312 -80.2685546875 787.482421875 -85.26953125 787.482421875 -91.4482421875 c 0
 787.482421875 -97.634765625 782.481445312 -102.635742188 776.294921875 -102.635742188 c 2
 747.375 -102.635742188 l 1
 767.831054688 -123.091796875 l 2
 772.20703125 -127.459960938 772.20703125 -134.528320312 767.831054688 -138.905273438 c 0
 765.646484375 -141.08984375 762.783203125 -142.181640625 759.919921875 -142.181640625 c 0
 757.056640625 -142.181640625 754.193359375 -141.08984375 752.008789062 -138.905273438 c 2
 731.561523438 -118.458007812 l 1
 731.561523438 -147.377929688 l 2
 731.561523438 -153.564453125 726.560546875 -158.565429688 720.374023438 -158.565429688 c 0
 714.186523438 -158.565429688 709.186523438 -153.564453125 709.186523438 -147.377929688 c 2
 709.186523438 -118.450195312 l 1
 688.74609375 -138.905273438 l 2
 686.5625 -141.08984375 683.69921875 -142.181640625 680.8359375 -142.181640625 c 0
 677.97265625 -142.181640625 675.109375 -141.08984375 672.924804688 -138.905273438 c 0
 668.547851562 -134.536132812 668.547851562 -127.467773438 672.924804688 -123.091796875 c 2
 693.372070312 -102.643554688 l 1
 664.452148438 -102.643554688 l 2
 658.265625 -102.643554688 653.264648438 -97.642578125 653.264648438 -91.4560546875 c 0
 653.264648438 -85.26953125 658.265625 -80.2685546875 664.452148438 -80.2685546875 c 2
 693.372070312 -80.2685546875 l 1
 672.924804688 -59.8203125 l 2
 668.547851562 -55.4521484375 668.547851562 -48.3837890625 672.924804688 -44.0068359375 c 0
 677.293945312 -39.6298828125 684.362304688 -39.6298828125 688.739257812 -44.0068359375 c 2
 709.186523438 -64.4541015625 l 1
 709.186523438 -35.5341796875 l 2
 709.186523438 -29.34765625 714.1875 -24.3466796875 720.374023438 -24.3466796875 c 0
 726.560546875 -24.3466796875 731.561523438 -29.34765625 731.561523438 -35.5341796875 c 2
 731.561523438 -64.4541015625 l 1
 752.009765625 -44.0068359375 l 2
 756.377929688 -39.6298828125 763.446289062 -39.6298828125 767.823242188 -44.0068359375 c 0
 772.200195312 -48.3759765625 772.200195312 -55.4443359375 767.823242188 -59.8203125 c 2
 747.375976562 -80.2685546875 l 1
 776.295898438 -80.2685546875 l 1
EndSplineSet
EndChar

StartChar: uF000B
Encoding: 983051 983051 21
Width: 1000
Flags: HW
LayerCount: 2
Fore
SplineSet
34.9072265625 465.62890625 m 1
 34.9091796875 465.62890625 l 1
 25.9794921875 465.62890625 17.048828125 469.03515625 10.228515625 475.864257812 c 0
 -3.3984375 489.475585938 -3.3984375 511.568359375 10.228515625 525.186523438 c 2
 77.1650390625 592.124023438 l 2
 117.969726562 632.936523438 184.357421875 632.936523438 225.161132812 592.124023438 c 2
 242.778320312 574.506835938 l 2
 255.852539062 561.44921875 279.049804688 561.44921875 292.116210938 574.506835938 c 2
 309.733398438 592.124023438 l 2
 350.537109375 632.936523438 416.924804688 632.936523438 457.729492188 592.124023438 c 2
 475.345703125 574.506835938 l 2
 488.404296875 561.44921875 511.6015625 561.424804688 524.684570312 574.506835938 c 2
 542.30859375 592.131835938 l 2
 562.008789062 611.833007812 588.28125 622.693359375 616.295898438 622.693359375 c 0
 644.309570312 622.693359375 670.581054688 611.833007812 690.282226562 592.124023438 c 2
 707.907226562 574.5234375 l 2
 720.981445312 561.432617188 744.145507812 561.448242188 757.228515625 574.514648438 c 2
 774.853515625 592.139648438 l 2
 794.553710938 611.840820312 820.825195312 622.701171875 848.83984375 622.701171875 c 0
 876.853515625 622.701171875 903.125 611.840820312 922.826171875 592.130859375 c 2
 989.780273438 525.194335938 l 2
 1003.40625 511.56640625 1003.40625 489.473632812 989.780273438 475.85546875 c 0
 976.178710938 462.237304688 954.084960938 462.237304688 940.458984375 475.85546875 c 2
 873.504882812 542.79296875 l 2
 860.4296875 555.875976562 837.265625 555.859375 824.182617188 542.79296875 c 2
 806.55859375 525.16796875 l 2
 786.858398438 505.466796875 760.5859375 494.606445312 732.571289062 494.606445312 c 0
 704.557617188 494.606445312 678.286132812 505.467773438 658.584960938 525.176757812 c 2
 640.959960938 542.77734375 l 2
 627.885742188 555.868164062 604.721679688 555.8515625 591.638671875 542.78515625 c 2
 574.013671875 525.16015625 l 2
 554.313476562 505.458984375 528.025390625 494.598632812 500.02734375 494.598632812 c 0
 472.01953125 494.598632812 445.741210938 505.459960938 426.032226562 525.168945312 c 2
 408.416015625 542.78515625 l 2
 395.340820312 555.84375 372.14453125 555.84375 359.077148438 542.78515625 c 2
 341.4609375 525.168945312 l 2
 300.65625 484.356445312 234.26953125 484.356445312 193.46484375 525.168945312 c 2
 175.848632812 542.78515625 l 2
 162.7734375 555.84375 139.576171875 555.84375 126.509765625 542.78515625 c 2
 59.572265625 475.84765625 l 2
 52.767578125 469.03515625 43.837890625 465.62890625 34.9072265625 465.62890625 c 1
922.818359375 429.333984375 m 2
 989.774414062 362.413085938 l 2
 1003.40039062 348.786132812 1003.40039062 326.692382812 989.774414062 313.075195312 c 0
 976.171875 299.448242188 954.078125 299.448242188 940.452148438 313.075195312 c 2
 873.498046875 380.012695312 l 2
 860.423828125 393.094726562 837.259765625 393.079101562 824.176757812 380.012695312 c 2
 806.551757812 362.387695312 l 2
 786.8515625 342.686523438 760.579101562 331.826171875 732.565429688 331.826171875 c 0
 704.55078125 331.826171875 678.279296875 342.686523438 658.579101562 362.395507812 c 2
 640.954101562 379.99609375 l 2
 627.87890625 393.086914062 604.71484375 393.071289062 591.631835938 380.004882812 c 2
 574.0078125 362.379882812 l 2
 554.307617188 342.678710938 528.018554688 331.818359375 500.020507812 331.818359375 c 0
 472.012695312 331.818359375 445.735351562 342.678710938 426.026367188 362.387695312 c 2
 408.409179688 380.004882812 l 2
 395.334960938 393.063476562 372.137695312 393.063476562 359.071289062 380.004882812 c 2
 341.454101562 362.387695312 l 2
 300.650390625 321.575195312 234.262695312 321.575195312 193.458007812 362.387695312 c 2
 175.841796875 380.004882812 l 2
 162.766601562 393.063476562 139.5703125 393.063476562 126.50390625 380.004882812 c 2
 59.56640625 313.067382812 l 2
 52.7607421875 306.25390625 43.83203125 302.84765625 34.9013671875 302.84765625 c 0
 25.970703125 302.84765625 17.041015625 306.25390625 10.2197265625 313.067382812 c 0
 -3.40625 326.677734375 -3.40625 348.771484375 10.2197265625 362.388671875 c 2
 77.1572265625 429.326171875 l 2
 117.961914062 470.139648438 184.348632812 470.139648438 225.153320312 429.326171875 c 2
 242.76953125 411.709960938 l 2
 255.844726562 398.651367188 279.041015625 398.651367188 292.108398438 411.709960938 c 2
 309.724609375 429.326171875 l 2
 350.529296875 470.139648438 416.916015625 470.139648438 457.720703125 429.326171875 c 2
 475.336914062 411.709960938 l 2
 488.395507812 398.651367188 511.592773438 398.626953125 524.67578125 411.709960938 c 2
 542.299804688 429.334960938 l 2
 562.000976562 449.036132812 588.272460938 459.896484375 616.287109375 459.896484375 c 0
 644.30078125 459.896484375 670.572265625 449.03515625 690.2734375 429.326171875 c 2
 707.8984375 411.725585938 l 2
 720.97265625 398.634765625 744.137695312 398.651367188 757.219726562 411.717773438 c 2
 774.844726562 429.341796875 l 2
 794.544921875 449.043945312 820.817382812 459.904296875 848.831054688 459.904296875 c 0
 876.845703125 459.904296875 903.1171875 449.04296875 922.818359375 429.333984375 c 2
922.818359375 266.547851562 m 2
 989.774414062 199.5859375 l 2
 1003.40039062 185.975585938 1003.40039062 163.881835938 989.774414062 150.263671875 c 0
 982.9609375 143.451171875 974.040039062 140.044921875 965.109375 140.044921875 c 0
 956.178710938 140.044921875 947.256835938 143.451171875 940.427734375 150.272460938 c 2
 873.473632812 217.2265625 l 2
 860.415039062 230.284179688 837.209960938 230.284179688 824.151367188 217.2265625 c 2
 806.52734375 199.6015625 l 2
 786.826171875 179.891601562 760.538085938 169.03125 732.540039062 169.03125 c 0
 704.541015625 169.03125 678.254882812 179.892578125 658.553710938 199.6015625 c 2
 640.928710938 217.2265625 l 2
 627.87109375 230.284179688 604.666015625 230.284179688 591.607421875 217.2265625 c 2
 573.982421875 199.6015625 l 2
 533.192382812 158.7890625 466.805664062 158.7890625 426.000976562 199.6015625 c 2
 408.375976562 217.2265625 l 2
 394.774414062 230.84375 372.6484375 230.828125 359.0546875 217.2265625 c 2
 341.454101562 199.6015625 l 2
 300.641601562 158.811523438 234.25390625 158.7890625 193.450195312 199.6015625 c 2
 175.825195312 217.2265625 l 2
 162.22265625 230.84375 140.09765625 230.828125 126.50390625 217.2265625 c 2
 59.56640625 150.272460938 l 2
 45.939453125 136.646484375 23.845703125 136.646484375 10.2275390625 150.272460938 c 0
 -3.3896484375 163.8828125 -3.3896484375 185.967773438 10.2275390625 199.59375 c 2
 77.1650390625 266.547851562 l 2
 117.978515625 307.360351562 184.356445312 307.360351562 225.161132812 266.547851562 c 2
 242.786132812 248.922851562 l 2
 256.379882812 235.321289062 278.505859375 235.329101562 292.107421875 248.922851562 c 2
 309.708007812 266.547851562 l 2
 350.520507812 307.337890625 416.908203125 307.360351562 457.712890625 266.547851562 c 2
 475.336914062 248.922851562 l 2
 488.939453125 235.321289062 511.065429688 235.321289062 524.659179688 248.922851562 c 2
 542.283203125 266.547851562 l 2
 583.073242188 307.360351562 649.475585938 307.360351562 690.265625 266.547851562 c 2
 707.889648438 248.922851562 l 2
 720.948242188 235.865234375 744.153320312 235.865234375 757.211914062 248.922851562 c 2
 774.8359375 266.547851562 l 2
 815.625976562 307.360351562 882.028320312 307.360351562 922.818359375 266.547851562 c 2
922.818359375 103.76171875 m 2
 989.774414062 36.8076171875 l 2
 1003.40039062 23.197265625 1003.40039062 1.1044921875 989.774414062 -12.513671875 c 0
 982.9609375 -19.3271484375 974.040039062 -22.7333984375 965.109375 -22.7333984375 c 0
 956.178710938 -22.7333984375 947.256835938 -19.3271484375 940.427734375 -12.513671875 c 2
 873.473632812 54.4404296875 l 2
 860.415039062 67.4990234375 837.209960938 67.4990234375 824.151367188 54.4404296875 c 2
 806.52734375 36.8154296875 l 2
 786.826171875 17.10546875 760.538085938 6.2451171875 732.540039062 6.2451171875 c 0
 704.541015625 6.2451171875 678.254882812 17.1064453125 658.553710938 36.8154296875 c 2
 640.928710938 54.4404296875 l 2
 627.87109375 67.4990234375 604.666015625 67.4990234375 591.607421875 54.4404296875 c 2
 573.982421875 36.8154296875 l 2
 533.192382812 -3.9970703125 466.805664062 -3.9970703125 426.000976562 36.8154296875 c 2
 408.375976562 54.4404296875 l 2
 394.774414062 68.05859375 372.6484375 68.0419921875 359.0546875 54.4404296875 c 2
 341.454101562 36.8154296875 l 2
 300.641601562 -3.974609375 234.25390625 -3.9970703125 193.450195312 36.8154296875 c 2
 175.825195312 54.4404296875 l 2
 162.22265625 68.05859375 140.09765625 68.0419921875 126.50390625 54.4404296875 c 2
 59.56640625 -12.513671875 l 2
 45.939453125 -26.1396484375 23.845703125 -26.1396484375 10.2275390625 -12.513671875 c 0
 -3.3896484375 1.0966796875 -3.3896484375 23.181640625 10.2275390625 36.8076171875 c 2
 77.1650390625 103.76171875 l 2
 117.978515625 144.57421875 184.356445312 144.57421875 225.161132812 103.76171875 c 2
 242.786132812 86.1376953125 l 2
 256.379882812 72.53515625 278.505859375 72.5439453125 292.107421875 86.1376953125 c 2
 309.708007812 103.76171875 l 2
 350.520507812 144.551757812 416.908203125 144.57421875 457.712890625 103.76171875 c 2
 475.336914062 86.1376953125 l 2
 488.939453125 72.51953125 511.065429688 72.5439453125 524.659179688 86.1376953125 c 2
 542.283203125 103.76171875 l 2
 583.073242188 144.57421875 649.475585938 144.57421875 690.265625 103.76171875 c 2
 707.889648438 86.1376953125 l 2
 720.948242188 73.0791015625 744.153320312 73.0791015625 757.211914062 86.1376953125 c 2
 774.8359375 103.76171875 l 2
 815.625976562 144.57421875 882.028320312 144.57421875 922.818359375 103.76171875 c 2
EndSplineSet
EndChar

StartChar: uni20BD
Encoding: 8381 8381 22
Width: 1000
Flags: H
LayerCount: 2
Fore
SplineSet
424.267578125 643.876953125 m 2
 410.555664062 687.50390625 l 2
 398.090820312 724.8984375 425.513671875 763.540039062 465.401367188 763.540039062 c 2
 474.126953125 763.540039062 l 1
 474.126953125 764.786132812 l 2
 471.633789062 772.265625 472.880859375 779.744140625 479.11328125 785.9765625 c 2
 486.591796875 793.456054688 l 2
 495.317382812 802.181640625 507.782226562 802.181640625 516.5078125 793.456054688 c 2
 523.987304688 785.9765625 l 2
 528.97265625 780.991210938 531.465820312 772.265625 528.97265625 764.786132812 c 2
 528.97265625 763.540039062 l 1
 537.698242188 763.540039062 l 2
 577.5859375 763.540039062 605.008789062 724.8984375 592.543945312 687.50390625 c 2
 578.833007812 643.876953125 l 2
 572.600585938 625.178710938 555.149414062 612.713867188 535.205078125 612.713867188 c 2
 467.89453125 612.713867188 l 2
 447.951171875 612.713867188 430.5 625.178710938 424.267578125 643.876953125 c 2
965.24609375 628.918945312 m 0
 986.436523438 542.91015625 990.17578125 454.409179688 977.7109375 367.155273438 c 0
 965.24609375 299.84375 926.604492188 196.384765625 859.293945312 161.483398438 c 0
 791.983398438 125.334960938 735.890625 152.7578125 697.25 172.702148438 c 0
 674.8125 183.919921875 659.854492188 191.399414062 647.389648438 188.90625 c 0
 639.911132812 187.66015625 636.170898438 176.44140625 641.157226562 170.208984375 c 2
 691.017578125 107.883789062 l 2
 704.728515625 91.6796875 708.467773438 71.7353515625 704.728515625 53.0380859375 c 2
 754.587890625 8.1640625 l 2
 768.299804688 23.1220703125 788.244140625 31.84765625 810.680664062 31.84765625 c 0
 854.307617188 31.84765625 889.209960938 -3.0537109375 889.209960938 -46.681640625 c 0
 889.209960938 -90.30859375 854.307617188 -125.209960938 810.680664062 -125.209960938 c 0
 767.053710938 -125.209960938 732.151367188 -90.30859375 732.151367188 -46.681640625 c 0
 732.151367188 -44.1884765625 733.397460938 -40.4482421875 733.397460938 -37.9560546875 c 2
 674.8125 14.3974609375 l 2
 666.086914062 9.4111328125 656.115234375 8.1640625 644.896484375 9.4111328125 c 0
 612.48828125 14.3974609375 580.079101562 29.3544921875 551.41015625 45.5595703125 c 1
 535.205078125 -6.79296875 605.008789062 -49.173828125 636.170898438 -79.08984375 c 0
 648.63671875 -90.30859375 669.827148438 -110.251953125 654.869140625 -128.950195312 c 0
 646.143554688 -140.16796875 629.938476562 -143.908203125 616.227539062 -147.647460938 c 0
 609.995117188 -150.140625 603.762695312 -151.38671875 597.530273438 -152.6328125 c 0
 570.107421875 -157.619140625 545.177734375 -170.083984375 523.987304688 -186.288085938 c 0
 519.000976562 -190.028320312 515.26171875 -193.767578125 511.521484375 -196.260742188 c 0
 509.029296875 -198.75390625 505.2890625 -200 501.549804688 -200 c 0
 497.810546875 -200 494.071289062 -198.75390625 491.578125 -196.260742188 c 0
 487.838867188 -192.521484375 484.098632812 -190.028320312 479.11328125 -186.288085938 c 0
 456.67578125 -170.083984375 431.74609375 -158.865234375 405.5703125 -152.6328125 c 0
 399.337890625 -150.140625 393.10546875 -148.893554688 386.872070312 -147.647460938 c 0
 374.407226562 -143.908203125 356.95703125 -140.16796875 348.231445312 -128.950195312 c 0
 333.2734375 -110.251953125 354.463867188 -91.5546875 366.928710938 -79.08984375 c 0
 399.337890625 -49.173828125 467.89453125 -6.79296875 451.690429688 45.5595703125 c 1
 423.020507812 29.3544921875 390.612304688 13.150390625 358.203125 9.4111328125 c 0
 346.984375 6.91796875 335.766601562 9.4111328125 327.041015625 14.3974609375 c 2
 267.208984375 -39.2021484375 l 1
 305.850585938 -74.1044921875 l 2
 317.069335938 -82.8291015625 317.069335938 -99.0341796875 308.34375 -109.005859375 c 0
 299.618164062 -120.224609375 283.413085938 -120.224609375 273.44140625 -111.499023438 c 2
 213.609375 -57.8994140625 l 1
 179.954101562 -27.9833984375 l 2
 168.736328125 -32.9697265625 156.271484375 -36.708984375 142.559570312 -36.708984375 c 0
 128.848632812 -36.708984375 117.629882812 -25.4912109375 117.629882812 -11.779296875 c 0
 117.629882812 1.931640625 128.848632812 13.150390625 142.559570312 13.150390625 c 0
 157.517578125 13.150390625 171.229492188 25.615234375 171.229492188 41.8203125 c 0
 171.229492188 55.53125 182.447265625 66.75 196.159179688 66.75 c 0
 209.870117188 66.75 221.088867188 55.53125 221.088867188 41.8203125 c 0
 221.088867188 30.6015625 218.595703125 18.13671875 213.609375 8.1640625 c 2
 228.567382812 -5.546875 l 1
 297.125 55.53125 l 2
 293.385742188 74.228515625 297.125 94.1728515625 310.8359375 109.130859375 c 2
 360.696289062 171.455078125 l 2
 366.928710938 178.934570312 363.189453125 188.90625 354.463867188 190.15234375 c 0
 341.999023438 192.645507812 327.041015625 186.413085938 304.603515625 173.948242188 c 0
 265.962890625 154.00390625 209.870117188 127.828125 142.559570312 162.729492188 c 0
 75.2490234375 197.631835938 35.361328125 301.090820312 24.142578125 368.401367188 c 0
 9.1845703125 455.65625 12.923828125 544.157226562 35.361328125 628.918945312 c 0
 35.361328125 632.658203125 37.8544921875 635.151367188 40.3466796875 637.64453125 c 0
 44.0869140625 640.13671875 46.580078125 641.383789062 50.3193359375 641.383789062 c 0
 54.05859375 641.383789062 57.7978515625 640.13671875 60.291015625 638.890625 c 0
 64.0302734375 637.64453125 66.5234375 635.151367188 67.76953125 631.412109375 c 0
 78.98828125 611.467773438 100.178710938 575.319335938 120.123046875 546.650390625 c 0
 178.708007812 461.888671875 238.540039062 402.056640625 323.301757812 399.563476562 c 0
 333.2734375 399.563476562 343.245117188 402.056640625 351.970703125 405.795898438 c 0
 378.147460938 418.260742188 394.3515625 448.176757812 390.612304688 478.092773438 c 0
 390.612304688 490.557617188 386.872070312 504.26953125 379.393554688 515.487304688 c 0
 371.915039062 526.706054688 361.942382812 535.431640625 349.477539062 541.6640625 c 0
 332.026367188 550.389648438 309.58984375 551.635742188 289.645507812 547.896484375 c 0
 279.673828125 546.650390625 269.702148438 542.91015625 260.9765625 537.924804688 c 0
 252.250976562 532.938476562 247.265625 535.431640625 246.018554688 545.403320312 c 0
 244.772460938 571.580078125 249.7578125 606.481445312 273.44140625 622.686523438 c 0
 304.603515625 643.876953125 351.970703125 628.918945312 380.639648438 612.713867188 c 0
 411.802734375 596.509765625 437.978515625 571.580078125 460.416015625 544.157226562 c 0
 475.374023438 525.459960938 489.084960938 504.26953125 500.303710938 483.079101562 c 1
 510.275390625 505.515625 525.233398438 525.459960938 540.19140625 544.157226562 c 0
 562.627929688 571.580078125 588.8046875 596.509765625 619.966796875 612.713867188 c 0
 649.8828125 628.918945312 697.25 643.876953125 727.165039062 622.686523438 c 0
 750.848632812 606.481445312 755.834960938 571.580078125 754.587890625 545.403320312 c 0
 753.341796875 534.185546875 748.35546875 532.938476562 739.630859375 537.924804688 c 0
 730.905273438 542.91015625 720.932617188 546.650390625 710.9609375 547.896484375 c 0
 692.263671875 551.635742188 668.580078125 550.389648438 651.12890625 541.6640625 c 0
 638.6640625 535.431640625 628.692382812 526.706054688 621.213867188 515.487304688 c 0
 614.981445312 504.26953125 609.995117188 491.8046875 609.995117188 478.092773438 c 0
 605.008789062 448.176757812 621.213867188 418.260742188 648.63671875 405.795898438 c 0
 657.361328125 402.056640625 667.333984375 399.563476562 677.305664062 399.563476562 c 0
 762.067382812 402.056640625 821.899414062 461.888671875 880.484375 546.650390625 c 0
 900.427734375 575.319335938 921.618164062 611.467773438 932.836914062 631.412109375 c 0
 935.330078125 635.151367188 937.823242188 637.64453125 940.31640625 638.890625 c 0
 942.80859375 641.383789062 946.548828125 641.383789062 950.288085938 641.383789062 c 0
 954.02734375 641.383789062 957.766601562 640.13671875 960.259765625 637.64453125 c 0
 962.752929688 635.151367188 963.999023438 632.658203125 965.24609375 628.918945312 c 0
783.2578125 -35.462890625 m 0
 782.010742188 -37.9560546875 782.010742188 -41.6953125 782.010742188 -44.1884765625 c 0
 782.010742188 -59.146484375 794.4765625 -72.857421875 810.680664062 -72.857421875 c 0
 825.638671875 -72.857421875 839.349609375 -60.392578125 839.349609375 -44.1884765625 c 0
 839.349609375 -29.23046875 826.884765625 -15.5185546875 810.680664062 -15.5185546875 c 0
 798.215820312 -15.5185546875 786.997070312 -24.244140625 783.2578125 -35.462890625 c 0
EndSplineSet
EndChar

StartChar: uni2712
Encoding: 10002 10002 23
Width: 1000
Flags: H
LayerCount: 2
Fore
SplineSet
895.318359375 800 m 1
 895.318359375 800 957.5234375 441.002929688 699.65625 429.61328125 c 1
 699.65625 429.61328125 739.912109375 390.778320312 828.275390625 412.58203125 c 1
 701.661132812 255.372070312 550.127929688 295.458984375 545.977539062 283.787109375 c 0
 541.823242188 272.1171875 628.26953125 239.737304688 701.661132812 255.372070312 c 1
 541.342773438 97.1806640625 430.760742188 182.408203125 427.1875 172.366210938 c 0
 423.614257812 162.32421875 468.127929688 110.028320312 569.212890625 121.08203125 c 1
 461.081054688 -12.2626953125 316.579101562 41.6298828125 313.841796875 33.9306640625 c 0
 311.100585938 26.232421875 434.452148438 -7.7197265625 434.452148438 -7.7197265625 c 1
 410.686523438 -13.484375 385.913085938 -16.4599609375 360.38671875 -16.4599609375 c 0
 323.0703125 -16.4599609375 287.265625 -9.9306640625 254.055664062 2.0458984375 c 1
 215.975585938 -29.83984375 178.651367188 -139.01171875 169.572265625 -165.434570312 c 0
 168.98828125 -167.135742188 94.4296875 -210.92578125 98.234375 -197.416992188 c 0
 233.426757812 282.579101562 733.6875 552.616210938 733.557617188 552.561523438 c 0
 397.561523438 411.6796875 268.458007812 211.0546875 171.174804688 60.5234375 c 1
 134.490234375 96.1708984375 119.649414062 153.505859375 102.16015625 222.220703125 c 0
 93.7421875 255.284179688 165.971679688 132.060546875 193.005859375 136.571289062 c 1
 11.6171875 516.260742188 804.538085938 535.600585938 895.318359375 800 c 1
EndSplineSet
EndChar

StartChar: uF0078
Encoding: 983160 983160 24
Width: 1000
Flags: H
LayerCount: 2
Fore
SplineSet
187.091796875 591.633789062 m 1
 187.091796875 566.178710938 l 1
 895.418945312 566.178710938 l 1
 895.418945312 591.633789062 l 1
 187.091796875 591.633789062 l 1
82.9189453125 776.541015625 m 1
 82.9189453125 751.086914062 l 1
 791.24609375 751.086914062 l 1
 791.24609375 776.541015625 l 1
 82.9189453125 776.541015625 l 1
212.53515625 498.220703125 m 1
 212.53515625 472.766601562 l 1
 924.0234375 472.766601562 l 1
 924.0234375 498.220703125 l 1
 212.53515625 498.220703125 l 1
110.19140625 683.767578125 m 1
 110.19140625 658.313476562 l 1
 821.6796875 658.313476562 l 1
 821.6796875 683.767578125 l 1
 110.19140625 683.767578125 l 1
177.485351562 219.8828125 m 1
 177.485351562 194.428710938 l 1
 885.813476562 194.428710938 l 1
 885.813476562 219.8828125 l 1
 177.485351562 219.8828125 l 1
82.9189453125 405.4296875 m 1
 82.9189453125 379.975585938 l 1
 791.24609375 379.975585938 l 1
 791.24609375 405.4296875 l 1
 82.9189453125 405.4296875 l 1
110.19140625 312.673828125 m 1
 110.19140625 287.219726562 l 1
 821.6796875 287.219726562 l 1
 821.6796875 312.673828125 l 1
 110.19140625 312.673828125 l 1
EndSplineSet
EndChar

StartChar: uF001C
Encoding: 983068 983068 25
Width: 1000
Flags: H
LayerCount: 2
Fore
SplineSet
524.7109375 800 m 1
 562.328125 678.23828125 l 1
 545.2734375 682.9453125 527.65625 685.96484375 509.5625 686.7109375 c 0
 496.328125 687.25390625 483.12890625 686.30859375 470.03515625 684.6171875 c 1
 524.7109375 800 l 1
348.80078125 766.12890625 m 1
 442.2734375 679.4921875 l 1
 420.01953125 673.7265625 399.08984375 664.7265625 379.96484375 653.01953125 c 0
 378.36328125 652.0546875 376.78125 651.01953125 375.21875 650 c 0
 371 647.25390625 366.85546875 644.41796875 362.81640625 641.4375 c 0
 361.69140625 640.58203125 360.41796875 639.8359375 359.25390625 638.96484375 c 1
 348.80078125 766.12890625 l 1
694.01953125 741.4375 m 1
 665.546875 617.14453125 l 1
 643.47265625 639.7109375 617.58203125 657.14453125 589.18359375 668.96484375 c 1
 694.01953125 741.4375 l 1
496.923828125 657.880859375 m 0
 500.743164062 657.936523438 504.571289062 657.885742188 508.3984375 657.7265625 c 0
 562.58203125 655.5078125 612.65625 632.328125 649.3984375 592.41796875 c 0
 682.81640625 556.109375 701.328125 509.91015625 702.69140625 461.03515625 c 1
 676.85546875 489.7265625 639.92578125 508.12890625 598.87109375 508.12890625 c 0
 586.01953125 508.12890625 573.01953125 506.328125 560.2734375 502.7265625 c 2
 559.109375 502.41796875 l 1
 558.2734375 503.2890625 l 2
 524.80078125 539.328125 477.3828125 559.96484375 428.19921875 559.96484375 c 0
 380.8359375 559.96484375 337 541.01953125 304.7265625 509.74609375 c 1
 325.4921875 582.52734375 386.41796875 640.34375 462.96484375 654.5078125 c 0
 474.077148438 656.58203125 485.465820312 657.712890625 496.923828125 657.880859375 c 0
213.546875 648.92578125 m 1
 338.03515625 620.4921875 l 1
 332.65625 615.19921875 327.6015625 609.58203125 322.74609375 603.81640625 c 0
 322.34375 603.34375 321.98046875 602.8359375 321.58203125 602.36328125 c 0
 317.19921875 597.0546875 313.0546875 591.5625 309.14453125 585.890625 c 0
 308.65625 585.18359375 308.18359375 584.453125 307.671875 583.7109375 c 0
 299.23828125 571.19921875 291.96484375 557.9453125 286.07421875 544 c 1
 213.546875 648.92578125 l 1
811.21875 606.21875 m 1
 724.7109375 512.98046875 l 1
 717.07421875 542.8359375 703.3828125 570.890625 684.30859375 595.76171875 c 1
 811.21875 606.21875 l 1
428.18359375 531.3984375 m 0
 469.47265625 531.3984375 509.25390625 514.07421875 537.34375 483.85546875 c 2
 550.01953125 470.21875 l 1
 567.96484375 475.23828125 l 2
 578.19921875 478.109375 588.58203125 479.5625 598.8359375 479.5625 c 0
 656.96484375 479.5625 705.8359375 434.21875 710.12890625 376.34375 c 2
 711.453125 358.36328125 l 1
 727.81640625 350.8359375 l 2
 770.01953125 331.41796875 797.25390625 288.9453125 797.25390625 242.6015625 c 0
 797.25390625 176.890625 743.87109375 123.4375 678.25390625 123.4375 c 2
 314.109375 123.4375 l 2
 238.1640625 123.4375 176.34375 185.25390625 176.34375 261.18359375 c 0
 176.34375 317.109375 211.34375 368.546875 263.4375 389.18359375 c 2
 278.87109375 395.328125 l 1
 282.12890625 411.58203125 l 2
 296.03515625 481.01953125 357.4921875 531.3984375 428.18359375 531.3984375 c 0
276.7265625 517.23828125 m 1
 271.92578125 500.2734375 268.85546875 482.65625 268.109375 464.52734375 c 0
 268.03515625 462.63671875 268.18359375 460.80078125 268.1640625 458.92578125 c 0
 263.890625 450.01953125 260.2890625 440.7109375 257.52734375 431.01953125 c 1
 154.91015625 479.6171875 l 1
 276.7265625 517.23828125 l 1
729.890625 484.87109375 m 1
 845.07421875 430.34375 l 1
 735.546875 396.4375 l 1
 733.9453125 404.03515625 731.7265625 411.34375 728.9453125 418.4375 c 0
 730.41796875 427.30859375 731.36328125 436.2734375 731.74609375 445.3984375 c 0
 732.328125 458.7265625 731.5625 471.890625 729.890625 484.87109375 c 1
495.89453125 67.771484375 m 0
 498.2421875 67.3955078125 500.25 65.6640625 500.8359375 63.23828125 c 2
 510.8359375 22.14453125 l 1
 540.890625 51.92578125 l 2
 543.25390625 54.2734375 547.109375 54.2734375 549.4375 51.87109375 c 2
 550.30859375 51.01953125 l 2
 552.69140625 48.65625 552.63671875 44.8359375 550.30859375 42.47265625 c 2
 520.30859375 12.7265625 l 1
 561.328125 2.671875 l 2
 564.546875 1.87109375 566.58203125 -1.453125 565.76171875 -4.671875 c 2
 565.453125 -5.8359375 l 2
 564.671875 -9.0546875 561.36328125 -11.08984375 558.14453125 -10.2734375 c 2
 516.23828125 -0.0546875 l 1
 526.47265625 -41.98046875 l 2
 527.30859375 -45.21875 525.2734375 -48.4921875 521.98046875 -49.30859375 c 2
 520.81640625 -49.5625 l 2
 517.6015625 -50.3828125 514.2890625 -48.36328125 513.5078125 -45.12890625 c 2
 503.41796875 -3.96484375 l 1
 473.3984375 -33.81640625 l 2
 471.01953125 -36.14453125 467.21875 -36.14453125 464.8359375 -33.76171875 c 2
 463.96484375 -32.91015625 l 2
 461.65625 -30.52734375 461.65625 -26.69140625 464.01953125 -24.30859375 c 2
 493.96484375 5.3984375 l 1
 452.98046875 15.41796875 l 2
 449.74609375 16.18359375 447.671875 19.453125 448.52734375 22.74609375 c 2
 448.78125 23.91015625 l 2
 449.6015625 27.18359375 452.92578125 29.14453125 456.14453125 28.36328125 c 2
 498.08984375 18.12890625 l 1
 487.80078125 60.0546875 l 2
 487.01953125 63.25390625 489.07421875 66.6171875 492.30859375 67.3828125 c 2
 493.47265625 67.671875 l 2
 494.291015625 67.8720703125 495.112304688 67.896484375 495.89453125 67.771484375 c 0
358.109375 67.546875 m 1
 358.109375 67.546875 366.30859375 14.52734375 347.2734375 -22.34375 c 0
 323.21875 -68.78125 268.328125 -38.3984375 291.41796875 6.41796875 c 0
 311.01953125 44.5078125 358.109375 67.546875 358.109375 67.546875 c 1
726.65625 67.546875 m 1
 726.65625 67.546875 734.8359375 14.52734375 715.81640625 -22.34375 c 0
 691.76171875 -68.78125 636.87109375 -38.3984375 659.96484375 6.41796875 c 0
 679.5625 44.5078125 726.65625 67.546875 726.65625 67.546875 c 1
255.912109375 -74.517578125 m 0
 258.259765625 -74.8935546875 260.26953125 -76.6259765625 260.85546875 -79.0546875 c 2
 270.85546875 -120.14453125 l 1
 300.91015625 -90.36328125 l 2
 303.2734375 -88.01953125 307.12890625 -88.01953125 309.453125 -90.41796875 c 2
 310.328125 -91.2734375 l 2
 312.7109375 -93.63671875 312.65625 -97.453125 310.328125 -99.81640625 c 2
 280.328125 -129.5625 l 1
 321.34375 -139.6171875 l 2
 324.5625 -140.3984375 326.6015625 -143.74609375 325.80078125 -146.96484375 c 2
 325.4921875 -148.12890625 l 2
 324.7109375 -151.34375 321.3984375 -153.3828125 318.18359375 -152.5625 c 2
 276.2734375 -142.34375 l 1
 286.5078125 -184.2734375 l 2
 287.34375 -187.5078125 285.30859375 -190.78125 282.01953125 -191.6015625 c 2
 280.85546875 -191.85546875 l 2
 277.63671875 -192.671875 274.328125 -190.65625 273.546875 -187.41796875 c 2
 263.453125 -146.25390625 l 1
 233.4375 -176.109375 l 2
 231.0546875 -178.4375 227.25390625 -178.4375 224.87109375 -176.0546875 c 2
 224 -175.19921875 l 2
 221.69140625 -172.81640625 221.69140625 -168.98046875 224.0546875 -166.6015625 c 2
 254 -136.890625 l 1
 213.01953125 -126.87109375 l 2
 209.78125 -126.109375 207.7109375 -122.8359375 208.5625 -119.546875 c 2
 208.81640625 -118.3828125 l 2
 209.63671875 -115.109375 212.96484375 -113.14453125 216.18359375 -113.92578125 c 2
 258.12890625 -124.1640625 l 1
 247.8359375 -82.23828125 l 2
 247.03515625 -79.03515625 249.08984375 -75.671875 252.328125 -74.91015625 c 2
 253.4921875 -74.6171875 l 2
 254.309570312 -74.4169921875 255.129882812 -74.392578125 255.912109375 -74.517578125 c 0
624.439453125 -74.517578125 m 0
 626.787109375 -74.8935546875 628.796875 -76.6259765625 629.3828125 -79.0546875 c 2
 639.3828125 -120.14453125 l 1
 669.4375 -90.36328125 l 2
 671.80078125 -88.01953125 675.65625 -88.01953125 677.98046875 -90.41796875 c 2
 678.85546875 -91.2734375 l 2
 681.23828125 -93.63671875 681.18359375 -97.453125 678.85546875 -99.81640625 c 2
 648.85546875 -129.5625 l 1
 689.87109375 -139.6171875 l 2
 693.08984375 -140.3984375 695.14453125 -143.74609375 694.30859375 -146.96484375 c 2
 694 -148.12890625 l 2
 693.21875 -151.34375 689.91015625 -153.3828125 686.69140625 -152.5625 c 2
 644.78125 -142.34375 l 1
 655.01953125 -184.2734375 l 2
 655.85546875 -187.5078125 653.81640625 -190.78125 650.52734375 -191.6015625 c 2
 649.36328125 -191.85546875 l 2
 646.14453125 -192.671875 642.8359375 -190.65625 642.0546875 -187.41796875 c 2
 631.96484375 -146.25390625 l 1
 601.9453125 -176.109375 l 2
 599.5625 -178.4375 595.76171875 -178.4375 593.3828125 -176.0546875 c 2
 592.5078125 -175.19921875 l 2
 590.19921875 -172.81640625 590.19921875 -168.98046875 592.5625 -166.6015625 c 2
 622.5078125 -136.890625 l 1
 581.52734375 -126.87109375 l 2
 578.2890625 -126.109375 576.21875 -122.8359375 577.07421875 -119.546875 c 2
 577.328125 -118.3828125 l 2
 578.14453125 -115.109375 581.47265625 -113.14453125 584.69140625 -113.92578125 c 2
 626.63671875 -124.1640625 l 1
 616.34375 -82.23828125 l 2
 615.5625 -79.03515625 617.6171875 -75.671875 620.85546875 -74.91015625 c 2
 622.01953125 -74.6171875 l 2
 622.836914062 -74.4169921875 623.657226562 -74.392578125 624.439453125 -74.517578125 c 0
486.671875 -76.7109375 m 1
 486.671875 -76.7109375 494.87109375 -129.7265625 475.8359375 -166.6015625 c 0
 451.78125 -213.03515625 396.890625 -182.65625 419.98046875 -137.8359375 c 0
 439.58203125 -99.74609375 486.671875 -76.7109375 486.671875 -76.7109375 c 1
EndSplineSet
EndChar

StartChar: uF0049
Encoding: 983113 983113 26
Width: 1000
Flags: H
LayerCount: 2
Fore
SplineSet
595.7265625 799.2734375 m 1
 526.91015625 726.6015625 557.4921875 619.546875 606.34375 557.91015625 c 0
 661.07421875 488.890625 759.47265625 430.96484375 846.30859375 480.7109375 c 1
 832.7109375 456.7109375 814.453125 434.890625 791.3984375 416.80078125 c 0
 766.91015625 397.5078125 739.91015625 386.30859375 712.1640625 380.9453125 c 1
 705.18359375 452.07421875 644.80078125 507.3828125 572.92578125 507.3828125 c 0
 560.07421875 507.3828125 547.08984375 505.5625 534.328125 502 c 2
 533.18359375 501.671875 l 1
 532.34375 502.58203125 l 2
 509 527.63671875 478.87109375 545.07421875 446.12890625 553.453125 c 1
 445.36328125 582.03515625 446.08984375 611.7265625 449.96484375 642.890625 c 0
 458.63671875 687.69140625 481.47265625 730.03515625 520.7109375 760.91015625 c 0
 543.7109375 779.03515625 569.25390625 791.671875 595.7265625 799.2734375 c 1
402.2734375 531.96484375 m 0
 443.5625 531.96484375 483.34375 514.63671875 511.4375 484.41796875 c 2
 524.109375 470.78125 l 1
 542.0546875 475.80078125 l 2
 552.2890625 478.671875 562.671875 480.12890625 572.92578125 480.12890625 c 0
 631.0546875 480.12890625 679.92578125 434.78125 684.21875 376.91015625 c 2
 685.546875 358.92578125 l 1
 701.91015625 351.3984375 l 2
 744.08984375 331.98046875 771.328125 289.4921875 771.34375 243.1640625 c 0
 771.34375 177.453125 717.96484375 124 652.34375 124 c 2
 288.19921875 124 l 2
 212.25390625 124 150.4375 185.81640625 150.4375 261.74609375 c 0
 150.4375 317.671875 185.4375 369.109375 237.52734375 389.74609375 c 2
 252.96484375 395.890625 l 1
 256.21875 412.14453125 l 2
 270.12890625 481.58203125 331.58203125 531.96484375 402.2734375 531.96484375 c 0
518.7265625 83.91015625 m 1
 476.76171875 10.5078125 l 1
 527.9453125 9.7265625 l 1
 379.63671875 -192.12890625 l 1
 446.8359375 -26.14453125 l 1
 398.98046875 -26.14453125 l 1
 453.9453125 83.36328125 l 1
 518.7265625 83.91015625 l 1
288.150390625 69.80859375 m 0
 290.987304688 69.91796875 293.60546875 68.0322265625 294.2890625 65.19921875 c 2
 304.2890625 24.109375 l 1
 334.34375 53.890625 l 2
 336.7109375 56.23828125 340.5625 56.23828125 342.890625 53.8359375 c 2
 343.76171875 52.98046875 l 2
 346.14453125 50.6171875 346.08984375 46.80078125 343.76171875 44.4375 c 2
 313.76171875 14.69140625 l 1
 354.78125 4.63671875 l 2
 358 3.85546875 360.03515625 0.52734375 359.23828125 -2.7109375 c 2
 358.92578125 -3.87109375 l 2
 358.14453125 -7.08984375 354.8359375 -9.12890625 351.6171875 -8.30859375 c 2
 309.7109375 1.91015625 l 1
 319.9453125 -40.01953125 l 2
 320.76171875 -43.25390625 318.7265625 -46.52734375 315.4375 -47.34375 c 2
 314.2734375 -47.6015625 l 2
 311.0546875 -48.41796875 307.74609375 -46.3984375 306.96484375 -43.1640625 c 2
 296.87109375 -2 l 1
 266.85546875 -31.85546875 l 2
 264.47265625 -34.18359375 260.671875 -34.18359375 258.2890625 -31.80078125 c 2
 257.41796875 -30.9453125 l 2
 255.109375 -28.5625 255.109375 -24.7265625 257.47265625 -22.34375 c 2
 287.41796875 7.36328125 l 1
 246.4375 17.3828125 l 2
 243.19921875 18.14453125 241.12890625 21.41796875 241.98046875 24.7109375 c 2
 242.23828125 25.87109375 l 2
 243.0546875 29.14453125 246.3828125 31.109375 249.6015625 30.328125 c 2
 291.546875 20.08984375 l 1
 281.25390625 62.01953125 l 2
 280.47265625 65.21875 282.52734375 68.58203125 285.76171875 69.34375 c 2
 286.92578125 69.63671875 l 2
 287.334960938 69.7373046875 287.745117188 69.79296875 288.150390625 69.80859375 c 0
632.76953125 69.80859375 m 0
 635.604492188 69.91796875 638.2265625 68.0322265625 638.91015625 65.19921875 c 2
 648.91015625 24.109375 l 1
 678.96484375 53.890625 l 2
 681.328125 56.23828125 685.18359375 56.23828125 687.5078125 53.8359375 c 2
 688.3828125 52.98046875 l 2
 690.76171875 50.6171875 690.7109375 46.80078125 688.3828125 44.4375 c 2
 658.3828125 14.69140625 l 1
 699.3984375 4.63671875 l 2
 702.6171875 3.85546875 704.671875 0.52734375 703.8359375 -2.7109375 c 2
 703.52734375 -3.87109375 l 2
 702.74609375 -7.08984375 699.4375 -9.12890625 696.21875 -8.30859375 c 2
 654.30859375 1.91015625 l 1
 664.546875 -40.01953125 l 2
 665.3828125 -43.25390625 663.34375 -46.52734375 660.0546875 -47.34375 c 2
 658.890625 -47.6015625 l 2
 655.671875 -48.41796875 652.36328125 -46.3984375 651.58203125 -43.1640625 c 2
 641.4921875 -2 l 1
 611.47265625 -31.85546875 l 2
 609.08984375 -34.18359375 605.2890625 -34.18359375 602.91015625 -31.80078125 c 2
 602.03515625 -30.9453125 l 2
 599.7265625 -28.5625 599.7265625 -24.7265625 602.08984375 -22.34375 c 2
 632.03515625 7.36328125 l 1
 591.0546875 17.3828125 l 2
 587.81640625 18.14453125 585.74609375 21.41796875 586.6015625 24.7109375 c 2
 586.85546875 25.87109375 l 2
 587.671875 29.14453125 591 31.109375 594.21875 30.328125 c 2
 636.1640625 20.08984375 l 1
 625.87109375 62.01953125 l 2
 625.08984375 65.21875 627.14453125 68.58203125 630.3828125 69.34375 c 2
 631.546875 69.63671875 l 2
 631.956054688 69.7373046875 632.364257812 69.79296875 632.76953125 69.80859375 c 0
EndSplineSet
EndChar

StartChar: uF0064
Encoding: 983140 983140 27
Width: 1000
Flags: H
LayerCount: 2
Fore
SplineSet
785.69921875 384.5078125 m 2
 827.8984375 365.07421875 855.13671875 322.6015625 855.13671875 276.2734375 c 0
 855.13671875 210.5625 801.75390625 157.109375 736.13671875 157.109375 c 2
 371.98828125 157.109375 l 2
 296.04296875 157.109375 234.2265625 218.92578125 234.2265625 294.85546875 c 0
 234.2265625 350.78125 269.2265625 402.21875 321.31640625 422.85546875 c 2
 336.7734375 429 l 1
 340.0078125 445.25390625 l 2
 353.91796875 514.69140625 415.37109375 565.07421875 486.0625 565.07421875 c 0
 527.35546875 565.07421875 567.13671875 547.74609375 595.2265625 517.52734375 c 2
 607.8984375 503.890625 l 1
 625.84375 508.91015625 l 2
 636.08203125 511.78125 646.46484375 513.23828125 656.71875 513.23828125 c 0
 714.84375 513.23828125 763.71875 467.890625 768.0078125 410.01953125 c 2
 769.3359375 392.03515625 l 1
 785.69921875 384.5078125 l 2
765.35546875 600.6171875 m 1
 856.08203125 582.85546875 924.5703125 503 924.58984375 407.08984375 c 0
 924.58984375 361.4921875 908.97265625 319.63671875 882.98828125 286.23828125 c 1
 879.31640625 339.7109375 846.8984375 387.80078125 797.6796875 410.47265625 c 2
 796.609375 410.96484375 l 1
 796.515625 412.12890625 l 2
 791.98828125 473.19921875 747.7734375 522.69140625 690.53515625 537.12890625 c 1
 689.7890625 544.25390625 l 2
 684.6640625 594.328125 649.5703125 640.14453125 598.19140625 663.890625 c 0
 575.7734375 674.21875 551.390625 679.671875 527.6796875 679.671875 c 0
 509.828125 679.671875 492.515625 676.65625 476.6640625 670.81640625 c 1
 453.37109375 690.0546875 426.6640625 703.65625 398.42578125 710.98046875 c 1
 435.4453125 761.4921875 495.0078125 794.4375 562.4453125 794.4375 c 0
 671.53515625 794.4375 760.30078125 708.47265625 765.35546875 600.6171875 c 1
205.6640625 294.85546875 m 0
 205.6640625 277.08984375 208.515625 260 213.71875 243.92578125 c 1
 209.1171875 243.91015625 206.09765625 243.91015625 205.8828125 243.92578125 c 0
 127.390625 254.7109375 67.953125 325.9453125 76.4453125 409.01953125 c 0
 82.30078125 466.5625 123.390625 514.52734375 177.13671875 535.85546875 c 2
 186.828125 539.69140625 l 2
 187.5 539.9453125 187.97265625 540.52734375 188.1171875 541.23828125 c 2
 190.0625 550.98046875 l 2
 199.98828125 600.5625 229.48046875 645.3984375 273.98828125 669.41796875 c 0
 339.19140625 704.6171875 413.75390625 689.08984375 464.0625 644 c 0
 466.58984375 641.74609375 468.84375 639.30859375 471.15234375 636.92578125 c 0
 502.5546875 654.69140625 545.828125 656.58203125 586.2265625 637.9453125 c 0
 629.80859375 617.81640625 657.46484375 579.65625 661.37109375 541.328125 c 1
 659.80859375 541.3984375 658.31640625 541.78125 656.75390625 541.78125 c 0
 643.8984375 541.78125 630.8984375 539.96484375 618.15234375 536.3984375 c 2
 616.98828125 536.07421875 l 1
 616.15234375 536.98046875 l 2
 582.6796875 572.98046875 535.26171875 593.6171875 486.08203125 593.6171875 c 0
 401.7734375 593.6171875 328.5703125 533.6015625 312.0078125 450.85546875 c 2
 311.7890625 449.80078125 l 1
 310.7890625 449.3984375 l 2
 247.8984375 424.4921875 205.6640625 362.3828125 205.6640625 294.85546875 c 0
205.6640625 294.85546875 m 1024
EndSplineSet
EndChar

StartChar: uF003B
Encoding: 983099 983099 28
Width: 1000
Flags: H
LayerCount: 2
Fore
SplineSet
595.7265625 799.2734375 m 1
 526.91015625 726.6015625 557.4921875 619.546875 606.34375 557.91015625 c 0
 661.07421875 488.890625 759.47265625 430.96484375 846.30859375 480.7109375 c 1
 832.7109375 456.7109375 814.453125 434.890625 791.3984375 416.80078125 c 0
 766.91015625 397.5078125 739.91015625 386.30859375 712.1640625 380.9453125 c 1
 705.18359375 452.07421875 644.80078125 507.3828125 572.92578125 507.3828125 c 0
 560.07421875 507.3828125 547.08984375 505.5625 534.328125 502 c 2
 533.18359375 501.671875 l 1
 532.34375 502.58203125 l 2
 509 527.63671875 478.87109375 545.07421875 446.12890625 553.453125 c 1
 445.36328125 582.03515625 446.08984375 611.7265625 449.96484375 642.890625 c 0
 458.63671875 687.69140625 481.47265625 730.03515625 520.7109375 760.91015625 c 0
 543.7109375 779.03515625 569.25390625 791.671875 595.7265625 799.2734375 c 1
402.2734375 531.96484375 m 0
 443.5625 531.96484375 483.34375 514.63671875 511.4375 484.41796875 c 2
 524.109375 470.78125 l 1
 542.0546875 475.80078125 l 2
 552.2890625 478.671875 562.671875 480.12890625 572.92578125 480.12890625 c 0
 631.0546875 480.12890625 679.92578125 434.78125 684.21875 376.91015625 c 2
 685.546875 358.92578125 l 1
 701.91015625 351.3984375 l 2
 744.08984375 331.98046875 771.328125 289.4921875 771.34375 243.1640625 c 0
 771.34375 177.453125 717.96484375 124 652.34375 124 c 2
 288.19921875 124 l 2
 212.25390625 124 150.4375 185.81640625 150.4375 261.74609375 c 0
 150.4375 317.671875 185.4375 369.109375 237.52734375 389.74609375 c 2
 252.96484375 395.890625 l 1
 256.21875 412.14453125 l 2
 270.12890625 481.58203125 331.58203125 531.96484375 402.2734375 531.96484375 c 0
EndSplineSet
EndChar

StartChar: uF0059
Encoding: 983129 983129 29
Width: 1000
Flags: H
LayerCount: 2
Fore
SplineSet
687.8359375 799.19921875 m 1
 618.81640625 726.74609375 649.07421875 619.6015625 697.74609375 557.81640625 c 0
 752.25390625 488.63671875 850.4921875 430.41796875 937.453125 479.92578125 c 1
 923.80078125 455.96484375 905.47265625 434.19921875 882.36328125 416.18359375 c 0
 857.8359375 396.98046875 830.76171875 385.8359375 803.01953125 380.58203125 c 1
 802.21875 389.25390625 800.52734375 397.65625 798.1640625 405.78125 c 0
 797.87109375 406.78125 797.453125 407.7109375 797.14453125 408.7109375 c 0
 794.98046875 415.5625 792.41796875 422.21875 789.25390625 428.58203125 c 0
 788.21875 430.7265625 786.91015625 432.74609375 785.74609375 434.8359375 c 0
 783.03515625 439.63671875 780.23828125 444.30859375 777.01953125 448.7265625 c 0
 774.78125 451.85546875 772.2734375 454.7265625 769.78125 457.65625 c 0
 767.2890625 460.52734375 764.85546875 463.3828125 762.14453125 466.03515625 c 0
 758.41796875 469.76171875 754.47265625 473.12890625 750.36328125 476.3984375 c 0
 748.58203125 477.78125 746.85546875 479.18359375 745 480.4921875 c 0
 739.78125 484.2734375 734.328125 487.6171875 728.6171875 490.65625 c 0
 727.69140625 491.12890625 726.80078125 491.58203125 725.890625 492.03515625 c 0
 719.30859375 495.36328125 712.5078125 498.14453125 705.3984375 500.3984375 c 0
 705.21875 500.453125 705.01953125 500.4921875 704.85546875 500.546875 c 0
 697.2734375 502.92578125 689.4921875 504.63671875 681.41796875 505.69140625 c 1
 682.2890625 521.34375 676.7109375 540.3828125 675.21875 544.3828125 c 0
 662.87109375 577.4921875 639.2734375 604.36328125 606.96484375 622.12890625 c 0
 587.69140625 632.7265625 566.92578125 638.14453125 545.25390625 638.21875 c 0
 543.87109375 638.23828125 542.47265625 637.96484375 541.08984375 637.92578125 c 1
 541.25390625 639.69140625 541.36328125 641.453125 541.6015625 643.25390625 c 0
 550.3984375 688.03515625 573.36328125 730.30859375 612.69140625 761.07421875 c 0
 635.74609375 779.109375 661.34375 791.69140625 687.8359375 799.19921875 c 1
355.529296875 670.06640625 m 0
 373.337890625 670.641601562 391.719726562 668.3828125 410.18359375 662.890625 c 0
 439.7265625 654.109375 465.80078125 636.19921875 486.7265625 613.5625 c 2
 498.52734375 600.78125 l 1
 498.52734375 600.78125 499.34375 600.2890625 500.6015625 599.5078125 c 0
 529.23828125 613.109375 563.0546875 613.671875 593.23828125 597.08984375 c 0
 621.3828125 581.6015625 639.23828125 559.08984375 648.453125 534.3984375 c 0
 649.453125 531.7265625 653.69140625 516.30859375 652.92578125 506.6171875 c 1
 643.78125 505.91015625 634.6171875 504.6015625 625.58203125 502.109375 c 2
 624.41796875 501.78125 l 1
 623.58203125 502.69140625 l 2
 590.19921875 538.80078125 542.85546875 559.58203125 493.671875 559.7265625 c 0
 409.36328125 559.98046875 336 500.18359375 319.18359375 417.4921875 c 2
 318.98046875 416.4375 l 1
 317.96484375 416.03515625 l 2
 255 391.30859375 212.58203125 329.328125 212.3828125 261.80078125 c 0
 212.328125 244.0546875 215.14453125 226.9453125 220.2890625 210.85546875 c 1
 198.2890625 214.85546875 180.5625 219.78125 180.5625 219.78125 c 1
 115.98046875 242.5625 70.8359375 306.7109375 77.41796875 380.25390625 c 0
 82.76171875 440.01953125 124.47265625 490.4375 180.328125 512.41796875 c 2
 192.74609375 517.30859375 l 1
 196.4921875 535.63671875 l 2
 211.973632812 611.87890625 278.360351562 667.573242188 355.529296875 670.06640625 c 0
493.6171875 531.18359375 m 0
 534.890625 531.0546875 574.63671875 513.6015625 602.63671875 483.30859375 c 2
 615.25390625 469.63671875 l 1
 633.21875 474.6015625 l 2
 643.453125 477.41796875 653.85546875 478.87109375 664.109375 478.8359375 c 0
 722.23828125 478.671875 770.98046875 433.18359375 775.08984375 375.2734375 c 2
 776.36328125 357.30859375 l 1
 792.69140625 349.74609375 l 2
 834.81640625 330.18359375 861.92578125 287.63671875 861.81640625 241.30859375 c 0
 861.63671875 175.58203125 808.08984375 122.2890625 742.47265625 122.4921875 c 2
 378.328125 123.5625 l 2
 302.3828125 123.78125 240.76171875 185.78125 240.98046875 261.7109375 c 0
 241.14453125 317.63671875 276.2890625 368.96484375 328.453125 389.453125 c 2
 343.92578125 395.546875 l 1
 347.21875 411.80078125 l 2
 361.328125 481.19921875 422.92578125 531.3984375 493.6171875 531.18359375 c 0
573.2734375 83.91015625 m 1
 531.30859375 10.5078125 l 1
 582.4921875 9.7265625 l 1
 434.18359375 -192.12890625 l 1
 501.3828125 -26.14453125 l 1
 453.52734375 -26.14453125 l 1
 508.4921875 83.36328125 l 1
 573.2734375 83.91015625 l 1
685.658203125 69.736328125 m 0
 688.004882812 69.359375 690.012695312 67.6279296875 690.6015625 65.19921875 c 2
 700.6015625 24.109375 l 1
 730.65625 53.890625 l 2
 733.01953125 56.23828125 736.87109375 56.23828125 739.19921875 53.8359375 c 2
 740.07421875 52.98046875 l 2
 742.453125 50.6171875 742.3984375 46.80078125 740.07421875 44.4375 c 2
 710.07421875 14.69140625 l 1
 751.08984375 4.63671875 l 2
 754.30859375 3.85546875 756.34375 0.52734375 755.546875 -2.7109375 c 2
 755.23828125 -3.87109375 l 2
 754.453125 -7.08984375 751.14453125 -9.12890625 747.92578125 -8.30859375 c 2
 706.01953125 1.91015625 l 1
 716.25390625 -40.01953125 l 2
 717.07421875 -43.25390625 715.03515625 -46.52734375 711.74609375 -47.34375 c 2
 710.58203125 -47.6015625 l 2
 707.36328125 -48.41796875 704.0546875 -46.3984375 703.2734375 -43.1640625 c 2
 693.18359375 -2 l 1
 663.1640625 -31.85546875 l 2
 660.78125 -34.18359375 656.98046875 -34.18359375 654.6015625 -31.80078125 c 2
 653.7265625 -30.9453125 l 2
 651.41796875 -28.5625 651.41796875 -24.7265625 653.78125 -22.34375 c 2
 683.7265625 7.36328125 l 1
 642.74609375 17.3828125 l 2
 639.5078125 18.14453125 637.4375 21.41796875 638.2890625 24.7109375 c 2
 638.546875 25.87109375 l 2
 639.36328125 29.14453125 642.69140625 31.109375 645.91015625 30.328125 c 2
 687.85546875 20.08984375 l 1
 677.5625 62.01953125 l 2
 676.78125 65.21875 678.8359375 68.58203125 682.07421875 69.34375 c 2
 683.23828125 69.63671875 l 2
 684.055664062 69.8369140625 684.875976562 69.8623046875 685.658203125 69.736328125 c 0
382.85546875 67.546875 m 1
 382.85546875 67.546875 391.03515625 14.52734375 372.01953125 -22.34375 c 0
 347.96484375 -68.78125 293.07421875 -38.3984375 316.1640625 6.41796875 c 0
 335.76171875 44.5078125 382.85546875 67.546875 382.85546875 67.546875 c 1
317.765625 -73.119140625 m 0
 320.114257812 -73.49609375 322.122070312 -75.2275390625 322.7109375 -77.65625 c 2
 332.7109375 -118.74609375 l 1
 362.76171875 -88.96484375 l 2
 365.12890625 -86.6171875 368.98046875 -86.6171875 371.30859375 -89.01953125 c 2
 372.18359375 -89.87109375 l 2
 374.5625 -92.23828125 374.5078125 -96.0546875 372.18359375 -98.41796875 c 2
 342.18359375 -128.1640625 l 1
 383.19921875 -138.21875 l 2
 386.41796875 -139 388.47265625 -142.328125 387.65625 -145.5625 c 2
 387.34375 -146.7265625 l 2
 386.5625 -149.9453125 383.25390625 -151.98046875 380.03515625 -151.1640625 c 2
 338.12890625 -140.9453125 l 1
 348.36328125 -182.87109375 l 2
 349.19921875 -186.109375 347.1640625 -189.3828125 343.87109375 -190.19921875 c 2
 342.7109375 -190.453125 l 2
 339.4921875 -191.2734375 336.18359375 -189.25390625 335.3984375 -186.01953125 c 2
 325.30859375 -144.85546875 l 1
 295.2890625 -174.7109375 l 2
 292.91015625 -177.03515625 289.109375 -177.03515625 286.7265625 -174.65625 c 2
 285.85546875 -173.80078125 l 2
 283.546875 -171.41796875 283.546875 -167.58203125 285.91015625 -165.19921875 c 2
 315.85546875 -135.4921875 l 1
 274.87109375 -125.47265625 l 2
 271.63671875 -124.7109375 269.5625 -121.4375 270.41796875 -118.14453125 c 2
 270.671875 -116.98046875 l 2
 271.4921875 -113.7109375 274.81640625 -111.74609375 278.03515625 -112.52734375 c 2
 319.98046875 -122.76171875 l 1
 309.69140625 -80.8359375 l 2
 308.890625 -77.63671875 310.9453125 -74.2734375 314.18359375 -73.5078125 c 2
 315.34375 -73.21875 l 2
 316.162109375 -73.0185546875 316.982421875 -72.9931640625 317.765625 -73.119140625 c 0
682.30859375 -75.30859375 m 1
 682.30859375 -75.30859375 690.4921875 -128.328125 671.47265625 -165.19921875 c 0
 647.41796875 -211.63671875 592.52734375 -181.25390625 615.6171875 -136.4375 c 0
 635.21875 -98.34375 682.30859375 -75.30859375 682.30859375 -75.30859375 c 1
EndSplineSet
EndChar

StartChar: uF0034
Encoding: 983092 983092 30
Width: 1000
Flags: H
LayerCount: 2
Fore
SplineSet
506.19921875 633.21875 m 2
 505.78125 633.65625 505.30859375 634.01953125 504.91015625 634.47265625 c 1
 506.52734375 635.30859375 508.25390625 636.18359375 509.78125 637 c 0
 525.3828125 643.78125 541.9453125 648.74609375 559.25390625 651.453125 c 0
 574.52734375 653.87109375 590.21875 654.58203125 605.85546875 653.5078125 c 0
 661.21875 649.78125 711.8359375 624.65625 748.34375 582.80078125 c 0
 784.80078125 540.96484375 802.81640625 487.47265625 798.96484375 432.08984375 c 0
 798.4921875 424.7265625 797.453125 417.5078125 796.19921875 410.34375 c 1
 796.109375 410.6171875 795.96484375 410.85546875 795.890625 411.08984375 c 0
 784.47265625 445.96484375 760.0546875 474.85546875 728.21875 491.7265625 c 0
 727.98046875 491.87109375 727.76171875 492.03515625 727.5078125 492.18359375 c 0
 724.03515625 494 720.2890625 495.328125 716.65625 496.85546875 c 0
 713.109375 498.36328125 709.65625 500 705.98046875 501.21875 c 0
 702.80078125 502.23828125 699.453125 502.85546875 696.19921875 503.671875 c 0
 691.85546875 504.74609375 687.52734375 505.87109375 683.03515625 506.5078125 c 0
 682.12890625 506.63671875 681.328125 506.9453125 680.41796875 507.07421875 c 0
 681.25390625 525.47265625 674.0546875 544.92578125 673.96484375 545.1640625 c 0
 661.52734375 578.23828125 637.87109375 605.0546875 605.5078125 622.7265625 c 0
 586.18359375 633.2734375 565.3984375 638.6015625 543.7265625 638.6015625 c 0
 531.19921875 638.6015625 518.52734375 636.7109375 506.34375 633.07421875 c 1
 506.19921875 633.21875 l 2
481.52734375 655.7109375 m 1
 471.69140625 663.5078125 461.34375 670.1640625 450.6171875 675.8359375 c 1
 445.47265625 768.81640625 l 1
 538.76171875 677.58203125 l 1
 518.5078125 672.92578125 499.453125 665.23828125 481.52734375 655.7109375 c 1
607.85546875 683.12890625 m 0
 594.328125 684.0546875 580.78125 683.4375 567.328125 682.07421875 c 1
 626.453125 798.63671875 l 1
 661.6171875 673 l 1
 644.30859375 678.2890625 626.34375 681.890625 607.85546875 683.12890625 c 0
688.85546875 662.78125 m 1
 798.14453125 734.08984375 l 1
 765.6015625 607.65625 l 1
 743.6171875 631.34375 717.6015625 649.92578125 688.85546875 662.78125 c 1
784.19921875 585.25390625 m 1
 914.36328125 592.47265625 l 1
 823.2890625 499.41796875 l 1
 816.2734375 530.18359375 803.03515625 559.2734375 784.19921875 585.25390625 c 1
827.78125 470.5078125 m 1
 944.19921875 411.52734375 l 1
 818.36328125 376.23828125 l 1
 823.76171875 393.5078125 827.36328125 411.4921875 828.6171875 430.0546875 c 0
 829.546875 443.671875 829.109375 457.18359375 827.78125 470.5078125 c 1
827.78125 470.5078125 m 1024
211.98046875 261.18359375 m 0
 211.98046875 243.4375 214.8359375 226.328125 220.03515625 210.2734375 c 1
 198.01953125 214.21875 180.2734375 219.08984375 180.2734375 219.08984375 c 1
 115.63671875 241.69140625 70.2890625 305.69140625 76.65625 379.25390625 c 0
 81.81640625 439.03515625 123.3984375 489.58203125 179.18359375 511.7265625 c 2
 191.58203125 516.65625 l 1
 195.2734375 534.98046875 l 2
 214.0546875 628.85546875 310.03515625 691.85546875 408.6015625 662.85546875 c 0
 438.1640625 654.1640625 464.2890625 636.328125 485.2890625 613.76171875 c 2
 497.12890625 601.01953125 l 1
 497.12890625 601.01953125 497.9453125 600.546875 499.19921875 599.76171875 c 0
 527.78125 613.453125 561.6015625 614.12890625 591.8359375 597.6171875 c 0
 620.01953125 582.21875 637.9453125 559.76171875 647.23828125 535.08984375 c 0
 648.23828125 532.41796875 652.52734375 517.01953125 651.78125 507.328125 c 1
 642.63671875 506.58203125 633.47265625 505.25390625 624.453125 502.7265625 c 2
 623.2890625 502.3984375 l 1
 622.453125 503.30859375 l 2
 588.98046875 539.30859375 541.5625 559.9453125 492.3828125 559.9453125 c 0
 408.07421875 559.9453125 334.87109375 499.92578125 318.30859375 417.18359375 c 2
 318.12890625 416.12890625 l 1
 317.109375 415.7265625 l 2
 254.21875 390.81640625 211.98046875 328.7109375 211.98046875 261.18359375 c 0
792.01953125 350.8359375 m 2
 834.19921875 331.41796875 861.4375 288.9453125 861.453125 242.58203125 c 0
 861.453125 176.87109375 808.07421875 123.41796875 742.453125 123.41796875 c 2
 378.30859375 123.41796875 l 2
 302.36328125 123.41796875 240.546875 185.23828125 240.546875 261.1640625 c 0
 240.546875 317.08984375 275.546875 368.52734375 327.63671875 389.1640625 c 2
 343.08984375 395.30859375 l 1
 346.328125 411.5625 l 2
 360.23828125 481 421.69140625 531.3828125 492.3828125 531.3828125 c 0
 533.671875 531.3828125 573.453125 514.0546875 601.546875 483.8359375 c 2
 614.21875 470.19921875 l 1
 632.1640625 475.21875 l 2
 642.3984375 478.07421875 652.78125 479.546875 663.03515625 479.546875 c 0
 721.1640625 479.546875 770.03515625 434.21875 774.328125 376.30859375 c 2
 775.65625 358.36328125 l 1
 792.01953125 350.8359375 l 2
792.01953125 350.8359375 m 1024
406 4.63671875 m 2
 409.19921875 3.85546875 411.25390625 0.52734375 410.453125 -2.7109375 c 2
 410.14453125 -3.87109375 l 2
 409.36328125 -7.08984375 406.0546875 -9.12890625 402.8359375 -8.30859375 c 2
 360.92578125 1.91015625 l 1
 371.1640625 -40.01953125 l 2
 372 -43.25390625 369.96484375 -46.52734375 366.671875 -47.34375 c 2
 365.5078125 -47.6015625 l 2
 362.2890625 -48.41796875 358.98046875 -46.3984375 358.19921875 -43.1640625 c 2
 348.109375 -2 l 1
 318.08984375 -31.85546875 l 2
 315.7109375 -34.18359375 311.91015625 -34.18359375 309.52734375 -31.80078125 c 2
 308.65625 -30.9453125 l 2
 306.34375 -28.5625 306.34375 -24.7265625 308.7109375 -22.34375 c 2
 338.65625 7.36328125 l 1
 297.671875 17.3828125 l 2
 294.4375 18.14453125 292.36328125 21.41796875 293.21875 24.7109375 c 2
 293.47265625 25.87109375 l 2
 294.2890625 29.14453125 297.6171875 31.109375 300.8359375 30.328125 c 2
 342.78125 20.08984375 l 1
 332.4921875 62.01953125 l 2
 331.69140625 65.21875 333.74609375 68.58203125 336.98046875 69.34375 c 2
 338.14453125 69.63671875 l 2
 341.41796875 70.4375 344.7265625 68.4375 345.5078125 65.19921875 c 2
 355.5078125 24.109375 l 1
 385.5625 53.890625 l 2
 387.92578125 56.23828125 391.78125 56.23828125 394.109375 53.8359375 c 2
 394.98046875 52.98046875 l 2
 397.36328125 50.6171875 397.30859375 46.80078125 394.98046875 44.4375 c 2
 364.98046875 14.69140625 l 1
 406 4.63671875 l 2
300.5625 -138.21875 m 2
 303.78125 -139 305.81640625 -142.328125 305.01953125 -145.5625 c 2
 304.7109375 -146.7265625 l 2
 303.92578125 -149.9453125 300.6171875 -151.98046875 297.3984375 -151.1640625 c 2
 255.4921875 -140.9453125 l 1
 265.7265625 -182.87109375 l 2
 266.546875 -186.109375 264.5078125 -189.3828125 261.21875 -190.19921875 c 2
 260.0546875 -190.453125 l 2
 256.8359375 -191.2734375 253.52734375 -189.25390625 252.74609375 -186.01953125 c 2
 242.65625 -144.85546875 l 1
 212.63671875 -174.7109375 l 2
 210.25390625 -177.03515625 206.453125 -177.03515625 204.07421875 -174.65625 c 2
 203.19921875 -173.80078125 l 2
 200.890625 -171.41796875 200.890625 -167.58203125 203.25390625 -165.19921875 c 2
 233.19921875 -135.4921875 l 1
 192.21875 -125.47265625 l 2
 188.98046875 -124.7109375 186.91015625 -121.4375 187.76171875 -118.14453125 c 2
 188.01953125 -116.98046875 l 2
 188.8359375 -113.7109375 192.1640625 -111.74609375 195.3828125 -112.52734375 c 2
 237.328125 -122.76171875 l 1
 227.03515625 -80.8359375 l 2
 226.25390625 -77.63671875 228.30859375 -74.2734375 231.546875 -73.5078125 c 2
 232.7109375 -73.21875 l 2
 235.98046875 -72.41796875 239.2890625 -74.41796875 240.07421875 -77.65625 c 2
 250.07421875 -118.74609375 l 1
 280.12890625 -88.96484375 l 2
 282.4921875 -86.6171875 286.34375 -86.6171875 288.671875 -89.01953125 c 2
 289.546875 -89.87109375 l 2
 291.92578125 -92.23828125 291.87109375 -96.0546875 289.546875 -98.41796875 c 2
 259.546875 -128.1640625 l 1
 300.5625 -138.21875 l 2
578 -138.21875 m 2
 581.21875 -139 583.25390625 -142.328125 582.4375 -145.5625 c 2
 582.12890625 -146.7265625 l 2
 581.34375 -149.9453125 578.03515625 -151.98046875 574.81640625 -151.1640625 c 2
 532.91015625 -140.9453125 l 1
 543.14453125 -182.87109375 l 2
 543.98046875 -186.109375 541.9453125 -189.3828125 538.65625 -190.19921875 c 2
 537.4921875 -190.453125 l 2
 534.2734375 -191.2734375 530.96484375 -189.25390625 530.18359375 -186.01953125 c 2
 520.08984375 -144.85546875 l 1
 490.07421875 -174.7109375 l 2
 487.69140625 -177.03515625 483.890625 -177.03515625 481.5078125 -174.65625 c 2
 480.63671875 -173.80078125 l 2
 478.328125 -171.41796875 478.328125 -167.58203125 480.69140625 -165.19921875 c 2
 510.63671875 -135.4921875 l 1
 469.65625 -125.47265625 l 2
 466.41796875 -124.7109375 464.34375 -121.4375 465.19921875 -118.14453125 c 2
 465.453125 -116.98046875 l 2
 466.2734375 -113.7109375 469.6015625 -111.74609375 472.81640625 -112.52734375 c 2
 514.76171875 -122.76171875 l 1
 504.47265625 -80.8359375 l 2
 503.69140625 -77.63671875 505.74609375 -74.2734375 508.98046875 -73.5078125 c 2
 510.14453125 -73.21875 l 2
 513.41796875 -72.41796875 516.7265625 -74.41796875 517.5078125 -77.65625 c 2
 527.5078125 -118.74609375 l 1
 557.5625 -88.96484375 l 2
 559.92578125 -86.6171875 563.78125 -86.6171875 566.109375 -89.01953125 c 2
 566.98046875 -89.87109375 l 2
 569.36328125 -92.23828125 569.30859375 -96.0546875 566.98046875 -98.41796875 c 2
 536.98046875 -128.1640625 l 1
 578 -138.21875 l 2
685.76171875 4.63671875 m 2
 688.96484375 3.85546875 691.01953125 0.52734375 690.19921875 -2.7109375 c 2
 689.890625 -3.87109375 l 2
 689.109375 -7.08984375 685.80078125 -9.12890625 682.58203125 -8.30859375 c 2
 640.671875 1.91015625 l 1
 650.91015625 -40.01953125 l 2
 651.74609375 -43.25390625 649.7109375 -46.52734375 646.41796875 -47.34375 c 2
 645.25390625 -47.6015625 l 2
 642.03515625 -48.41796875 638.7265625 -46.3984375 637.9453125 -43.1640625 c 2
 627.85546875 -2 l 1
 597.8359375 -31.85546875 l 2
 595.453125 -34.18359375 591.65625 -34.18359375 589.2734375 -31.80078125 c 2
 588.3984375 -30.9453125 l 2
 586.08984375 -28.5625 586.08984375 -24.7265625 588.453125 -22.34375 c 2
 618.3984375 7.36328125 l 1
 577.41796875 17.3828125 l 2
 574.18359375 18.14453125 572.109375 21.41796875 572.96484375 24.7109375 c 2
 573.21875 25.87109375 l 2
 574.03515625 29.14453125 577.36328125 31.109375 580.58203125 30.328125 c 2
 622.52734375 20.08984375 l 1
 612.23828125 62.01953125 l 2
 611.453125 65.21875 613.5078125 68.58203125 616.74609375 69.34375 c 2
 617.91015625 69.63671875 l 2
 621.18359375 70.4375 624.4921875 68.4375 625.2734375 65.19921875 c 2
 635.2734375 24.109375 l 1
 665.328125 53.890625 l 2
 667.69140625 56.23828125 671.546875 56.23828125 673.87109375 53.8359375 c 2
 674.74609375 52.98046875 l 2
 677.12890625 50.6171875 677.07421875 46.80078125 674.74609375 44.4375 c 2
 644.74609375 14.69140625 l 1
 685.76171875 4.63671875 l 2
685.76171875 4.63671875 m 1024
EndSplineSet
EndChar

StartChar: uF003C
Encoding: 983100 983100 31
Width: 1000
Flags: H
LayerCount: 2
Fore
SplineSet
595.7265625 799.2734375 m 1
 526.91015625 726.6015625 557.4921875 619.546875 606.34375 557.91015625 c 0
 661.07421875 488.890625 759.47265625 430.96484375 846.30859375 480.7109375 c 1
 832.7109375 456.7109375 814.453125 434.890625 791.3984375 416.80078125 c 0
 766.91015625 397.5078125 739.91015625 386.30859375 712.1640625 380.9453125 c 1
 705.18359375 452.07421875 644.80078125 507.3828125 572.92578125 507.3828125 c 0
 560.07421875 507.3828125 547.08984375 505.5625 534.328125 502 c 2
 533.18359375 501.671875 l 1
 532.34375 502.58203125 l 2
 509 527.63671875 478.87109375 545.07421875 446.12890625 553.453125 c 1
 445.36328125 582.03515625 446.08984375 611.7265625 449.96484375 642.890625 c 0
 458.63671875 687.69140625 481.47265625 730.03515625 520.7109375 760.91015625 c 0
 543.7109375 779.03515625 569.25390625 791.671875 595.7265625 799.2734375 c 1
402.2734375 531.96484375 m 0
 443.5625 531.96484375 483.34375 514.63671875 511.4375 484.41796875 c 2
 524.109375 470.78125 l 1
 542.0546875 475.80078125 l 2
 552.2890625 478.671875 562.671875 480.12890625 572.92578125 480.12890625 c 0
 631.0546875 480.12890625 679.92578125 434.78125 684.21875 376.91015625 c 2
 685.546875 358.92578125 l 1
 701.91015625 351.3984375 l 2
 744.08984375 331.98046875 771.328125 289.4921875 771.34375 243.1640625 c 0
 771.34375 177.453125 717.96484375 124 652.34375 124 c 2
 288.19921875 124 l 2
 212.25390625 124 150.4375 185.81640625 150.4375 261.74609375 c 0
 150.4375 317.671875 185.4375 369.109375 237.52734375 389.74609375 c 2
 252.96484375 395.890625 l 1
 256.21875 412.14453125 l 2
 270.12890625 481.58203125 331.58203125 531.96484375 402.2734375 531.96484375 c 0
368.3828125 67.546875 m 1
 368.3828125 67.546875 376.5625 14.52734375 357.546875 -22.34375 c 0
 333.4921875 -68.78125 278.6015625 -38.3984375 301.69140625 6.41796875 c 0
 321.2890625 44.5078125 368.3828125 67.546875 368.3828125 67.546875 c 1
608.58203125 67.546875 m 1
 608.58203125 67.546875 616.76171875 14.52734375 597.74609375 -22.34375 c 0
 573.69140625 -68.78125 518.80078125 -38.3984375 541.890625 6.41796875 c 0
 561.4921875 44.5078125 608.58203125 67.546875 608.58203125 67.546875 c 1
EndSplineSet
EndChar

StartChar: uF0046
Encoding: 983110 983110 32
Width: 1000
Flags: H
LayerCount: 2
Fore
SplineSet
595.7265625 799.2734375 m 1
 526.91015625 726.6015625 557.4921875 619.546875 606.34375 557.91015625 c 0
 661.07421875 488.890625 759.47265625 430.96484375 846.30859375 480.7109375 c 1
 832.7109375 456.7109375 814.453125 434.890625 791.3984375 416.80078125 c 0
 766.91015625 397.5078125 739.91015625 386.30859375 712.1640625 380.9453125 c 1
 705.18359375 452.07421875 644.80078125 507.3828125 572.92578125 507.3828125 c 0
 560.07421875 507.3828125 547.08984375 505.5625 534.328125 502 c 2
 533.18359375 501.671875 l 1
 532.34375 502.58203125 l 2
 509 527.63671875 478.87109375 545.07421875 446.12890625 553.453125 c 1
 445.36328125 582.03515625 446.08984375 611.7265625 449.96484375 642.890625 c 0
 458.63671875 687.69140625 481.47265625 730.03515625 520.7109375 760.91015625 c 0
 543.7109375 779.03515625 569.25390625 791.671875 595.7265625 799.2734375 c 1
402.2734375 531.96484375 m 0
 443.5625 531.96484375 483.34375 514.63671875 511.4375 484.41796875 c 2
 524.109375 470.78125 l 1
 542.0546875 475.80078125 l 2
 552.2890625 478.671875 562.671875 480.12890625 572.92578125 480.12890625 c 0
 631.0546875 480.12890625 679.92578125 434.78125 684.21875 376.91015625 c 2
 685.546875 358.92578125 l 1
 701.91015625 351.3984375 l 2
 744.08984375 331.98046875 771.328125 289.4921875 771.34375 243.1640625 c 0
 771.34375 177.453125 717.96484375 124 652.34375 124 c 2
 288.19921875 124 l 2
 212.25390625 124 150.4375 185.81640625 150.4375 261.74609375 c 0
 150.4375 317.671875 185.4375 369.109375 237.52734375 389.74609375 c 2
 252.96484375 395.890625 l 1
 256.21875 412.14453125 l 2
 270.12890625 481.58203125 331.58203125 531.96484375 402.2734375 531.96484375 c 0
441.34765625 67.771484375 m 0
 443.6953125 67.3955078125 445.703125 65.6640625 446.2890625 63.23828125 c 2
 456.2890625 22.14453125 l 1
 486.34375 51.92578125 l 2
 488.7109375 54.2734375 492.5625 54.2734375 494.890625 51.87109375 c 2
 495.76171875 51.01953125 l 2
 498.14453125 48.65625 498.08984375 44.8359375 495.76171875 42.47265625 c 2
 465.76171875 12.7265625 l 1
 506.78125 2.671875 l 2
 510 1.87109375 512.03515625 -1.453125 511.21875 -4.671875 c 2
 510.91015625 -5.8359375 l 2
 510.12890625 -9.0546875 506.81640625 -11.08984375 503.6015625 -10.2734375 c 2
 461.69140625 -0.0546875 l 1
 471.92578125 -41.98046875 l 2
 472.76171875 -45.21875 470.7265625 -48.4921875 467.4375 -49.30859375 c 2
 466.2734375 -49.5625 l 2
 463.0546875 -50.3828125 459.74609375 -48.36328125 458.96484375 -45.12890625 c 2
 448.87109375 -3.96484375 l 1
 418.85546875 -33.81640625 l 2
 416.47265625 -36.14453125 412.671875 -36.14453125 410.2890625 -33.76171875 c 2
 409.41796875 -32.91015625 l 2
 407.109375 -30.52734375 407.109375 -26.69140625 409.47265625 -24.30859375 c 2
 439.41796875 5.3984375 l 1
 398.4375 15.41796875 l 2
 395.19921875 16.18359375 393.12890625 19.453125 393.98046875 22.74609375 c 2
 394.23828125 23.91015625 l 2
 395.0546875 27.18359375 398.3828125 29.14453125 401.6015625 28.36328125 c 2
 443.546875 18.12890625 l 1
 433.25390625 60.0546875 l 2
 432.47265625 63.25390625 434.52734375 66.6171875 437.76171875 67.3828125 c 2
 438.92578125 67.671875 l 2
 439.744140625 67.8720703125 440.564453125 67.896484375 441.34765625 67.771484375 c 0
303.5625 67.546875 m 1
 303.5625 67.546875 311.76171875 14.52734375 292.7265625 -22.34375 c 0
 268.671875 -68.78125 213.78125 -38.3984375 236.87109375 6.41796875 c 0
 256.47265625 44.5078125 303.5625 67.546875 303.5625 67.546875 c 1
672.109375 67.546875 m 1
 672.109375 67.546875 680.2890625 14.52734375 661.2734375 -22.34375 c 0
 637.21875 -68.78125 582.328125 -38.3984375 605.41796875 6.41796875 c 0
 625.01953125 44.5078125 672.109375 67.546875 672.109375 67.546875 c 1
201.3671875 -74.517578125 m 0
 203.71484375 -74.8935546875 205.72265625 -76.6259765625 206.30859375 -79.0546875 c 2
 216.30859375 -120.14453125 l 1
 246.36328125 -90.36328125 l 2
 248.7265625 -88.01953125 252.58203125 -88.01953125 254.91015625 -90.41796875 c 2
 255.78125 -91.2734375 l 2
 258.1640625 -93.63671875 258.109375 -97.453125 255.78125 -99.81640625 c 2
 225.78125 -129.5625 l 1
 266.80078125 -139.6171875 l 2
 270.01953125 -140.3984375 272.0546875 -143.74609375 271.25390625 -146.96484375 c 2
 270.9453125 -148.12890625 l 2
 270.1640625 -151.34375 266.85546875 -153.3828125 263.63671875 -152.5625 c 2
 221.7265625 -142.34375 l 1
 231.96484375 -184.2734375 l 2
 232.80078125 -187.5078125 230.76171875 -190.78125 227.47265625 -191.6015625 c 2
 226.30859375 -191.85546875 l 2
 223.08984375 -192.671875 219.78125 -190.65625 219 -187.41796875 c 2
 208.91015625 -146.25390625 l 1
 178.890625 -176.109375 l 2
 176.5078125 -178.4375 172.7109375 -178.4375 170.328125 -176.0546875 c 2
 169.453125 -175.19921875 l 2
 167.14453125 -172.81640625 167.14453125 -168.98046875 169.5078125 -166.6015625 c 2
 199.453125 -136.890625 l 1
 158.47265625 -126.87109375 l 2
 155.23828125 -126.109375 153.1640625 -122.8359375 154.01953125 -119.546875 c 2
 154.2734375 -118.3828125 l 2
 155.08984375 -115.109375 158.41796875 -113.14453125 161.63671875 -113.92578125 c 2
 203.58203125 -124.1640625 l 1
 193.2890625 -82.23828125 l 2
 192.4921875 -79.03515625 194.546875 -75.671875 197.78125 -74.91015625 c 2
 198.9453125 -74.6171875 l 2
 199.763671875 -74.4169921875 200.583984375 -74.392578125 201.3671875 -74.517578125 c 0
569.89453125 -74.517578125 m 0
 572.2421875 -74.8935546875 574.25 -76.6259765625 574.8359375 -79.0546875 c 2
 584.8359375 -120.14453125 l 1
 614.890625 -90.36328125 l 2
 617.25390625 -88.01953125 621.109375 -88.01953125 623.4375 -90.41796875 c 2
 624.30859375 -91.2734375 l 2
 626.69140625 -93.63671875 626.63671875 -97.453125 624.30859375 -99.81640625 c 2
 594.30859375 -129.5625 l 1
 635.328125 -139.6171875 l 2
 638.546875 -140.3984375 640.6015625 -143.74609375 639.76171875 -146.96484375 c 2
 639.453125 -148.12890625 l 2
 638.671875 -151.34375 635.36328125 -153.3828125 632.14453125 -152.5625 c 2
 590.23828125 -142.34375 l 1
 600.47265625 -184.2734375 l 2
 601.30859375 -187.5078125 599.2734375 -190.78125 595.98046875 -191.6015625 c 2
 594.81640625 -191.85546875 l 2
 591.6015625 -192.671875 588.2890625 -190.65625 587.5078125 -187.41796875 c 2
 577.41796875 -146.25390625 l 1
 547.3984375 -176.109375 l 2
 545.01953125 -178.4375 541.21875 -178.4375 538.8359375 -176.0546875 c 2
 537.96484375 -175.19921875 l 2
 535.65625 -172.81640625 535.65625 -168.98046875 538.01953125 -166.6015625 c 2
 567.96484375 -136.890625 l 1
 526.98046875 -126.87109375 l 2
 523.74609375 -126.109375 521.671875 -122.8359375 522.52734375 -119.546875 c 2
 522.78125 -118.3828125 l 2
 523.6015625 -115.109375 526.92578125 -113.14453125 530.14453125 -113.92578125 c 2
 572.08984375 -124.1640625 l 1
 561.80078125 -82.23828125 l 2
 561.01953125 -79.03515625 563.07421875 -75.671875 566.30859375 -74.91015625 c 2
 567.47265625 -74.6171875 l 2
 568.291015625 -74.4169921875 569.112304688 -74.392578125 569.89453125 -74.517578125 c 0
432.12890625 -76.7109375 m 1
 432.12890625 -76.7109375 440.328125 -129.7265625 421.2890625 -166.6015625 c 0
 397.23828125 -213.03515625 342.34375 -182.65625 365.4375 -137.8359375 c 0
 385.03515625 -99.74609375 432.12890625 -76.7109375 432.12890625 -76.7109375 c 1
EndSplineSet
EndChar

StartChar: uF006D
Encoding: 983149 983149 33
Width: 1000
Flags: H
LayerCount: 2
Fore
SplineSet
562.4453125 794.4375 m 0
 671.53515625 794.4375 760.30078125 708.47265625 765.35546875 600.6171875 c 1
 856.08203125 582.85546875 924.5703125 503 924.58984375 407.08984375 c 0
 924.58984375 361.4921875 908.97265625 319.63671875 882.98828125 286.23828125 c 1
 879.31640625 339.7109375 846.8984375 387.80078125 797.6796875 410.47265625 c 2
 796.609375 410.96484375 l 1
 796.515625 412.12890625 l 2
 791.98828125 473.19921875 747.7734375 522.69140625 690.53515625 537.12890625 c 1
 689.7890625 544.25390625 l 2
 684.6640625 594.328125 649.5703125 640.14453125 598.19140625 663.890625 c 0
 575.7734375 674.21875 551.390625 679.671875 527.6796875 679.671875 c 0
 509.828125 679.671875 492.515625 676.65625 476.6640625 670.81640625 c 1
 453.37109375 690.0546875 426.6640625 703.65625 398.42578125 710.98046875 c 1
 435.4453125 761.4921875 495.0078125 794.4375 562.4453125 794.4375 c 0
349.517578125 688.732421875 m 0
 391.702148438 688.814453125 432.620117188 672.180664062 464.0625 644 c 0
 466.58984375 641.74609375 468.84375 639.30859375 471.15234375 636.92578125 c 0
 502.5546875 654.69140625 545.828125 656.58203125 586.2265625 637.9453125 c 0
 629.80859375 617.81640625 657.46484375 579.65625 661.37109375 541.328125 c 1
 659.80859375 541.3984375 658.31640625 541.78125 656.75390625 541.78125 c 0
 643.8984375 541.78125 630.8984375 539.96484375 618.15234375 536.3984375 c 2
 616.98828125 536.07421875 l 1
 616.15234375 536.98046875 l 2
 582.6796875 572.98046875 535.26171875 593.6171875 486.08203125 593.6171875 c 0
 401.7734375 593.6171875 328.5703125 533.6015625 312.0078125 450.85546875 c 2
 311.7890625 449.80078125 l 1
 310.7890625 449.3984375 l 2
 247.8984375 424.4921875 205.6640625 362.3828125 205.6640625 294.85546875 c 0
 205.6640625 277.08984375 208.515625 260 213.71875 243.92578125 c 1
 209.1171875 243.91015625 206.09765625 243.91015625 205.8828125 243.92578125 c 0
 127.390625 254.7109375 67.953125 325.9453125 76.4453125 409.01953125 c 0
 82.30078125 466.5625 123.390625 514.52734375 177.13671875 535.85546875 c 2
 186.828125 539.69140625 l 2
 187.5 539.9453125 187.97265625 540.52734375 188.1171875 541.23828125 c 2
 190.0625 550.98046875 l 2
 199.98828125 600.5625 229.48046875 645.3984375 273.98828125 669.41796875 c 0
 298.439453125 682.618164062 324.20703125 688.68359375 349.517578125 688.732421875 c 0
486.0625 565.07421875 m 0
 527.35546875 565.07421875 567.13671875 547.74609375 595.2265625 517.52734375 c 2
 607.8984375 503.890625 l 1
 625.84375 508.91015625 l 2
 636.08203125 511.78125 646.46484375 513.23828125 656.71875 513.23828125 c 0
 714.84375 513.23828125 763.71875 467.890625 768.0078125 410.01953125 c 2
 769.3359375 392.03515625 l 1
 785.69921875 384.5078125 l 2
 827.8984375 365.07421875 855.13671875 322.6015625 855.13671875 276.2734375 c 0
 855.13671875 210.5625 801.75390625 157.109375 736.13671875 157.109375 c 2
 371.98828125 157.109375 l 2
 296.04296875 157.109375 234.2265625 218.92578125 234.2265625 294.85546875 c 0
 234.2265625 350.78125 269.2265625 402.21875 321.31640625 422.85546875 c 2
 336.7734375 429 l 1
 340.0078125 445.25390625 l 2
 353.91796875 514.69140625 415.37109375 565.07421875 486.0625 565.07421875 c 0
652.09375 106.099609375 m 0
 654.442382812 105.72265625 656.44921875 103.991210938 657.03515625 101.5625 c 2
 667.03515625 60.47265625 l 1
 697.08984375 90.25390625 l 2
 699.453125 92.6015625 703.30859375 92.6015625 705.63671875 90.19921875 c 2
 706.5078125 89.34375 l 2
 708.890625 86.98046875 708.8359375 83.1640625 706.5078125 80.80078125 c 2
 676.5078125 51.0546875 l 1
 717.52734375 41 l 2
 720.74609375 40.21875 722.78125 36.890625 721.96484375 33.65625 c 2
 721.65625 32.4921875 l 2
 720.87109375 29.2734375 717.5625 27.23828125 714.34375 28.0546875 c 2
 672.4375 38.2734375 l 1
 682.671875 -3.65625 l 2
 683.5078125 -6.890625 681.47265625 -10.1640625 678.18359375 -10.98046875 c 2
 677.01953125 -11.23828125 l 2
 673.80078125 -12.0546875 670.4921875 -10.03515625 669.7109375 -6.80078125 c 2
 659.6171875 34.36328125 l 1
 629.6015625 4.5078125 l 2
 627.21875 2.18359375 623.41796875 2.18359375 621.03515625 4.5625 c 2
 620.1640625 5.41796875 l 2
 617.85546875 7.80078125 617.85546875 11.63671875 620.21875 14.01953125 c 2
 650.1640625 43.7265625 l 1
 609.18359375 53.74609375 l 2
 605.9453125 54.5078125 603.87109375 57.78125 604.7265625 61.07421875 c 2
 604.98046875 62.23828125 l 2
 605.80078125 65.5078125 609.12890625 67.47265625 612.34375 66.69140625 c 2
 654.2890625 56.453125 l 1
 644 98.3828125 l 2
 643.21875 101.58203125 645.2734375 104.9453125 648.5078125 105.7109375 c 2
 649.671875 106 l 2
 650.490234375 106.200195312 651.310546875 106.225585938 652.09375 106.099609375 c 0
421.34375 103.91015625 m 1
 421.34375 103.91015625 429.52734375 50.890625 410.5078125 14.01953125 c 0
 386.453125 -32.41796875 331.5625 -2.03515625 354.65625 42.78125 c 0
 374.25390625 80.87109375 421.34375 103.91015625 421.34375 103.91015625 c 1
281.912109375 -36.755859375 m 0
 284.259765625 -37.1318359375 286.26953125 -38.86328125 286.85546875 -41.2890625 c 2
 296.85546875 -82.3828125 l 1
 326.91015625 -52.6015625 l 2
 329.2734375 -50.25390625 333.12890625 -50.25390625 335.453125 -52.65625 c 2
 336.328125 -53.5078125 l 2
 338.7109375 -55.87109375 338.65625 -59.69140625 336.328125 -62.0546875 c 2
 306.328125 -91.80078125 l 1
 347.34375 -101.85546875 l 2
 350.5625 -102.63671875 352.6015625 -105.96484375 351.78125 -109.19921875 c 2
 351.47265625 -110.36328125 l 2
 350.69140625 -113.58203125 347.3828125 -115.6171875 344.1640625 -114.80078125 c 2
 302.25390625 -104.58203125 l 1
 312.4921875 -146.5078125 l 2
 313.328125 -149.74609375 311.2890625 -153.01953125 308 -153.8359375 c 2
 306.8359375 -154.08984375 l 2
 303.6171875 -154.91015625 300.30859375 -152.890625 299.52734375 -149.65625 c 2
 289.4375 -108.4921875 l 1
 259.41796875 -138.34375 l 2
 257.03515625 -140.671875 253.23828125 -140.671875 250.85546875 -138.2890625 c 2
 249.98046875 -137.4375 l 2
 247.671875 -135.0546875 247.671875 -131.21875 250.03515625 -128.8359375 c 2
 279.98046875 -99.12890625 l 1
 239 -89.109375 l 2
 235.76171875 -88.34375 233.69140625 -85.07421875 234.546875 -81.78125 c 2
 234.80078125 -80.6171875 l 2
 235.6171875 -77.34375 238.9453125 -75.3828125 242.1640625 -76.1640625 c 2
 284.109375 -86.3984375 l 1
 273.81640625 -44.47265625 l 2
 273.03515625 -41.2734375 275.08984375 -37.91015625 278.328125 -37.14453125 c 2
 279.4921875 -36.85546875 l 2
 280.309570312 -36.6552734375 281.129882812 -36.630859375 281.912109375 -36.755859375 c 0
575.80078125 -38.9453125 m 1
 575.80078125 -38.9453125 583.98046875 -91.96484375 564.96484375 -128.8359375 c 0
 540.91015625 -175.2734375 486.01953125 -144.890625 509.109375 -100.07421875 c 0
 528.7109375 -61.98046875 575.80078125 -38.9453125 575.80078125 -38.9453125 c 1
EndSplineSet
EndChar

StartChar: uF007B
Encoding: 983163 983163 34
Width: 1000
Flags: H
LayerCount: 2
Fore
SplineSet
669.890625 14.01953125 m 0
 645.8359375 -32.41796875 590.9453125 -2.03515625 614.03515625 42.78125 c 0
 633.63671875 80.87109375 680.7265625 103.91015625 680.7265625 103.91015625 c 1
 680.7265625 103.91015625 688.91015625 50.890625 669.890625 14.01953125 c 0
542.69140625 -124.328125 m 0
 518.63671875 -170.76171875 463.74609375 -140.3828125 486.8359375 -95.5625 c 0
 506.4375 -57.47265625 553.52734375 -34.4375 553.52734375 -34.4375 c 1
 553.52734375 -34.4375 561.7109375 -87.4375 542.69140625 -124.328125 c 0
429.92578125 14.01953125 m 0
 405.87109375 -32.41796875 350.98046875 -2.03515625 374.07421875 42.78125 c 0
 393.671875 80.87109375 440.76171875 103.91015625 440.76171875 103.91015625 c 1
 440.76171875 103.91015625 448.9453125 50.890625 429.92578125 14.01953125 c 0
305.92578125 -124.328125 m 0
 281.87109375 -170.76171875 226.98046875 -140.3828125 250.07421875 -95.5625 c 0
 269.671875 -57.47265625 316.76171875 -34.4375 316.76171875 -34.4375 c 1
 316.76171875 -34.4375 324.96484375 -87.4375 305.92578125 -124.328125 c 0
305.92578125 -124.328125 m 1024
187.091796875 591.633789062 m 1
 187.091796875 566.178710938 l 1
 895.418945312 566.178710938 l 1
 895.418945312 591.633789062 l 1
 187.091796875 591.633789062 l 1
82.9189453125 776.541015625 m 1
 82.9189453125 751.086914062 l 1
 791.24609375 751.086914062 l 1
 791.24609375 776.541015625 l 1
 82.9189453125 776.541015625 l 1
212.53515625 498.220703125 m 1
 212.53515625 472.766601562 l 1
 924.0234375 472.766601562 l 1
 924.0234375 498.220703125 l 1
 212.53515625 498.220703125 l 1
110.19140625 683.767578125 m 1
 110.19140625 658.313476562 l 1
 821.6796875 658.313476562 l 1
 821.6796875 683.767578125 l 1
 110.19140625 683.767578125 l 1
177.485351562 219.8828125 m 1
 177.485351562 194.428710938 l 1
 885.813476562 194.428710938 l 1
 885.813476562 219.8828125 l 1
 177.485351562 219.8828125 l 1
82.9189453125 405.4296875 m 1
 82.9189453125 379.975585938 l 1
 791.24609375 379.975585938 l 1
 791.24609375 405.4296875 l 1
 82.9189453125 405.4296875 l 1
110.19140625 312.673828125 m 1
 110.19140625 287.219726562 l 1
 821.6796875 287.219726562 l 1
 821.6796875 312.673828125 l 1
 110.19140625 312.673828125 l 1
EndSplineSet
EndChar

StartChar: uF002B
Encoding: 983083 983083 35
Width: 1000
Flags: H
LayerCount: 2
Fore
SplineSet
506.19921875 633.21875 m 2
 505.78125 633.65625 505.30859375 634.01953125 504.91015625 634.47265625 c 1
 506.52734375 635.30859375 508.25390625 636.18359375 509.78125 637 c 0
 525.3828125 643.78125 541.9453125 648.74609375 559.25390625 651.453125 c 0
 574.52734375 653.87109375 590.21875 654.58203125 605.85546875 653.5078125 c 0
 661.21875 649.78125 711.8359375 624.65625 748.34375 582.80078125 c 0
 784.80078125 540.96484375 802.81640625 487.47265625 798.96484375 432.08984375 c 0
 798.4921875 424.7265625 797.453125 417.5078125 796.19921875 410.34375 c 1
 796.109375 410.6171875 795.96484375 410.85546875 795.890625 411.08984375 c 0
 784.47265625 445.96484375 760.0546875 474.85546875 728.21875 491.7265625 c 0
 727.98046875 491.87109375 727.76171875 492.03515625 727.5078125 492.18359375 c 0
 724.03515625 494 720.2890625 495.328125 716.65625 496.85546875 c 0
 713.109375 498.36328125 709.65625 500 705.98046875 501.21875 c 0
 702.80078125 502.23828125 699.453125 502.85546875 696.19921875 503.671875 c 0
 691.85546875 504.74609375 687.52734375 505.87109375 683.03515625 506.5078125 c 0
 682.12890625 506.63671875 681.328125 506.9453125 680.41796875 507.07421875 c 0
 681.25390625 525.47265625 674.0546875 544.92578125 673.96484375 545.1640625 c 0
 661.52734375 578.23828125 637.87109375 605.0546875 605.5078125 622.7265625 c 0
 586.18359375 633.2734375 565.3984375 638.6015625 543.7265625 638.6015625 c 0
 531.19921875 638.6015625 518.52734375 636.7109375 506.34375 633.07421875 c 1
 506.19921875 633.21875 l 2
481.52734375 655.7109375 m 1
 471.69140625 663.5078125 461.34375 670.1640625 450.6171875 675.8359375 c 1
 445.47265625 768.81640625 l 1
 538.76171875 677.58203125 l 1
 518.5078125 672.92578125 499.453125 665.23828125 481.52734375 655.7109375 c 1
607.85546875 683.12890625 m 0
 594.328125 684.0546875 580.78125 683.4375 567.328125 682.07421875 c 1
 626.453125 798.63671875 l 1
 661.6171875 673 l 1
 644.30859375 678.2890625 626.34375 681.890625 607.85546875 683.12890625 c 0
688.85546875 662.78125 m 1
 798.14453125 734.08984375 l 1
 765.6015625 607.65625 l 1
 743.6171875 631.34375 717.6015625 649.92578125 688.85546875 662.78125 c 1
784.19921875 585.25390625 m 1
 914.36328125 592.47265625 l 1
 823.2890625 499.41796875 l 1
 816.2734375 530.18359375 803.03515625 559.2734375 784.19921875 585.25390625 c 1
827.78125 470.5078125 m 1
 944.19921875 411.52734375 l 1
 818.36328125 376.23828125 l 1
 823.76171875 393.5078125 827.36328125 411.4921875 828.6171875 430.0546875 c 0
 829.546875 443.671875 829.109375 457.18359375 827.78125 470.5078125 c 1
827.78125 470.5078125 m 1024
211.98046875 261.18359375 m 0
 211.98046875 243.4375 214.8359375 226.328125 220.03515625 210.2734375 c 1
 198.01953125 214.21875 180.2734375 219.08984375 180.2734375 219.08984375 c 1
 115.63671875 241.69140625 70.2890625 305.69140625 76.65625 379.25390625 c 0
 81.81640625 439.03515625 123.3984375 489.58203125 179.18359375 511.7265625 c 2
 191.58203125 516.65625 l 1
 195.2734375 534.98046875 l 2
 214.0546875 628.85546875 310.03515625 691.85546875 408.6015625 662.85546875 c 0
 438.1640625 654.1640625 464.2890625 636.328125 485.2890625 613.76171875 c 2
 497.12890625 601.01953125 l 1
 497.12890625 601.01953125 497.9453125 600.546875 499.19921875 599.76171875 c 0
 527.78125 613.453125 561.6015625 614.12890625 591.8359375 597.6171875 c 0
 620.01953125 582.21875 637.9453125 559.76171875 647.23828125 535.08984375 c 0
 648.23828125 532.41796875 652.52734375 517.01953125 651.78125 507.328125 c 1
 642.63671875 506.58203125 633.47265625 505.25390625 624.453125 502.7265625 c 2
 623.2890625 502.3984375 l 1
 622.453125 503.30859375 l 2
 588.98046875 539.30859375 541.5625 559.9453125 492.3828125 559.9453125 c 0
 408.07421875 559.9453125 334.87109375 499.92578125 318.30859375 417.18359375 c 2
 318.12890625 416.12890625 l 1
 317.109375 415.7265625 l 2
 254.21875 390.81640625 211.98046875 328.7109375 211.98046875 261.18359375 c 0
792.01953125 350.8359375 m 2
 834.19921875 331.41796875 861.4375 288.9453125 861.453125 242.58203125 c 0
 861.453125 176.87109375 808.07421875 123.41796875 742.453125 123.41796875 c 2
 378.30859375 123.41796875 l 2
 302.36328125 123.41796875 240.546875 185.23828125 240.546875 261.1640625 c 0
 240.546875 317.08984375 275.546875 368.52734375 327.63671875 389.1640625 c 2
 343.08984375 395.30859375 l 1
 346.328125 411.5625 l 2
 360.23828125 481 421.69140625 531.3828125 492.3828125 531.3828125 c 0
 533.671875 531.3828125 573.453125 514.0546875 601.546875 483.8359375 c 2
 614.21875 470.19921875 l 1
 632.1640625 475.21875 l 2
 642.3984375 478.07421875 652.78125 479.546875 663.03515625 479.546875 c 0
 721.1640625 479.546875 770.03515625 434.21875 774.328125 376.30859375 c 2
 775.65625 358.36328125 l 1
 792.01953125 350.8359375 l 2
792.01953125 350.8359375 m 1024
582.4921875 9.7265625 m 1
 434.18359375 -192.12890625 l 1
 501.3828125 -26.14453125 l 1
 453.52734375 -26.14453125 l 1
 508.4921875 83.36328125 l 1
 573.2734375 83.91015625 l 1
 531.30859375 10.5078125 l 1
 582.4921875 9.7265625 l 1
582.4921875 9.7265625 m 1024
372.1640625 -160.69140625 m 0
 348.109375 -207.12890625 293.21875 -176.74609375 316.30859375 -131.92578125 c 0
 335.91015625 -93.8359375 383 -70.80078125 383 -70.80078125 c 1
 383 -70.80078125 391.18359375 -123.80078125 372.1640625 -160.69140625 c 0
611.76171875 -160.69140625 m 0
 587.7109375 -207.12890625 532.81640625 -176.74609375 555.91015625 -131.92578125 c 0
 575.5078125 -93.8359375 622.6015625 -70.80078125 622.6015625 -70.80078125 c 1
 622.6015625 -70.80078125 630.78125 -123.80078125 611.76171875 -160.69140625 c 0
730.328125 -22.34375 m 0
 706.2734375 -68.78125 651.3828125 -38.3984375 674.47265625 6.41796875 c 0
 694.07421875 44.5078125 741.1640625 67.546875 741.1640625 67.546875 c 1
 741.1640625 67.546875 749.34375 14.52734375 730.328125 -22.34375 c 0
755.19921875 -160.69140625 m 0
 731.14453125 -207.12890625 676.25390625 -176.74609375 699.34375 -131.92578125 c 0
 718.9453125 -93.8359375 766.03515625 -70.80078125 766.03515625 -70.80078125 c 1
 766.03515625 -70.80078125 774.21875 -123.80078125 755.19921875 -160.69140625 c 0
229.30859375 -160.69140625 m 0
 205.25390625 -207.12890625 150.36328125 -176.74609375 173.453125 -131.92578125 c 0
 193.0546875 -93.8359375 240.14453125 -70.80078125 240.14453125 -70.80078125 c 1
 240.14453125 -70.80078125 248.328125 -123.80078125 229.30859375 -160.69140625 c 0
359.2890625 -22.34375 m 0
 335.23828125 -68.78125 280.34375 -38.3984375 303.4375 6.41796875 c 0
 323.03515625 44.5078125 370.12890625 67.546875 370.12890625 67.546875 c 1
 370.12890625 67.546875 378.30859375 14.52734375 359.2890625 -22.34375 c 0
359.2890625 -22.34375 m 1024
EndSplineSet
EndChar

StartChar: uF0063
Encoding: 983139 983139 36
Width: 1000
Flags: H
LayerCount: 2
Fore
SplineSet
687.8359375 799.19921875 m 1
 618.81640625 726.74609375 649.07421875 619.6015625 697.74609375 557.81640625 c 0
 752.25390625 488.63671875 850.4921875 430.41796875 937.453125 479.92578125 c 1
 923.80078125 455.96484375 905.47265625 434.19921875 882.36328125 416.18359375 c 0
 857.8359375 396.98046875 830.76171875 385.8359375 803.01953125 380.58203125 c 1
 802.21875 389.25390625 800.52734375 397.65625 798.1640625 405.78125 c 0
 797.87109375 406.78125 797.453125 407.7109375 797.14453125 408.7109375 c 0
 794.98046875 415.5625 792.41796875 422.21875 789.25390625 428.58203125 c 0
 788.21875 430.7265625 786.91015625 432.74609375 785.74609375 434.8359375 c 0
 783.03515625 439.63671875 780.23828125 444.30859375 777.01953125 448.7265625 c 0
 774.78125 451.85546875 772.2734375 454.7265625 769.78125 457.65625 c 0
 767.2890625 460.52734375 764.85546875 463.3828125 762.14453125 466.03515625 c 0
 758.41796875 469.76171875 754.47265625 473.12890625 750.36328125 476.3984375 c 0
 748.58203125 477.78125 746.85546875 479.18359375 745 480.4921875 c 0
 739.78125 484.2734375 734.328125 487.6171875 728.6171875 490.65625 c 0
 727.69140625 491.12890625 726.80078125 491.58203125 725.890625 492.03515625 c 0
 719.30859375 495.36328125 712.5078125 498.14453125 705.3984375 500.3984375 c 0
 705.21875 500.453125 705.01953125 500.4921875 704.85546875 500.546875 c 0
 697.2734375 502.92578125 689.4921875 504.63671875 681.41796875 505.69140625 c 1
 682.2890625 521.34375 676.7109375 540.3828125 675.21875 544.3828125 c 0
 662.87109375 577.4921875 639.2734375 604.36328125 606.96484375 622.12890625 c 0
 587.69140625 632.7265625 566.92578125 638.14453125 545.25390625 638.21875 c 0
 543.87109375 638.23828125 542.47265625 637.96484375 541.08984375 637.92578125 c 1
 541.25390625 639.69140625 541.36328125 641.453125 541.6015625 643.25390625 c 0
 550.3984375 688.03515625 573.36328125 730.30859375 612.69140625 761.07421875 c 0
 635.74609375 779.109375 661.34375 791.69140625 687.8359375 799.19921875 c 1
355.529296875 670.06640625 m 0
 373.337890625 670.641601562 391.719726562 668.3828125 410.18359375 662.890625 c 0
 439.7265625 654.109375 465.80078125 636.19921875 486.7265625 613.5625 c 2
 498.52734375 600.78125 l 1
 498.52734375 600.78125 499.34375 600.2890625 500.6015625 599.5078125 c 0
 529.23828125 613.109375 563.0546875 613.671875 593.23828125 597.08984375 c 0
 621.3828125 581.6015625 639.23828125 559.08984375 648.453125 534.3984375 c 0
 649.453125 531.7265625 653.69140625 516.30859375 652.92578125 506.6171875 c 1
 643.78125 505.91015625 634.6171875 504.6015625 625.58203125 502.109375 c 2
 624.41796875 501.78125 l 1
 623.58203125 502.69140625 l 2
 590.19921875 538.80078125 542.85546875 559.58203125 493.671875 559.7265625 c 0
 409.36328125 559.98046875 336 500.18359375 319.18359375 417.4921875 c 2
 318.98046875 416.4375 l 1
 317.96484375 416.03515625 l 2
 255 391.30859375 212.58203125 329.328125 212.3828125 261.80078125 c 0
 212.328125 244.0546875 215.14453125 226.9453125 220.2890625 210.85546875 c 1
 198.2890625 214.85546875 180.5625 219.78125 180.5625 219.78125 c 1
 115.98046875 242.5625 70.8359375 306.7109375 77.41796875 380.25390625 c 0
 82.76171875 440.01953125 124.47265625 490.4375 180.328125 512.41796875 c 2
 192.74609375 517.30859375 l 1
 196.4921875 535.63671875 l 2
 211.973632812 611.87890625 278.360351562 667.573242188 355.529296875 670.06640625 c 0
493.6171875 531.18359375 m 0
 534.890625 531.0546875 574.63671875 513.6015625 602.63671875 483.30859375 c 2
 615.25390625 469.63671875 l 1
 633.21875 474.6015625 l 2
 643.453125 477.41796875 653.85546875 478.87109375 664.109375 478.8359375 c 0
 722.23828125 478.671875 770.98046875 433.18359375 775.08984375 375.2734375 c 2
 776.36328125 357.30859375 l 1
 792.69140625 349.74609375 l 2
 834.81640625 330.18359375 861.92578125 287.63671875 861.81640625 241.30859375 c 0
 861.63671875 175.58203125 808.08984375 122.2890625 742.47265625 122.4921875 c 2
 378.328125 123.5625 l 2
 302.3828125 123.78125 240.76171875 185.78125 240.98046875 261.7109375 c 0
 241.14453125 317.63671875 276.2890625 368.96484375 328.453125 389.453125 c 2
 343.92578125 395.546875 l 1
 347.21875 411.80078125 l 2
 361.328125 481.19921875 422.92578125 531.3984375 493.6171875 531.18359375 c 0
573.2734375 83.91015625 m 1
 531.30859375 10.5078125 l 1
 582.4921875 9.7265625 l 1
 434.18359375 -192.12890625 l 1
 501.3828125 -26.14453125 l 1
 453.52734375 -26.14453125 l 1
 508.4921875 83.36328125 l 1
 573.2734375 83.91015625 l 1
EndSplineSet
EndChar

StartChar: uF0011
Encoding: 983057 983057 37
Width: 1000
Flags: H
LayerCount: 2
Fore
SplineSet
524.7109375 800 m 1
 562.328125 678.23828125 l 1
 545.2734375 682.9453125 527.65625 685.96484375 509.5625 686.7109375 c 0
 496.328125 687.25390625 483.12890625 686.30859375 470.03515625 684.6171875 c 1
 524.7109375 800 l 1
348.80078125 766.12890625 m 1
 442.2734375 679.4921875 l 1
 420.01953125 673.7265625 399.08984375 664.7265625 379.96484375 653.01953125 c 0
 378.36328125 652.0546875 376.78125 651.01953125 375.21875 650 c 0
 371 647.25390625 366.85546875 644.41796875 362.81640625 641.4375 c 0
 361.69140625 640.58203125 360.41796875 639.8359375 359.25390625 638.96484375 c 1
 348.80078125 766.12890625 l 1
694.01953125 741.4375 m 1
 665.546875 617.14453125 l 1
 643.47265625 639.7109375 617.58203125 657.14453125 589.18359375 668.96484375 c 1
 694.01953125 741.4375 l 1
496.923828125 657.880859375 m 0
 500.743164062 657.936523438 504.571289062 657.885742188 508.3984375 657.7265625 c 0
 562.58203125 655.5078125 612.65625 632.328125 649.3984375 592.41796875 c 0
 682.81640625 556.109375 701.328125 509.91015625 702.69140625 461.03515625 c 1
 676.85546875 489.7265625 639.92578125 508.12890625 598.87109375 508.12890625 c 0
 586.01953125 508.12890625 573.01953125 506.328125 560.2734375 502.7265625 c 2
 559.109375 502.41796875 l 1
 558.2734375 503.2890625 l 2
 524.80078125 539.328125 477.3828125 559.96484375 428.19921875 559.96484375 c 0
 380.8359375 559.96484375 337 541.01953125 304.7265625 509.74609375 c 1
 325.4921875 582.52734375 386.41796875 640.34375 462.96484375 654.5078125 c 0
 474.077148438 656.58203125 485.465820312 657.712890625 496.923828125 657.880859375 c 0
213.546875 648.92578125 m 1
 338.03515625 620.4921875 l 1
 332.65625 615.19921875 327.6015625 609.58203125 322.74609375 603.81640625 c 0
 322.34375 603.34375 321.98046875 602.8359375 321.58203125 602.36328125 c 0
 317.19921875 597.0546875 313.0546875 591.5625 309.14453125 585.890625 c 0
 308.65625 585.18359375 308.18359375 584.453125 307.671875 583.7109375 c 0
 299.23828125 571.19921875 291.96484375 557.9453125 286.07421875 544 c 1
 213.546875 648.92578125 l 1
811.21875 606.21875 m 1
 724.7109375 512.98046875 l 1
 717.07421875 542.8359375 703.3828125 570.890625 684.30859375 595.76171875 c 1
 811.21875 606.21875 l 1
428.18359375 531.3984375 m 0
 469.47265625 531.3984375 509.25390625 514.07421875 537.34375 483.85546875 c 2
 550.01953125 470.21875 l 1
 567.96484375 475.23828125 l 2
 578.19921875 478.109375 588.58203125 479.5625 598.8359375 479.5625 c 0
 656.96484375 479.5625 705.8359375 434.21875 710.12890625 376.34375 c 2
 711.453125 358.36328125 l 1
 727.81640625 350.8359375 l 2
 770.01953125 331.41796875 797.25390625 288.9453125 797.25390625 242.6015625 c 0
 797.25390625 176.890625 743.87109375 123.4375 678.25390625 123.4375 c 2
 314.109375 123.4375 l 2
 238.1640625 123.4375 176.34375 185.25390625 176.34375 261.18359375 c 0
 176.34375 317.109375 211.34375 368.546875 263.4375 389.18359375 c 2
 278.87109375 395.328125 l 1
 282.12890625 411.58203125 l 2
 296.03515625 481.01953125 357.4921875 531.3984375 428.18359375 531.3984375 c 0
276.7265625 517.23828125 m 1
 271.92578125 500.2734375 268.85546875 482.65625 268.109375 464.52734375 c 0
 268.03515625 462.63671875 268.18359375 460.80078125 268.1640625 458.92578125 c 0
 263.890625 450.01953125 260.2890625 440.7109375 257.52734375 431.01953125 c 1
 154.91015625 479.6171875 l 1
 276.7265625 517.23828125 l 1
729.890625 484.87109375 m 1
 845.07421875 430.34375 l 1
 735.546875 396.4375 l 1
 733.9453125 404.03515625 731.7265625 411.34375 728.9453125 418.4375 c 0
 730.41796875 427.30859375 731.36328125 436.2734375 731.74609375 445.3984375 c 0
 732.328125 458.7265625 731.5625 471.890625 729.890625 484.87109375 c 1
EndSplineSet
EndChar

StartChar: uF0022
Encoding: 983074 983074 38
Width: 1000
Flags: H
LayerCount: 2
Fore
SplineSet
524.7109375 800 m 1
 562.328125 678.23828125 l 1
 545.2734375 682.9453125 527.65625 685.96484375 509.5625 686.7109375 c 0
 496.328125 687.25390625 483.12890625 686.30859375 470.03515625 684.6171875 c 1
 524.7109375 800 l 1
348.80078125 766.12890625 m 1
 442.2734375 679.4921875 l 1
 420.01953125 673.7265625 399.08984375 664.7265625 379.96484375 653.01953125 c 0
 378.36328125 652.0546875 376.78125 651.01953125 375.21875 650 c 0
 371 647.25390625 366.85546875 644.41796875 362.81640625 641.4375 c 0
 361.69140625 640.58203125 360.41796875 639.8359375 359.25390625 638.96484375 c 1
 348.80078125 766.12890625 l 1
694.01953125 741.4375 m 1
 665.546875 617.14453125 l 1
 643.47265625 639.7109375 617.58203125 657.14453125 589.18359375 668.96484375 c 1
 694.01953125 741.4375 l 1
496.923828125 657.880859375 m 0
 500.743164062 657.936523438 504.571289062 657.885742188 508.3984375 657.7265625 c 0
 562.58203125 655.5078125 612.65625 632.328125 649.3984375 592.41796875 c 0
 682.81640625 556.109375 701.328125 509.91015625 702.69140625 461.03515625 c 1
 676.85546875 489.7265625 639.92578125 508.12890625 598.87109375 508.12890625 c 0
 586.01953125 508.12890625 573.01953125 506.328125 560.2734375 502.7265625 c 2
 559.109375 502.41796875 l 1
 558.2734375 503.2890625 l 2
 524.80078125 539.328125 477.3828125 559.96484375 428.19921875 559.96484375 c 0
 380.8359375 559.96484375 337 541.01953125 304.7265625 509.74609375 c 1
 325.4921875 582.52734375 386.41796875 640.34375 462.96484375 654.5078125 c 0
 474.077148438 656.58203125 485.465820312 657.712890625 496.923828125 657.880859375 c 0
213.546875 648.92578125 m 1
 338.03515625 620.4921875 l 1
 332.65625 615.19921875 327.6015625 609.58203125 322.74609375 603.81640625 c 0
 322.34375 603.34375 321.98046875 602.8359375 321.58203125 602.36328125 c 0
 317.19921875 597.0546875 313.0546875 591.5625 309.14453125 585.890625 c 0
 308.65625 585.18359375 308.18359375 584.453125 307.671875 583.7109375 c 0
 299.23828125 571.19921875 291.96484375 557.9453125 286.07421875 544 c 1
 213.546875 648.92578125 l 1
811.21875 606.21875 m 1
 724.7109375 512.98046875 l 1
 717.07421875 542.8359375 703.3828125 570.890625 684.30859375 595.76171875 c 1
 811.21875 606.21875 l 1
428.18359375 531.3984375 m 0
 469.47265625 531.3984375 509.25390625 514.07421875 537.34375 483.85546875 c 2
 550.01953125 470.21875 l 1
 567.96484375 475.23828125 l 2
 578.19921875 478.109375 588.58203125 479.5625 598.8359375 479.5625 c 0
 656.96484375 479.5625 705.8359375 434.21875 710.12890625 376.34375 c 2
 711.453125 358.36328125 l 1
 727.81640625 350.8359375 l 2
 770.01953125 331.41796875 797.25390625 288.9453125 797.25390625 242.6015625 c 0
 797.25390625 176.890625 743.87109375 123.4375 678.25390625 123.4375 c 2
 314.109375 123.4375 l 2
 238.1640625 123.4375 176.34375 185.25390625 176.34375 261.18359375 c 0
 176.34375 317.109375 211.34375 368.546875 263.4375 389.18359375 c 2
 278.87109375 395.328125 l 1
 282.12890625 411.58203125 l 2
 296.03515625 481.01953125 357.4921875 531.3984375 428.18359375 531.3984375 c 0
276.7265625 517.23828125 m 1
 271.92578125 500.2734375 268.85546875 482.65625 268.109375 464.52734375 c 0
 268.03515625 462.63671875 268.18359375 460.80078125 268.1640625 458.92578125 c 0
 263.890625 450.01953125 260.2890625 440.7109375 257.52734375 431.01953125 c 1
 154.91015625 479.6171875 l 1
 276.7265625 517.23828125 l 1
729.890625 484.87109375 m 1
 845.07421875 430.34375 l 1
 735.546875 396.4375 l 1
 733.9453125 404.03515625 731.7265625 411.34375 728.9453125 418.4375 c 0
 730.41796875 427.30859375 731.36328125 436.2734375 731.74609375 445.3984375 c 0
 732.328125 458.7265625 731.5625 471.890625 729.890625 484.87109375 c 1
290.494140625 69.736328125 m 0
 292.841796875 69.359375 294.8515625 67.6279296875 295.4375 65.19921875 c 2
 305.4375 24.109375 l 1
 335.4921875 53.890625 l 2
 337.85546875 56.23828125 341.7109375 56.23828125 344.03515625 53.8359375 c 2
 344.91015625 52.98046875 l 2
 347.2890625 50.6171875 347.23828125 46.80078125 344.91015625 44.4375 c 2
 314.91015625 14.69140625 l 1
 355.92578125 4.63671875 l 2
 359.14453125 3.85546875 361.19921875 0.52734375 360.3828125 -2.7109375 c 2
 360.07421875 -3.87109375 l 2
 359.2890625 -7.08984375 355.98046875 -9.12890625 352.76171875 -8.30859375 c 2
 310.85546875 1.91015625 l 1
 321.08984375 -40.01953125 l 2
 321.92578125 -43.25390625 319.890625 -46.52734375 316.6015625 -47.34375 c 2
 315.4375 -47.6015625 l 2
 312.21875 -48.41796875 308.91015625 -46.3984375 308.12890625 -43.1640625 c 2
 298.03515625 -2 l 1
 268.01953125 -31.85546875 l 2
 265.63671875 -34.18359375 261.8359375 -34.18359375 259.453125 -31.80078125 c 2
 258.58203125 -30.9453125 l 2
 256.2734375 -28.5625 256.2734375 -24.7265625 258.63671875 -22.34375 c 2
 288.58203125 7.36328125 l 1
 247.6015625 17.3828125 l 2
 244.36328125 18.14453125 242.2890625 21.41796875 243.14453125 24.7109375 c 2
 243.3984375 25.87109375 l 2
 244.21875 29.14453125 247.546875 31.109375 250.76171875 30.328125 c 2
 292.7109375 20.08984375 l 1
 282.41796875 62.01953125 l 2
 281.6171875 65.21875 283.671875 68.58203125 286.91015625 69.34375 c 2
 288.07421875 69.63671875 l 2
 288.891601562 69.8369140625 289.711914062 69.8623046875 290.494140625 69.736328125 c 0
484.076171875 69.736328125 m 0
 486.423828125 69.359375 488.43359375 67.6279296875 489.01953125 65.19921875 c 2
 499.01953125 24.109375 l 1
 529.07421875 53.890625 l 2
 531.4375 56.23828125 535.2890625 56.23828125 537.6171875 53.8359375 c 2
 538.4921875 52.98046875 l 2
 540.87109375 50.6171875 540.81640625 46.80078125 538.4921875 44.4375 c 2
 508.4921875 14.69140625 l 1
 549.5078125 4.63671875 l 2
 552.7109375 3.85546875 554.76171875 0.52734375 553.9453125 -2.7109375 c 2
 553.63671875 -3.87109375 l 2
 552.85546875 -7.08984375 549.546875 -9.12890625 546.328125 -8.30859375 c 2
 504.41796875 1.91015625 l 1
 514.65625 -40.01953125 l 2
 515.4921875 -43.25390625 513.453125 -46.52734375 510.1640625 -47.34375 c 2
 509 -47.6015625 l 2
 505.78125 -48.41796875 502.47265625 -46.3984375 501.69140625 -43.1640625 c 2
 491.6015625 -2 l 1
 461.58203125 -31.85546875 l 2
 459.19921875 -34.18359375 455.3984375 -34.18359375 453.01953125 -31.80078125 c 2
 452.14453125 -30.9453125 l 2
 449.8359375 -28.5625 449.8359375 -24.7265625 452.19921875 -22.34375 c 2
 482.14453125 7.36328125 l 1
 441.1640625 17.3828125 l 2
 437.92578125 18.14453125 435.85546875 21.41796875 436.7109375 24.7109375 c 2
 436.96484375 25.87109375 l 2
 437.78125 29.14453125 441.109375 31.109375 444.328125 30.328125 c 2
 486.2734375 20.08984375 l 1
 475.98046875 62.01953125 l 2
 475.19921875 65.21875 477.25390625 68.58203125 480.4921875 69.34375 c 2
 481.65625 69.63671875 l 2
 482.473632812 69.8369140625 483.293945312 69.8623046875 484.076171875 69.736328125 c 0
677.640625 69.736328125 m 0
 679.989257812 69.359375 681.99609375 67.6279296875 682.58203125 65.19921875 c 2
 692.58203125 24.109375 l 1
 722.63671875 53.890625 l 2
 725 56.23828125 728.85546875 56.23828125 731.18359375 53.8359375 c 2
 732.0546875 52.98046875 l 2
 734.4375 50.6171875 734.3828125 46.80078125 732.0546875 44.4375 c 2
 702.0546875 14.69140625 l 1
 743.07421875 4.63671875 l 2
 746.2890625 3.85546875 748.328125 0.52734375 747.5078125 -2.7109375 c 2
 747.19921875 -3.87109375 l 2
 746.41796875 -7.08984375 743.109375 -9.12890625 739.890625 -8.30859375 c 2
 697.98046875 1.91015625 l 1
 708.21875 -40.01953125 l 2
 709.0546875 -43.25390625 707.01953125 -46.52734375 703.7265625 -47.34375 c 2
 702.5625 -47.6015625 l 2
 699.34375 -48.41796875 696.03515625 -46.3984375 695.25390625 -43.1640625 c 2
 685.1640625 -2 l 1
 655.14453125 -31.85546875 l 2
 652.76171875 -34.18359375 648.96484375 -34.18359375 646.58203125 -31.80078125 c 2
 645.7109375 -30.9453125 l 2
 643.3984375 -28.5625 643.3984375 -24.7265625 645.76171875 -22.34375 c 2
 675.7109375 7.36328125 l 1
 634.7265625 17.3828125 l 2
 631.4921875 18.14453125 629.41796875 21.41796875 630.2734375 24.7109375 c 2
 630.52734375 25.87109375 l 2
 631.34375 29.14453125 634.671875 31.109375 637.890625 30.328125 c 2
 679.8359375 20.08984375 l 1
 669.546875 62.01953125 l 2
 668.76171875 65.21875 670.81640625 68.58203125 674.0546875 69.34375 c 2
 675.21875 69.63671875 l 2
 676.037109375 69.8369140625 676.857421875 69.8623046875 677.640625 69.736328125 c 0
190.34765625 -73.119140625 m 0
 192.6953125 -73.49609375 194.703125 -75.2275390625 195.2890625 -77.65625 c 2
 205.2890625 -118.74609375 l 1
 235.34375 -88.96484375 l 2
 237.7109375 -86.6171875 241.5625 -86.6171875 243.890625 -89.01953125 c 2
 244.76171875 -89.87109375 l 2
 247.14453125 -92.23828125 247.08984375 -96.0546875 244.76171875 -98.41796875 c 2
 214.76171875 -128.1640625 l 1
 255.78125 -138.21875 l 2
 259 -139 261.03515625 -142.328125 260.23828125 -145.5625 c 2
 259.92578125 -146.7265625 l 2
 259.14453125 -149.9453125 255.8359375 -151.98046875 252.6171875 -151.1640625 c 2
 210.7109375 -140.9453125 l 1
 220.9453125 -182.87109375 l 2
 221.76171875 -186.109375 219.7265625 -189.3828125 216.4375 -190.19921875 c 2
 215.2734375 -190.453125 l 2
 212.0546875 -191.2734375 208.74609375 -189.25390625 207.96484375 -186.01953125 c 2
 197.87109375 -144.85546875 l 1
 167.85546875 -174.7109375 l 2
 165.47265625 -177.03515625 161.671875 -177.03515625 159.2890625 -174.65625 c 2
 158.41796875 -173.80078125 l 2
 156.109375 -171.41796875 156.109375 -167.58203125 158.47265625 -165.19921875 c 2
 188.41796875 -135.4921875 l 1
 147.4375 -125.47265625 l 2
 144.19921875 -124.7109375 142.12890625 -121.4375 142.98046875 -118.14453125 c 2
 143.23828125 -116.98046875 l 2
 144.0546875 -113.7109375 147.3828125 -111.74609375 150.6015625 -112.52734375 c 2
 192.546875 -122.76171875 l 1
 182.25390625 -80.8359375 l 2
 181.47265625 -77.63671875 183.52734375 -74.2734375 186.76171875 -73.5078125 c 2
 187.92578125 -73.21875 l 2
 188.744140625 -73.0185546875 189.564453125 -72.9931640625 190.34765625 -73.119140625 c 0
395.1484375 -73.119140625 m 0
 397.49609375 -73.49609375 399.50390625 -75.2275390625 400.08984375 -77.65625 c 2
 410.08984375 -118.74609375 l 1
 440.14453125 -88.96484375 l 2
 442.5078125 -86.6171875 446.36328125 -86.6171875 448.69140625 -89.01953125 c 2
 449.5625 -89.87109375 l 2
 451.9453125 -92.23828125 451.890625 -96.0546875 449.5625 -98.41796875 c 2
 419.5625 -128.1640625 l 1
 460.58203125 -138.21875 l 2
 463.80078125 -139 465.85546875 -142.328125 465.01953125 -145.5625 c 2
 464.7109375 -146.7265625 l 2
 463.92578125 -149.9453125 460.6171875 -151.98046875 457.3984375 -151.1640625 c 2
 415.4921875 -140.9453125 l 1
 425.7265625 -182.87109375 l 2
 426.5625 -186.109375 424.52734375 -189.3828125 421.23828125 -190.19921875 c 2
 420.07421875 -190.453125 l 2
 416.85546875 -191.2734375 413.546875 -189.25390625 412.76171875 -186.01953125 c 2
 402.671875 -144.85546875 l 1
 372.65625 -174.7109375 l 2
 370.2734375 -177.03515625 366.47265625 -177.03515625 364.08984375 -174.65625 c 2
 363.21875 -173.80078125 l 2
 360.91015625 -171.41796875 360.91015625 -167.58203125 363.2734375 -165.19921875 c 2
 393.21875 -135.4921875 l 1
 352.23828125 -125.47265625 l 2
 349 -124.7109375 346.92578125 -121.4375 347.78125 -118.14453125 c 2
 348.03515625 -116.98046875 l 2
 348.85546875 -113.7109375 352.18359375 -111.74609375 355.3984375 -112.52734375 c 2
 397.34375 -122.76171875 l 1
 387.0546875 -80.8359375 l 2
 386.2734375 -77.63671875 388.328125 -74.2734375 391.5625 -73.5078125 c 2
 392.7265625 -73.21875 l 2
 393.544921875 -73.0185546875 394.365234375 -72.9931640625 395.1484375 -73.119140625 c 0
577.4765625 -73.119140625 m 0
 579.825195312 -73.49609375 581.83203125 -75.2275390625 582.41796875 -77.65625 c 2
 592.41796875 -118.74609375 l 1
 622.47265625 -88.96484375 l 2
 624.8359375 -86.6171875 628.69140625 -86.6171875 631.01953125 -89.01953125 c 2
 631.890625 -89.87109375 l 2
 634.2734375 -92.23828125 634.21875 -96.0546875 631.890625 -98.41796875 c 2
 601.890625 -128.1640625 l 1
 642.91015625 -138.21875 l 2
 646.12890625 -139 648.18359375 -142.328125 647.34375 -145.5625 c 2
 647.03515625 -146.7265625 l 2
 646.25390625 -149.9453125 642.9453125 -151.98046875 639.7265625 -151.1640625 c 2
 597.81640625 -140.9453125 l 1
 608.0546875 -182.87109375 l 2
 608.890625 -186.109375 606.85546875 -189.3828125 603.5625 -190.19921875 c 2
 602.3984375 -190.453125 l 2
 599.18359375 -191.2734375 595.87109375 -189.25390625 595.08984375 -186.01953125 c 2
 585 -144.85546875 l 1
 554.98046875 -174.7109375 l 2
 552.6015625 -177.03515625 548.80078125 -177.03515625 546.41796875 -174.65625 c 2
 545.546875 -173.80078125 l 2
 543.23828125 -171.41796875 543.23828125 -167.58203125 545.6015625 -165.19921875 c 2
 575.546875 -135.4921875 l 1
 534.5625 -125.47265625 l 2
 531.328125 -124.7109375 529.25390625 -121.4375 530.109375 -118.14453125 c 2
 530.36328125 -116.98046875 l 2
 531.18359375 -113.7109375 534.5078125 -111.74609375 537.7265625 -112.52734375 c 2
 579.671875 -122.76171875 l 1
 569.3828125 -80.8359375 l 2
 568.6015625 -77.63671875 570.65625 -74.2734375 573.890625 -73.5078125 c 2
 575.0546875 -73.21875 l 2
 575.873046875 -73.0185546875 576.694335938 -72.9931640625 577.4765625 -73.119140625 c 0
EndSplineSet
EndChar

StartChar: uF0076
Encoding: 983158 983158 39
Width: 1000
Flags: H
LayerCount: 2
Fore
SplineSet
785.69921875 384.5078125 m 2
 827.8984375 365.07421875 855.13671875 322.6015625 855.13671875 276.2734375 c 0
 855.13671875 210.5625 801.75390625 157.109375 736.13671875 157.109375 c 2
 371.98828125 157.109375 l 2
 296.04296875 157.109375 234.2265625 218.92578125 234.2265625 294.85546875 c 0
 234.2265625 350.78125 269.2265625 402.21875 321.31640625 422.85546875 c 2
 336.7734375 429 l 1
 340.0078125 445.25390625 l 2
 353.91796875 514.69140625 415.37109375 565.07421875 486.0625 565.07421875 c 0
 527.35546875 565.07421875 567.13671875 547.74609375 595.2265625 517.52734375 c 2
 607.8984375 503.890625 l 1
 625.84375 508.91015625 l 2
 636.08203125 511.78125 646.46484375 513.23828125 656.71875 513.23828125 c 0
 714.84375 513.23828125 763.71875 467.890625 768.0078125 410.01953125 c 2
 769.3359375 392.03515625 l 1
 785.69921875 384.5078125 l 2
765.35546875 600.6171875 m 1
 856.08203125 582.85546875 924.5703125 503 924.58984375 407.08984375 c 0
 924.58984375 361.4921875 908.97265625 319.63671875 882.98828125 286.23828125 c 1
 879.31640625 339.7109375 846.8984375 387.80078125 797.6796875 410.47265625 c 2
 796.609375 410.96484375 l 1
 796.515625 412.12890625 l 2
 791.98828125 473.19921875 747.7734375 522.69140625 690.53515625 537.12890625 c 1
 689.7890625 544.25390625 l 2
 684.6640625 594.328125 649.5703125 640.14453125 598.19140625 663.890625 c 0
 575.7734375 674.21875 551.390625 679.671875 527.6796875 679.671875 c 0
 509.828125 679.671875 492.515625 676.65625 476.6640625 670.81640625 c 1
 453.37109375 690.0546875 426.6640625 703.65625 398.42578125 710.98046875 c 1
 435.4453125 761.4921875 495.0078125 794.4375 562.4453125 794.4375 c 0
 671.53515625 794.4375 760.30078125 708.47265625 765.35546875 600.6171875 c 1
205.6640625 294.85546875 m 0
 205.6640625 277.08984375 208.515625 260 213.71875 243.92578125 c 1
 209.1171875 243.91015625 206.09765625 243.91015625 205.8828125 243.92578125 c 0
 127.390625 254.7109375 67.953125 325.9453125 76.4453125 409.01953125 c 0
 82.30078125 466.5625 123.390625 514.52734375 177.13671875 535.85546875 c 2
 186.828125 539.69140625 l 2
 187.5 539.9453125 187.97265625 540.52734375 188.1171875 541.23828125 c 2
 190.0625 550.98046875 l 2
 199.98828125 600.5625 229.48046875 645.3984375 273.98828125 669.41796875 c 0
 339.19140625 704.6171875 413.75390625 689.08984375 464.0625 644 c 0
 466.58984375 641.74609375 468.84375 639.30859375 471.15234375 636.92578125 c 0
 502.5546875 654.69140625 545.828125 656.58203125 586.2265625 637.9453125 c 0
 629.80859375 617.81640625 657.46484375 579.65625 661.37109375 541.328125 c 1
 659.80859375 541.3984375 658.31640625 541.78125 656.75390625 541.78125 c 0
 643.8984375 541.78125 630.8984375 539.96484375 618.15234375 536.3984375 c 2
 616.98828125 536.07421875 l 1
 616.15234375 536.98046875 l 2
 582.6796875 572.98046875 535.26171875 593.6171875 486.08203125 593.6171875 c 0
 401.7734375 593.6171875 328.5703125 533.6015625 312.0078125 450.85546875 c 2
 311.7890625 449.80078125 l 1
 310.7890625 449.3984375 l 2
 247.8984375 424.4921875 205.6640625 362.3828125 205.6640625 294.85546875 c 0
205.6640625 294.85546875 m 1024
402.7265625 41 m 2
 405.92578125 40.21875 407.98046875 36.890625 407.18359375 33.65625 c 2
 406.87109375 32.4921875 l 2
 406.08984375 29.2734375 402.78125 27.23828125 399.5625 28.0546875 c 2
 357.65625 38.2734375 l 1
 367.890625 -3.65625 l 2
 368.7265625 -6.890625 366.69140625 -10.1640625 363.3984375 -10.98046875 c 2
 362.23828125 -11.23828125 l 2
 359.01953125 -12.0546875 355.7109375 -10.03515625 354.92578125 -6.80078125 c 2
 344.8359375 34.36328125 l 1
 314.81640625 4.5078125 l 2
 312.4375 2.18359375 308.63671875 2.18359375 306.25390625 4.5625 c 2
 305.3828125 5.41796875 l 2
 303.07421875 7.80078125 303.07421875 11.63671875 305.4375 14.01953125 c 2
 335.3828125 43.7265625 l 1
 294.3984375 53.74609375 l 2
 291.1640625 54.5078125 289.08984375 57.78125 289.9453125 61.07421875 c 2
 290.19921875 62.23828125 l 2
 291.01953125 65.5078125 294.34375 67.47265625 297.5625 66.69140625 c 2
 339.5078125 56.453125 l 1
 329.21875 98.3828125 l 2
 328.41796875 101.58203125 330.47265625 104.9453125 333.7109375 105.7109375 c 2
 334.87109375 106 l 2
 338.14453125 106.80078125 341.453125 104.80078125 342.23828125 101.5625 c 2
 352.23828125 60.47265625 l 1
 382.2890625 90.25390625 l 2
 384.65625 92.6015625 388.5078125 92.6015625 390.8359375 90.19921875 c 2
 391.7109375 89.34375 l 2
 394.08984375 86.98046875 394.03515625 83.1640625 391.7109375 80.80078125 c 2
 361.7109375 51.0546875 l 1
 402.7265625 41 l 2
239.19921875 -101.85546875 m 2
 242.41796875 -102.63671875 244.47265625 -105.96484375 243.63671875 -109.21875 c 2
 243.328125 -110.3828125 l 2
 242.546875 -113.6015625 239.23828125 -115.63671875 236.01953125 -114.81640625 c 2
 194.109375 -104.6015625 l 1
 204.34375 -146.52734375 l 2
 205.18359375 -149.76171875 203.14453125 -153.03515625 199.85546875 -153.85546875 c 2
 198.69140625 -154.109375 l 2
 195.47265625 -154.92578125 192.1640625 -152.91015625 191.3828125 -149.671875 c 2
 181.2890625 -108.5078125 l 1
 151.2734375 -138.36328125 l 2
 148.890625 -140.69140625 145.08984375 -140.69140625 142.7109375 -138.30859375 c 2
 141.8359375 -137.453125 l 2
 139.52734375 -135.07421875 139.52734375 -131.23828125 141.890625 -128.85546875 c 2
 171.8359375 -99.14453125 l 1
 130.85546875 -89.12890625 l 2
 127.6171875 -88.36328125 125.546875 -85.08984375 126.3984375 -81.80078125 c 2
 126.65625 -80.63671875 l 2
 127.47265625 -77.36328125 130.80078125 -75.3984375 134.01953125 -76.18359375 c 2
 175.96484375 -86.41796875 l 1
 165.671875 -44.4921875 l 2
 164.890625 -41.2890625 166.9453125 -37.92578125 170.18359375 -37.1640625 c 2
 171.34375 -36.85546875 l 2
 174.6171875 -36.0546875 177.92578125 -38.0546875 178.7109375 -41.2890625 c 2
 188.7109375 -82.3828125 l 1
 218.76171875 -52.6015625 l 2
 221.12890625 -50.25390625 224.98046875 -50.25390625 227.30859375 -52.65625 c 2
 228.18359375 -53.5078125 l 2
 230.5625 -55.87109375 230.5078125 -59.69140625 228.18359375 -62.0546875 c 2
 198.18359375 -91.80078125 l 1
 239.19921875 -101.85546875 l 2
400.12890625 -101.85546875 m 2
 403.34375 -102.63671875 405.3828125 -105.96484375 404.58203125 -109.19921875 c 2
 404.2734375 -110.36328125 l 2
 403.4921875 -113.58203125 400.18359375 -115.6171875 396.96484375 -114.80078125 c 2
 355.0546875 -104.58203125 l 1
 365.2890625 -146.5078125 l 2
 366.12890625 -149.74609375 364.08984375 -153.01953125 360.80078125 -153.8359375 c 2
 359.63671875 -154.08984375 l 2
 356.41796875 -154.91015625 353.109375 -152.890625 352.328125 -149.65625 c 2
 342.23828125 -108.4921875 l 1
 312.21875 -138.34375 l 2
 309.8359375 -140.671875 306.03515625 -140.671875 303.65625 -138.2890625 c 2
 302.78125 -137.4375 l 2
 300.47265625 -135.0546875 300.47265625 -131.21875 302.8359375 -128.8359375 c 2
 332.78125 -99.12890625 l 1
 291.80078125 -89.109375 l 2
 288.5625 -88.34375 286.4921875 -85.07421875 287.34375 -81.78125 c 2
 287.6015625 -80.6171875 l 2
 288.41796875 -77.34375 291.74609375 -75.3828125 294.96484375 -76.1640625 c 2
 336.91015625 -86.3984375 l 1
 326.6171875 -44.47265625 l 2
 325.81640625 -41.2734375 327.87109375 -37.91015625 331.109375 -37.14453125 c 2
 332.2734375 -36.85546875 l 2
 335.546875 -36.0546875 338.85546875 -38.0546875 339.63671875 -41.2890625 c 2
 349.63671875 -82.3828125 l 1
 379.69140625 -52.6015625 l 2
 382.0546875 -50.25390625 385.91015625 -50.25390625 388.23828125 -52.65625 c 2
 389.109375 -53.5078125 l 2
 391.4921875 -55.87109375 391.4375 -59.69140625 389.109375 -62.0546875 c 2
 359.109375 -91.80078125 l 1
 400.12890625 -101.85546875 l 2
688.08984375 -101.85546875 m 2
 691.30859375 -102.63671875 693.36328125 -105.96484375 692.52734375 -109.21875 c 2
 692.21875 -110.3828125 l 2
 691.4375 -113.6015625 688.12890625 -115.63671875 684.91015625 -114.81640625 c 2
 643 -104.6015625 l 1
 653.23828125 -146.52734375 l 2
 654.07421875 -149.76171875 652.03515625 -153.03515625 648.74609375 -153.85546875 c 2
 647.58203125 -154.109375 l 2
 644.36328125 -154.92578125 641.0546875 -152.91015625 640.2734375 -149.671875 c 2
 630.18359375 -108.5078125 l 1
 600.1640625 -138.36328125 l 2
 597.78125 -140.69140625 593.98046875 -140.69140625 591.6015625 -138.30859375 c 2
 590.7265625 -137.453125 l 2
 588.41796875 -135.07421875 588.41796875 -131.23828125 590.78125 -128.85546875 c 2
 620.7265625 -99.14453125 l 1
 579.74609375 -89.12890625 l 2
 576.5078125 -88.36328125 574.4375 -85.08984375 575.2890625 -81.80078125 c 2
 575.546875 -80.63671875 l 2
 576.36328125 -77.36328125 579.69140625 -75.3984375 582.91015625 -76.18359375 c 2
 624.85546875 -86.3984375 l 1
 614.5625 -44.47265625 l 2
 613.78125 -41.2734375 615.8359375 -37.91015625 619.07421875 -37.14453125 c 2
 620.23828125 -36.85546875 l 2
 623.5078125 -36.0546875 626.81640625 -38.0546875 627.6015625 -41.2890625 c 2
 637.6015625 -82.3828125 l 1
 667.65625 -52.6015625 l 2
 670.01953125 -50.25390625 673.87109375 -50.25390625 676.19921875 -52.65625 c 2
 677.07421875 -53.5078125 l 2
 679.453125 -55.87109375 679.3984375 -59.69140625 677.07421875 -62.0546875 c 2
 647.07421875 -91.80078125 l 1
 688.08984375 -101.85546875 l 2
849.03515625 -101.85546875 m 2
 852.23828125 -102.63671875 854.2890625 -105.96484375 853.47265625 -109.21875 c 2
 853.1640625 -110.3828125 l 2
 852.3828125 -113.6015625 849.07421875 -115.63671875 845.85546875 -114.81640625 c 2
 803.9453125 -104.6015625 l 1
 814.18359375 -146.52734375 l 2
 815.01953125 -149.76171875 812.98046875 -153.03515625 809.69140625 -153.85546875 c 2
 808.52734375 -154.109375 l 2
 805.30859375 -154.92578125 802 -152.91015625 801.21875 -149.671875 c 2
 791.12890625 -108.5078125 l 1
 761.109375 -138.36328125 l 2
 758.7265625 -140.69140625 754.92578125 -140.69140625 752.546875 -138.30859375 c 2
 751.671875 -137.453125 l 2
 749.36328125 -135.07421875 749.36328125 -131.23828125 751.7265625 -128.85546875 c 2
 781.671875 -99.14453125 l 1
 740.69140625 -89.12890625 l 2
 737.453125 -88.36328125 735.3828125 -85.08984375 736.23828125 -81.80078125 c 2
 736.4921875 -80.63671875 l 2
 737.30859375 -77.36328125 740.63671875 -75.3984375 743.85546875 -76.18359375 c 2
 785.80078125 -86.41796875 l 1
 775.5078125 -44.4921875 l 2
 774.7109375 -41.2890625 776.76171875 -37.92578125 780 -37.1640625 c 2
 781.18359375 -36.85546875 l 2
 784.453125 -36.0546875 787.76171875 -38.0546875 788.546875 -41.2890625 c 2
 798.546875 -82.3828125 l 1
 828.6015625 -52.6015625 l 2
 830.96484375 -50.25390625 834.81640625 -50.25390625 837.14453125 -52.65625 c 2
 838.01953125 -53.5078125 l 2
 840.3984375 -55.87109375 840.34375 -59.69140625 838.01953125 -62.0546875 c 2
 808.01953125 -91.80078125 l 1
 849.03515625 -101.85546875 l 2
781.92578125 41 m 2
 785.14453125 40.21875 787.18359375 36.890625 786.3828125 33.65625 c 2
 786.07421875 32.4921875 l 2
 785.2890625 29.2734375 781.98046875 27.23828125 778.76171875 28.0546875 c 2
 736.85546875 38.2734375 l 1
 747.08984375 -3.65625 l 2
 747.91015625 -6.890625 745.87109375 -10.1640625 742.58203125 -10.98046875 c 2
 741.41796875 -11.23828125 l 2
 738.19921875 -12.0546875 734.890625 -10.03515625 734.109375 -6.80078125 c 2
 724.01953125 34.36328125 l 1
 694 4.5078125 l 2
 691.6171875 2.18359375 687.81640625 2.18359375 685.4375 4.5625 c 2
 684.5625 5.41796875 l 2
 682.25390625 7.80078125 682.25390625 11.63671875 684.6171875 14.01953125 c 2
 714.5625 43.7265625 l 1
 673.58203125 53.74609375 l 2
 670.34375 54.5078125 668.2734375 57.78125 669.12890625 61.07421875 c 2
 669.3828125 62.23828125 l 2
 670.19921875 65.5078125 673.52734375 67.47265625 676.74609375 66.69140625 c 2
 718.69140625 56.453125 l 1
 708.3984375 98.3828125 l 2
 707.6171875 101.58203125 709.671875 104.9453125 712.91015625 105.7109375 c 2
 714.07421875 106 l 2
 717.34375 106.80078125 720.65625 104.80078125 721.4375 101.5625 c 2
 731.4375 60.47265625 l 1
 761.4921875 90.25390625 l 2
 763.85546875 92.6015625 767.7109375 92.6015625 770.03515625 90.19921875 c 2
 770.91015625 89.34375 l 2
 773.2890625 86.98046875 773.23828125 83.1640625 770.91015625 80.80078125 c 2
 740.91015625 51.0546875 l 1
 781.92578125 41 l 2
781.92578125 41 m 1024
597.69140625 46.08984375 m 1
 449.3828125 -155.76171875 l 1
 516.58203125 10.21875 l 1
 468.7265625 10.21875 l 1
 523.69140625 119.7265625 l 1
 588.47265625 120.2734375 l 1
 546.5078125 46.87109375 l 1
 597.69140625 46.08984375 l 1
597.69140625 46.08984375 m 1024
EndSplineSet
EndChar

StartChar: uF0053
Encoding: 983123 983123 40
Width: 1000
Flags: H
LayerCount: 2
Fore
SplineSet
687.8359375 799.19921875 m 1
 618.81640625 726.74609375 649.07421875 619.6015625 697.74609375 557.81640625 c 0
 752.25390625 488.63671875 850.4921875 430.41796875 937.453125 479.92578125 c 1
 923.80078125 455.96484375 905.47265625 434.19921875 882.36328125 416.18359375 c 0
 857.8359375 396.98046875 830.76171875 385.8359375 803.01953125 380.58203125 c 1
 802.21875 389.25390625 800.52734375 397.65625 798.1640625 405.78125 c 0
 797.87109375 406.78125 797.453125 407.7109375 797.14453125 408.7109375 c 0
 794.98046875 415.5625 792.41796875 422.21875 789.25390625 428.58203125 c 0
 788.21875 430.7265625 786.91015625 432.74609375 785.74609375 434.8359375 c 0
 783.03515625 439.63671875 780.23828125 444.30859375 777.01953125 448.7265625 c 0
 774.78125 451.85546875 772.2734375 454.7265625 769.78125 457.65625 c 0
 767.2890625 460.52734375 764.85546875 463.3828125 762.14453125 466.03515625 c 0
 758.41796875 469.76171875 754.47265625 473.12890625 750.36328125 476.3984375 c 0
 748.58203125 477.78125 746.85546875 479.18359375 745 480.4921875 c 0
 739.78125 484.2734375 734.328125 487.6171875 728.6171875 490.65625 c 0
 727.69140625 491.12890625 726.80078125 491.58203125 725.890625 492.03515625 c 0
 719.30859375 495.36328125 712.5078125 498.14453125 705.3984375 500.3984375 c 0
 705.21875 500.453125 705.01953125 500.4921875 704.85546875 500.546875 c 0
 697.2734375 502.92578125 689.4921875 504.63671875 681.41796875 505.69140625 c 1
 682.2890625 521.34375 676.7109375 540.3828125 675.21875 544.3828125 c 0
 662.87109375 577.4921875 639.2734375 604.36328125 606.96484375 622.12890625 c 0
 587.69140625 632.7265625 566.92578125 638.14453125 545.25390625 638.21875 c 0
 543.87109375 638.23828125 542.47265625 637.96484375 541.08984375 637.92578125 c 1
 541.25390625 639.69140625 541.36328125 641.453125 541.6015625 643.25390625 c 0
 550.3984375 688.03515625 573.36328125 730.30859375 612.69140625 761.07421875 c 0
 635.74609375 779.109375 661.34375 791.69140625 687.8359375 799.19921875 c 1
355.529296875 670.06640625 m 0
 373.337890625 670.641601562 391.719726562 668.3828125 410.18359375 662.890625 c 0
 439.7265625 654.109375 465.80078125 636.19921875 486.7265625 613.5625 c 2
 498.52734375 600.78125 l 1
 498.52734375 600.78125 499.34375 600.2890625 500.6015625 599.5078125 c 0
 529.23828125 613.109375 563.0546875 613.671875 593.23828125 597.08984375 c 0
 621.3828125 581.6015625 639.23828125 559.08984375 648.453125 534.3984375 c 0
 649.453125 531.7265625 653.69140625 516.30859375 652.92578125 506.6171875 c 1
 643.78125 505.91015625 634.6171875 504.6015625 625.58203125 502.109375 c 2
 624.41796875 501.78125 l 1
 623.58203125 502.69140625 l 2
 590.19921875 538.80078125 542.85546875 559.58203125 493.671875 559.7265625 c 0
 409.36328125 559.98046875 336 500.18359375 319.18359375 417.4921875 c 2
 318.98046875 416.4375 l 1
 317.96484375 416.03515625 l 2
 255 391.30859375 212.58203125 329.328125 212.3828125 261.80078125 c 0
 212.328125 244.0546875 215.14453125 226.9453125 220.2890625 210.85546875 c 1
 198.2890625 214.85546875 180.5625 219.78125 180.5625 219.78125 c 1
 115.98046875 242.5625 70.8359375 306.7109375 77.41796875 380.25390625 c 0
 82.76171875 440.01953125 124.47265625 490.4375 180.328125 512.41796875 c 2
 192.74609375 517.30859375 l 1
 196.4921875 535.63671875 l 2
 211.973632812 611.87890625 278.360351562 667.573242188 355.529296875 670.06640625 c 0
493.6171875 531.18359375 m 0
 534.890625 531.0546875 574.63671875 513.6015625 602.63671875 483.30859375 c 2
 615.25390625 469.63671875 l 1
 633.21875 474.6015625 l 2
 643.453125 477.41796875 653.85546875 478.87109375 664.109375 478.8359375 c 0
 722.23828125 478.671875 770.98046875 433.18359375 775.08984375 375.2734375 c 2
 776.36328125 357.30859375 l 1
 792.69140625 349.74609375 l 2
 834.81640625 330.18359375 861.92578125 287.63671875 861.81640625 241.30859375 c 0
 861.63671875 175.58203125 808.08984375 122.2890625 742.47265625 122.4921875 c 2
 378.328125 123.5625 l 2
 302.3828125 123.78125 240.76171875 185.78125 240.98046875 261.7109375 c 0
 241.14453125 317.63671875 276.2890625 368.96484375 328.453125 389.453125 c 2
 343.92578125 395.546875 l 1
 347.21875 411.80078125 l 2
 361.328125 481.19921875 422.92578125 531.3984375 493.6171875 531.18359375 c 0
573.2734375 83.91015625 m 1
 531.30859375 10.5078125 l 1
 582.4921875 9.7265625 l 1
 434.18359375 -192.12890625 l 1
 501.3828125 -26.14453125 l 1
 453.52734375 -26.14453125 l 1
 508.4921875 83.36328125 l 1
 573.2734375 83.91015625 l 1
345.85546875 67.546875 m 1
 345.85546875 67.546875 354.03515625 14.52734375 335.01953125 -22.34375 c 0
 310.96484375 -68.78125 256.07421875 -38.3984375 279.1640625 6.41796875 c 0
 298.76171875 44.5078125 345.85546875 67.546875 345.85546875 67.546875 c 1
752.74609375 67.546875 m 1
 752.74609375 67.546875 760.92578125 14.52734375 741.91015625 -22.34375 c 0
 717.85546875 -68.78125 662.96484375 -38.3984375 686.0546875 6.41796875 c 0
 705.65625 44.5078125 752.74609375 67.546875 752.74609375 67.546875 c 1
369.52734375 -70.80078125 m 1
 369.52734375 -70.80078125 377.7109375 -123.80078125 358.69140625 -160.69140625 c 0
 334.63671875 -207.12890625 279.74609375 -176.74609375 302.8359375 -131.92578125 c 0
 322.4375 -93.8359375 369.52734375 -70.80078125 369.52734375 -70.80078125 c 1
640.6171875 -70.80078125 m 1
 640.6171875 -70.80078125 648.81640625 -123.80078125 629.78125 -160.69140625 c 0
 605.7265625 -207.12890625 550.8359375 -176.74609375 573.92578125 -131.92578125 c 0
 593.52734375 -93.8359375 640.6171875 -70.80078125 640.6171875 -70.80078125 c 1
EndSplineSet
EndChar

